{"glyphs":{"0":{"ha":1175,"x_min":138,"x_max":1263,"o":"m 507 -26 q 318 18 401 -26 q 186 156 235 63 q 138 396 138 250 q 161 623 138 506 q 230 854 185 740 q 341 1068 275 968 q 491 1245 407 1168 q 677 1366 575 1322 q 897 1410 779 1410 q 1084 1365 1001 1410 q 1215 1228 1167 1319 q 1263 996 1263 1136 q 1239 765 1263 885 q 1171 531 1215 646 q 1061 317 1126 417 q 912 140 996 217 q 726 18 828 63 q 507 -26 625 -26 m 536 93 q 698 131 621 93 q 842 235 775 168 q 962 388 908 301 q 1053 573 1015 475 q 1110 771 1090 671 q 1132 964 1131 871 q 1099 1156 1132 1085 q 1008 1258 1067 1226 q 868 1290 949 1290 q 703 1253 782 1290 q 558 1149 625 1215 q 438 996 492 1082 q 347 813 385 910 q 290 617 310 717 q 269 428 269 518 q 303 228 269 301 q 396 124 336 154 q 536 93 456 93 z "},"1":{"ha":693,"x_min":208,"x_max":778,"o":"m 265 -19 q 222 -9 236 -19 q 215 22 208 1 l 601 1224 q 520 1169 561 1196 q 441 1120 479 1143 q 368 1079 403 1097 q 317 1065 338 1064 q 281 1097 296 1065 q 278 1144 268 1128 q 322 1179 289 1161 q 414 1232 365 1203 q 510 1294 463 1261 q 599 1360 558 1328 q 640 1391 624 1381 q 675 1406 657 1401 q 722 1410 693 1410 q 764 1399 750 1410 q 771 1368 778 1389 l 342 19 q 317 -11 336 -3 q 265 -19 297 -19 z "},"2":{"ha":1022,"x_min":-36,"x_max":1136,"o":"m 4 0 q -26 15 -15 0 q -34 51 -36 31 q -12 88 -32 72 l 417 425 q 608 579 522 508 q 759 713 693 650 q 873 831 825 775 q 952 935 921 886 q 999 1029 983 983 q 1014 1118 1014 1075 q 988 1217 1014 1178 q 912 1275 963 1256 q 788 1294 861 1294 q 613 1259 690 1294 q 453 1165 535 1224 q 405 1144 425 1143 q 363 1171 385 1144 q 349 1208 344 1190 q 386 1253 354 1226 q 505 1333 438 1297 q 651 1389 572 1368 q 814 1410 731 1410 q 944 1390 885 1410 q 1046 1335 1003 1371 q 1113 1247 1089 1299 q 1136 1133 1136 1196 q 1119 1022 1136 1078 q 1069 907 1103 965 q 983 785 1036 849 q 856 653 929 722 q 689 503 783 583 q 479 332 594 424 l 199 111 l 814 111 q 834 104 828 111 q 840 83 840 97 q 823 23 840 46 q 785 0 806 0 l 4 0 z "},"3":{"ha":1050,"x_min":15,"x_max":1124,"o":"m 463 -26 q 314 -5 389 -26 q 172 60 239 17 q 53 168 106 103 q 22 217 28 199 q 43 260 15 236 q 83 281 67 282 q 122 254 100 281 q 226 160 174 197 q 340 104 278 122 q 481 86 401 86 q 645 112 575 86 q 761 184 715 138 q 830 294 807 231 q 853 431 853 357 q 821 570 853 513 q 728 659 789 628 q 583 690 668 690 l 492 690 q 471 703 476 690 q 472 746 465 717 q 494 788 481 774 q 524 801 508 801 l 606 801 q 760 820 689 801 q 885 876 832 839 q 967 972 938 914 q 997 1104 997 1029 q 981 1188 997 1151 q 935 1248 965 1224 q 864 1285 906 1272 q 771 1297 822 1297 q 665 1285 714 1297 q 568 1250 615 1274 q 469 1190 521 1226 q 422 1172 440 1172 q 379 1197 403 1171 q 366 1234 361 1217 q 401 1278 371 1251 q 511 1347 449 1317 q 645 1393 574 1376 q 792 1410 717 1410 q 918 1390 858 1410 q 1024 1331 978 1369 q 1097 1238 1071 1293 q 1124 1114 1124 1183 q 1102 978 1124 1040 q 1038 867 1081 915 q 933 785 996 818 q 785 733 869 751 q 890 669 846 714 q 957 564 933 625 q 981 433 981 503 q 946 251 981 335 q 844 104 911 167 q 681 8 778 42 q 463 -26 585 -26 z "},"4":{"ha":1069,"x_min":69,"x_max":1069,"o":"m 678 -19 q 632 -10 647 -19 q 624 22 617 0 l 738 369 l 114 369 q 76 397 83 369 q 92 450 69 425 l 882 1372 q 919 1402 900 1393 q 972 1410 939 1411 q 1009 1401 993 1407 q 1028 1381 1025 1394 q 1011 1346 1031 1368 l 264 481 l 774 481 l 922 933 q 993 972 935 972 q 1040 963 1025 972 q 1047 931 1054 953 l 900 481 l 1043 481 q 1063 473 1057 481 q 1069 453 1069 465 q 1052 392 1069 414 q 1014 369 1035 369 l 864 369 l 749 19 q 678 -19 736 -19 z "},"5":{"ha":1050,"x_min":33,"x_max":1217,"o":"m 471 -26 q 362 -14 417 -26 q 255 23 307 -1 q 156 84 203 47 q 71 168 110 121 q 40 219 46 200 q 60 260 33 238 q 101 283 85 283 q 140 256 117 282 q 242 160 190 197 q 356 105 294 122 q 493 88 418 88 q 663 123 589 88 q 787 220 736 158 q 864 363 838 282 q 890 532 890 443 q 877 633 890 589 q 836 710 864 678 q 764 758 808 742 q 657 775 719 775 q 542 761 597 775 q 437 723 486 747 q 343 667 388 699 q 294 646 322 650 q 249 656 265 642 q 246 710 233 671 l 472 1354 q 488 1376 476 1365 q 519 1386 500 1386 l 1190 1386 q 1210 1378 1203 1386 q 1217 1358 1217 1371 q 1199 1297 1217 1319 q 1161 1275 1182 1275 l 560 1275 l 394 804 q 476 847 433 829 q 567 876 519 865 q 663 886 614 886 q 857 842 778 886 q 977 722 936 799 q 1018 549 1018 644 q 977 304 1018 411 q 862 124 936 197 q 688 12 788 50 q 471 -26 589 -26 z "},"6":{"ha":1128,"x_min":182,"x_max":1188,"o":"m 582 -28 q 358 33 447 -28 q 226 201 269 94 q 182 440 182 307 q 224 749 182 604 q 349 1015 267 894 q 547 1224 431 1136 q 809 1360 663 1313 q 1128 1410 956 1408 q 1167 1404 1150 1410 q 1185 1367 1183 1399 q 1176 1317 1188 1329 q 1129 1303 1164 1304 q 849 1253 976 1299 q 621 1130 721 1208 q 452 945 521 1051 q 347 711 383 839 q 310 443 310 583 q 327 299 310 365 q 380 185 344 233 q 471 110 415 138 q 601 83 526 83 q 751 115 685 83 q 865 205 818 147 q 938 340 913 263 q 963 507 963 417 q 940 630 963 574 q 865 719 917 686 q 726 753 814 753 q 611 738 665 753 q 508 694 557 722 q 419 629 460 667 q 345 548 378 592 q 289 457 313 504 l 258 568 q 354 696 301 640 q 469 790 407 751 q 601 847 531 828 q 749 867 671 867 q 899 840 835 867 q 1006 768 964 814 q 1069 661 1049 722 q 1089 531 1089 600 q 1055 310 1089 411 q 955 132 1021 208 q 795 14 889 56 q 582 -28 701 -28 z "},"7":{"ha":851,"x_min":57,"x_max":1142,"o":"m 118 -19 q 63 0 69 -19 q 82 54 57 19 l 953 1275 l 333 1275 q 313 1282 319 1275 q 307 1303 307 1289 q 324 1363 307 1340 q 363 1386 342 1386 l 1092 1386 q 1126 1365 1111 1386 q 1119 1311 1142 1343 l 213 40 q 172 -4 193 11 q 118 -19 150 -19 z "},"8":{"ha":1050,"x_min":61,"x_max":1150,"o":"m 465 -26 q 299 -3 374 -26 q 172 62 225 19 q 90 165 118 104 q 61 300 61 225 q 96 449 61 381 q 193 576 131 518 q 341 678 256 633 q 525 754 426 724 q 415 848 457 799 q 354 951 374 897 q 335 1056 335 1004 q 368 1204 335 1139 q 462 1315 401 1269 q 606 1385 522 1361 q 788 1410 689 1410 q 930 1390 864 1410 q 1045 1335 996 1371 q 1122 1250 1094 1300 q 1150 1139 1150 1200 q 1122 1003 1150 1065 q 1043 893 1093 942 q 926 807 993 844 q 785 743 860 769 q 897 649 849 703 q 974 531 946 594 q 1001 396 1001 467 q 960 214 1001 293 q 845 81 918 135 q 675 1 772 28 q 465 -26 578 -26 m 494 86 q 642 107 574 86 q 763 168 711 128 q 844 264 815 208 q 872 389 872 319 q 844 513 872 457 q 762 613 815 568 q 635 694 708 658 q 460 624 542 665 q 318 534 379 583 q 222 426 257 485 q 188 301 188 367 q 215 203 188 243 q 285 137 242 163 q 383 99 329 111 q 494 86 438 86 m 678 801 q 859 883 782 835 q 980 990 936 932 q 1024 1111 1024 1049 q 1002 1193 1024 1158 q 944 1251 981 1228 q 863 1286 908 1275 q 767 1297 817 1297 q 649 1283 704 1297 q 552 1241 594 1269 q 485 1169 510 1213 q 461 1065 461 1125 q 491 955 461 1003 q 570 869 521 907 q 678 801 619 832 z "},"9":{"ha":1128,"x_min":168,"x_max":1172,"o":"m 772 1417 q 997 1356 908 1417 q 1128 1188 1085 1294 q 1172 949 1172 1082 q 1130 640 1172 785 q 1006 374 1088 494 q 808 165 924 253 q 545 28 692 76 q 226 -21 399 -19 q 188 -15 204 -21 q 169 22 171 -10 q 179 72 168 60 q 225 86 190 85 q 506 135 378 90 q 733 259 633 181 q 902 444 833 338 q 1008 678 971 550 q 1044 946 1044 806 q 1027 1090 1044 1024 q 974 1203 1010 1156 q 883 1278 939 1251 q 753 1306 828 1306 q 603 1274 669 1306 q 489 1184 536 1242 q 417 1049 442 1126 q 392 882 392 972 q 415 760 392 817 q 490 669 438 703 q 628 636 542 636 q 743 651 689 636 q 846 694 797 667 q 935 760 894 722 q 1009 841 976 797 q 1065 932 1042 885 l 1096 821 q 1000 693 1053 749 q 885 599 947 638 q 753 542 824 561 q 606 522 683 522 q 455 549 519 522 q 348 621 390 575 q 285 728 306 667 q 265 858 265 789 q 299 1079 265 978 q 399 1257 333 1181 q 559 1375 465 1333 q 772 1417 653 1417 z "},"\r":{"ha":417,"x_min":0,"x_max":0,"o":""}," ":{"ha":417,"x_min":0,"x_max":0,"o":""}," ":{"ha":139,"x_min":0,"x_max":0,"o":""}," ":{"ha":417,"x_min":0,"x_max":0,"o":""},"Ð":{"ha":1340,"x_min":86,"x_max":1367,"o":"m 147 0 q 99 39 86 0 l 525 1347 q 550 1376 532 1367 q 599 1386 568 1386 l 839 1386 q 1070 1353 971 1386 q 1235 1261 1169 1319 q 1334 1124 1301 1203 q 1367 954 1367 1044 q 1319 641 1367 786 q 1184 378 1271 496 q 981 176 1097 260 q 723 46 864 92 q 428 0 582 0 l 147 0 m 246 118 l 428 118 q 673 156 554 118 q 892 265 792 193 q 1069 440 993 338 q 1186 672 1144 543 q 1228 953 1228 801 q 1201 1085 1228 1026 q 1122 1185 1174 1144 q 999 1247 1071 1225 q 838 1268 926 1268 l 621 1268 l 246 118 m 165 650 q 138 665 140 650 q 139 699 135 681 q 153 735 143 718 q 189 751 163 751 l 736 751 q 765 735 763 751 q 764 699 768 718 q 750 665 760 681 q 715 650 740 650 l 165 650 z "},"Ŋ":{"ha":1369,"x_min":81,"x_max":1515,"o":"m 999 -179 q 934 -324 968 -275 q 861 -389 900 -372 q 774 -406 822 -406 q 686 -378 728 -406 q 615 -304 644 -351 q 603 -265 603 -282 q 629 -231 603 -249 q 667 -215 650 -215 q 696 -233 683 -215 q 727 -272 713 -257 q 756 -294 742 -287 q 783 -300 769 -300 q 824 -287 808 -300 q 854 -240 840 -274 q 886 -151 868 -207 l 942 21 l 593 1185 l 214 19 q 190 -10 208 0 q 142 -19 172 -19 q 93 19 81 -19 l 532 1372 q 557 1401 539 1392 q 604 1410 575 1410 q 642 1401 629 1410 q 663 1372 656 1392 l 1007 221 l 1381 1372 q 1406 1401 1388 1392 q 1453 1410 1424 1410 q 1501 1372 1515 1410 l 999 -179 z "},"Þ":{"ha":1114,"x_min":89,"x_max":1192,"o":"m 149 -19 q 103 -10 118 -19 q 94 22 89 0 l 533 1372 q 556 1401 540 1392 q 601 1410 571 1410 q 648 1400 633 1410 q 656 1368 663 1390 l 596 1192 l 775 1192 q 1006 1159 914 1192 q 1145 1059 1099 1126 q 1192 890 1192 992 q 1148 686 1192 775 q 1023 535 1104 597 q 828 433 942 472 q 576 375 715 393 q 451 365 517 368 q 326 360 386 361 l 217 19 q 195 -10 210 0 q 149 -19 181 -19 m 361 471 q 442 474 400 472 q 526 478 483 475 q 610 489 569 482 q 859 561 757 511 q 1013 690 961 611 q 1065 876 1065 768 q 1033 994 1065 949 q 932 1060 1000 1039 q 757 1081 864 1081 l 558 1081 l 361 471 z "},"ẞ":{"ha":1354,"x_min":79,"x_max":1303,"o":"m 719 -26 q 616 -20 665 -26 q 522 -1 567 -14 q 435 32 476 13 q 404 58 411 43 q 408 100 397 72 q 434 135 419 126 q 475 133 449 144 q 554 110 515 119 q 635 96 593 100 q 729 92 678 92 q 878 116 810 92 q 998 185 947 140 q 1076 290 1049 229 q 1103 422 1103 351 q 1089 522 1103 478 q 1053 603 1075 565 q 1001 672 1031 640 q 941 735 972 704 q 881 797 910 767 q 831 861 853 828 q 794 934 808 894 q 781 1021 781 974 q 805 1136 782 1085 q 868 1226 828 1188 q 961 1290 908 1264 q 761 1236 842 1274 q 628 1142 681 1199 q 540 1011 576 1086 q 475 842 504 936 l 207 19 q 183 -10 201 0 q 135 -19 165 -19 q 92 -10 104 -19 q 85 19 79 0 l 351 842 q 433 1045 389 954 q 541 1204 478 1136 q 697 1318 604 1272 q 921 1387 789 1364 q 1235 1410 1053 1410 l 1274 1410 q 1299 1397 1294 1410 q 1292 1353 1303 1385 q 1270 1308 1283 1321 q 1236 1296 1257 1296 q 1110 1278 1169 1296 q 1003 1229 1050 1261 q 931 1151 957 1197 q 906 1044 906 1104 q 922 969 907 1004 q 959 903 936 935 q 1011 843 982 872 q 1071 782 1040 814 q 1131 715 1101 750 q 1182 637 1160 679 q 1218 542 1204 594 q 1232 425 1232 490 q 1194 249 1232 331 q 1088 105 1157 167 q 926 8 1019 43 q 719 -26 832 -26 z "},"ŋ":{"ha":851,"x_min":17,"x_max":785,"o":"m 567 -151 q 506 -283 538 -239 q 440 -340 475 -326 q 361 -354 406 -354 q 283 -331 321 -354 q 217 -267 244 -308 q 202 -230 203 -246 q 228 -194 201 -214 q 265 -179 249 -179 q 296 -196 282 -179 q 337 -238 319 -226 q 372 -250 354 -250 q 415 -222 400 -250 q 453 -121 431 -193 l 651 478 q 660 551 665 521 q 630 596 654 581 q 563 611 606 611 q 484 597 524 611 q 406 557 444 583 q 334 493 368 531 q 272 408 300 456 l 144 15 q 124 -12 139 -3 q 78 -21 110 -21 q 36 -11 56 -21 q 26 25 17 -1 l 235 671 q 258 707 244 699 q 297 715 271 715 q 352 702 340 715 q 354 661 364 689 l 332 590 q 394 646 361 622 q 463 687 428 669 q 533 713 497 704 q 606 721 569 721 q 731 683 689 721 q 779 578 774 644 q 757 428 785 513 l 567 -151 z "},"$":{"ha":1039,"x_min":40,"x_max":1156,"o":"m 461 -31 q 322 -15 385 -31 q 210 24 260 0 q 122 81 160 49 q 53 147 83 113 q 49 178 40 163 q 71 206 57 193 q 104 225 89 221 q 133 215 119 229 q 213 152 167 181 q 322 106 260 124 q 463 88 383 88 q 606 107 540 88 q 722 164 672 126 q 797 258 771 201 q 824 392 824 315 q 810 474 824 438 q 768 541 796 511 q 700 597 740 571 q 608 651 660 624 q 515 707 560 678 q 435 769 471 736 q 373 844 399 803 q 333 935 347 885 q 318 1047 318 985 q 349 1192 318 1126 q 440 1306 381 1257 q 580 1383 499 1356 q 763 1410 661 1410 q 911 1387 839 1410 q 1042 1327 983 1364 q 1140 1249 1101 1290 q 1152 1219 1156 1235 q 1131 1186 1149 1203 q 1098 1168 1115 1171 q 1068 1176 1081 1165 q 987 1234 1032 1208 q 886 1276 942 1260 q 763 1292 831 1292 q 636 1275 694 1292 q 535 1228 578 1258 q 470 1152 493 1197 q 447 1047 447 1107 q 460 958 447 999 q 499 883 472 917 q 570 819 526 850 q 675 757 614 789 q 797 681 744 721 q 884 598 850 642 q 935 503 918 554 q 953 393 953 453 q 917 219 953 297 q 814 85 881 142 q 658 -1 747 29 q 461 -31 569 -31 m 322 -208 q 278 -169 265 -208 l 846 1575 q 914 1613 858 1613 q 957 1575 969 1613 l 389 -169 q 322 -208 376 -208 z "},"€":{"ha":1194,"x_min":104,"x_max":1351,"o":"m 629 -26 q 463 10 535 -26 q 342 111 392 46 q 268 266 293 176 q 243 461 243 356 q 268 673 243 564 q 340 888 293 782 q 453 1089 386 994 q 605 1256 519 1183 q 790 1369 690 1328 q 1004 1410 890 1410 q 1139 1390 1076 1410 q 1253 1333 1201 1371 q 1342 1240 1304 1296 q 1349 1213 1351 1226 q 1328 1183 1347 1199 q 1294 1168 1308 1168 q 1264 1182 1279 1168 q 1188 1243 1231 1218 q 1097 1281 1144 1268 q 992 1293 1049 1293 q 820 1256 901 1293 q 669 1156 739 1219 q 545 1010 600 1093 q 451 835 490 928 q 390 647 411 742 q 369 464 369 553 q 388 306 369 375 q 440 188 406 236 q 525 115 474 140 q 643 90 576 90 q 737 99 692 90 q 826 126 782 108 q 915 169 871 143 q 1007 229 960 194 q 1042 240 1026 243 q 1071 218 1057 236 q 1086 184 1086 200 q 1068 153 1086 168 q 915 47 988 86 q 772 -9 842 8 q 629 -26 703 -26 m 201 760 q 176 771 181 760 q 181 813 171 782 q 204 856 192 844 q 238 867 217 867 l 1032 867 q 1058 856 1053 867 q 1051 813 1063 844 q 1030 771 1043 782 q 996 760 1017 760 l 201 760 m 133 540 q 108 552 113 540 q 114 594 104 564 q 136 638 124 626 q 169 649 149 649 l 964 649 q 990 638 985 649 q 985 594 996 626 q 963 552 975 564 q 929 540 950 540 l 133 540 z "},"¢":{"ha":817,"x_min":93,"x_max":839,"o":"m 378 -26 q 219 12 282 -26 q 124 117 156 50 q 93 275 93 185 q 114 426 93 349 q 174 573 135 503 q 272 699 214 643 q 402 789 329 756 q 563 822 475 822 q 666 809 619 822 q 751 770 713 796 q 819 708 789 744 q 833 667 839 685 q 810 635 828 650 q 773 619 790 619 q 738 639 756 619 q 690 678 717 663 q 628 703 663 694 q 550 711 593 711 q 435 685 488 711 q 344 613 383 658 q 276 511 304 567 q 233 395 247 456 q 218 279 218 335 q 240 174 218 218 q 300 108 261 131 q 393 85 339 85 q 479 99 443 85 q 548 140 515 113 q 621 207 581 167 q 657 221 639 224 q 690 204 675 218 q 713 169 711 186 q 699 133 714 153 q 591 35 650 69 q 476 -13 532 0 q 378 -26 419 -26 m 265 -208 q 221 -169 208 -208 l 597 983 q 665 1022 610 1022 q 708 983 721 1022 l 332 -169 q 265 -208 319 -208 z "},"£":{"ha":1040,"x_min":-43,"x_max":1233,"o":"m -14 0 q -40 15 -37 0 q -33 60 -43 31 q -10 101 -22 92 q 22 111 3 111 l 211 111 l 353 544 l 194 544 q 169 557 174 544 q 174 599 164 569 q 197 641 185 631 q 231 651 210 651 l 388 651 l 531 1088 q 620 1267 567 1196 q 749 1374 674 1339 q 921 1410 825 1410 q 1085 1376 1008 1410 q 1215 1288 1163 1343 q 1233 1253 1232 1271 q 1210 1215 1233 1236 q 1172 1194 1189 1194 q 1133 1211 1154 1194 q 1024 1276 1081 1254 q 914 1297 967 1297 q 752 1244 818 1297 q 649 1078 686 1192 l 510 651 l 838 651 q 863 641 858 651 q 857 599 867 631 q 835 556 847 568 q 801 544 822 544 l 474 544 l 332 111 l 907 111 q 932 100 926 111 q 928 60 938 89 q 906 15 918 29 q 871 0 894 0 l -14 0 z "},"¥":{"ha":1033,"x_min":133,"x_max":1328,"o":"m 394 -19 q 346 19 333 -19 l 451 344 l 163 344 q 138 356 142 344 q 143 399 133 368 q 165 442 153 431 q 199 453 178 453 l 486 453 l 522 563 l 231 563 q 205 574 210 563 q 210 617 200 586 q 233 660 221 649 q 267 671 246 671 l 524 671 l 364 1347 q 373 1392 358 1375 q 424 1410 388 1410 q 467 1397 456 1410 q 483 1360 478 1385 l 631 739 l 1176 1364 q 1214 1399 1196 1388 q 1265 1410 1232 1410 q 1315 1388 1301 1410 q 1303 1338 1328 1367 l 718 671 l 982 671 q 1008 660 1003 671 q 1001 617 1013 649 q 979 574 992 586 q 946 563 967 563 l 647 563 l 611 453 l 914 453 q 940 442 935 453 q 935 399 944 431 q 912 356 925 368 q 878 344 899 344 l 576 344 l 471 19 q 394 -19 458 -19 z "},"%":{"ha":1271,"x_min":86,"x_max":1389,"o":"m 482 803 q 363 832 413 803 q 288 912 314 861 q 263 1025 263 963 q 278 1128 263 1075 q 321 1231 293 1181 q 388 1322 349 1282 q 478 1386 428 1363 q 589 1410 529 1410 q 708 1382 660 1410 q 783 1306 757 1354 q 808 1194 808 1257 q 794 1094 808 1147 q 751 990 779 1042 q 685 895 724 938 q 594 828 646 853 q 482 803 543 803 m 496 908 q 562 926 532 908 q 615 973 592 943 q 656 1039 639 1003 q 681 1113 672 1075 q 689 1186 689 1151 q 659 1276 689 1247 q 579 1304 629 1304 q 510 1286 542 1304 q 455 1238 479 1268 q 415 1172 431 1208 q 390 1099 399 1136 q 381 1031 381 1063 q 412 940 381 971 q 496 908 443 908 m 174 -12 q 145 -28 160 -28 q 110 -12 131 -29 q 87 18 88 6 q 101 47 86 31 l 1300 1396 q 1330 1412 1315 1411 q 1364 1396 1344 1413 q 1387 1367 1385 1379 q 1374 1338 1389 1354 l 174 -12 m 904 -26 q 785 3 833 -26 q 710 83 736 32 q 685 196 685 133 q 699 299 685 246 q 742 402 714 351 q 810 493 769 453 q 900 557 850 533 q 1010 581 950 581 q 1129 553 1081 581 q 1203 477 1178 525 q 1229 367 1229 429 q 1215 266 1229 319 q 1173 161 1200 213 q 1106 67 1146 110 q 1016 -1 1067 25 q 904 -26 965 -26 m 917 81 q 983 98 953 81 q 1036 145 1013 115 q 1076 211 1060 175 q 1101 285 1093 247 q 1110 357 1110 324 q 1080 447 1110 418 q 1001 475 1050 475 q 931 457 963 475 q 876 410 900 439 q 835 344 851 381 q 811 272 819 308 q 803 201 803 235 q 833 111 803 142 q 917 81 864 81 z "},".":{"ha":435,"x_min":32,"x_max":207,"o":"m 111 -47 q 51 -28 71 -47 q 32 26 32 -8 q 55 106 32 78 q 125 133 78 133 q 187 114 167 133 q 207 61 207 94 q 183 -19 207 10 q 111 -47 160 -47 z "},",":{"ha":435,"x_min":-72,"x_max":196,"o":"m -26 -279 q -56 -265 -40 -279 q -72 -237 -72 -251 q -70 -224 -72 -231 q -62 -210 -68 -217 q 5 -111 -21 -156 q 43 -24 31 -67 q 57 64 56 19 q 78 108 60 90 q 131 125 96 125 q 180 109 164 125 q 196 69 196 93 q 172 -46 196 17 q 106 -165 147 -108 q 14 -261 65 -222 q -8 -275 3 -271 q -26 -279 -18 -279 z "},":":{"ha":435,"x_min":32,"x_max":393,"o":"m 111 -47 q 51 -28 71 -47 q 32 26 32 -8 q 55 106 32 78 q 125 133 78 133 q 187 114 167 133 q 207 61 207 94 q 183 -19 207 10 q 111 -47 160 -47 m 297 558 q 238 578 257 558 q 218 632 218 597 q 241 711 218 683 q 311 739 264 739 q 373 719 353 739 q 393 667 393 700 q 369 587 393 615 q 297 558 346 558 z "},";":{"ha":435,"x_min":-54,"x_max":393,"o":"m 297 558 q 238 578 257 558 q 218 632 218 597 q 241 711 218 683 q 311 739 264 739 q 373 719 353 739 q 393 667 393 700 q 369 587 393 615 q 297 558 346 558 m -8 -279 q -38 -265 -22 -279 q -54 -237 -54 -251 q -52 -224 -54 -231 q -44 -210 -50 -217 q 23 -111 -3 -156 q 61 -24 49 -67 q 75 64 74 19 q 96 108 78 90 q 149 125 114 125 q 198 109 182 125 q 214 69 214 93 q 190 -46 214 17 q 124 -165 165 -108 q 32 -261 83 -222 q 10 -275 21 -271 q -8 -279 0 -279 z "},"…":{"ha":1178,"x_min":32,"x_max":950,"o":"m 483 -47 q 424 -28 443 -47 q 404 26 404 -8 q 427 106 404 78 q 497 133 450 133 q 559 114 539 133 q 579 61 579 94 q 556 -19 579 10 q 483 -47 532 -47 m 854 -47 q 794 -28 814 -47 q 775 26 775 -8 q 798 106 775 78 q 868 133 821 133 q 930 114 910 133 q 950 61 950 94 q 926 -19 950 10 q 854 -47 903 -47 m 111 -47 q 51 -28 71 -47 q 32 26 32 -8 q 55 106 32 78 q 125 133 78 133 q 187 114 167 133 q 207 61 207 94 q 183 -19 207 10 q 111 -47 160 -47 z "},"!":{"ha":539,"x_min":101,"x_max":664,"o":"m 257 300 q 208 339 196 300 l 529 1372 q 554 1401 536 1392 q 603 1410 572 1410 q 651 1372 664 1410 l 331 339 q 306 310 324 319 q 257 300 288 300 m 171 -19 q 122 -1 142 -19 q 103 53 103 18 q 126 124 101 90 q 201 157 150 157 q 249 139 231 157 q 269 85 268 121 q 247 14 271 47 q 171 -19 224 -19 z "},"¡":{"ha":539,"x_min":-110,"x_max":453,"o":"m -49 -714 q -97 -676 -110 -714 l 224 357 q 249 386 231 376 q 296 396 267 396 q 344 357 358 396 l 24 -676 q 0 -704 18 -694 q -49 -714 -18 -714 m 351 539 q 304 558 324 539 q 285 611 285 576 q 308 682 283 649 q 383 715 332 715 q 431 697 411 715 q 451 643 450 679 q 428 572 453 606 q 351 539 404 539 z "},"?":{"ha":789,"x_min":133,"x_max":997,"o":"m 276 299 q 235 308 247 299 q 228 338 222 318 l 335 663 q 356 690 340 679 q 394 700 371 700 q 617 738 525 700 q 764 838 708 776 q 845 971 819 899 q 871 1111 871 1043 q 847 1210 871 1168 q 777 1275 822 1251 q 667 1299 732 1299 q 557 1283 610 1299 q 456 1240 504 1267 q 368 1183 408 1214 q 337 1180 354 1174 q 307 1206 319 1186 q 293 1242 293 1228 q 310 1269 293 1257 q 433 1350 371 1319 q 556 1395 496 1381 q 669 1410 615 1410 q 851 1369 778 1410 q 960 1261 924 1329 q 997 1111 997 1193 q 960 925 997 1014 q 852 765 924 836 q 676 649 781 694 q 432 593 571 604 l 350 338 q 326 308 344 318 q 276 299 307 299 m 200 -19 q 153 -1 172 -19 q 133 53 133 18 q 157 124 133 90 q 232 157 181 157 q 280 139 260 157 q 300 85 300 121 q 276 14 300 47 q 200 -19 253 -19 z "},"¿":{"ha":789,"x_min":-221,"x_max":643,"o":"m 500 397 q 542 388 529 397 q 549 358 556 378 l 442 33 q 421 6 436 17 q 382 -4 406 -4 q 160 -42 251 -4 q 13 -142 68 -81 q -69 -275 -43 -203 q -94 -415 -94 -347 q -70 -513 -94 -471 q -1 -579 -46 -556 q 110 -603 44 -603 q 219 -587 167 -603 q 320 -544 272 -571 q 408 -487 368 -517 q 441 -484 424 -478 q 469 -510 458 -490 q 483 -547 483 -532 q 467 -574 483 -561 q 344 -653 407 -622 q 222 -699 282 -685 q 107 -714 163 -714 q -74 -674 -1 -714 q -184 -565 -147 -633 q -221 -415 -221 -496 q -184 -229 -221 -318 q -76 -69 -147 -140 q 101 47 -4 1 q 344 103 206 92 l 426 358 q 451 388 433 378 q 500 397 469 397 m 576 715 q 624 697 604 715 q 643 643 643 679 q 620 572 643 606 q 544 539 597 539 q 497 558 517 539 q 476 611 476 576 q 501 682 476 649 q 576 715 525 715 z "},"'":{"ha":235,"x_min":289,"x_max":510,"o":"m 322 988 q 290 1001 292 988 q 293 1031 289 1014 l 372 1340 q 397 1379 378 1363 q 450 1396 415 1396 q 499 1379 489 1396 q 501 1340 510 1363 l 381 1031 q 360 1001 374 1014 q 322 988 347 988 z "},"\"":{"ha":467,"x_min":289,"x_max":742,"o":"m 322 988 q 290 1001 292 988 q 293 1031 289 1014 l 372 1340 q 397 1379 378 1363 q 450 1396 415 1396 q 499 1379 489 1396 q 501 1340 510 1363 l 381 1031 q 360 1001 374 1014 q 322 988 347 988 m 554 988 q 522 1001 524 988 q 525 1031 521 1014 l 604 1340 q 628 1379 610 1363 q 682 1396 647 1396 q 731 1379 721 1396 q 733 1340 742 1363 l 613 1031 q 592 1001 606 1014 q 554 988 579 988 z "},"‘":{"ha":297,"x_min":300,"x_max":563,"o":"m 367 990 q 316 1007 332 990 q 300 1046 300 1024 q 313 1130 300 1085 q 350 1222 326 1175 q 406 1309 374 1268 q 475 1379 438 1350 q 497 1392 486 1388 q 515 1396 507 1396 q 547 1383 531 1396 q 563 1354 563 1369 q 560 1342 563 1349 q 551 1326 557 1335 q 487 1229 511 1274 q 451 1143 463 1185 q 439 1051 440 1101 q 419 1008 438 1025 q 367 990 400 990 z "},"’":{"ha":296,"x_min":279,"x_max":542,"o":"m 475 1396 q 526 1380 510 1396 q 542 1340 542 1364 q 528 1256 542 1301 q 492 1165 515 1211 q 436 1077 468 1118 q 367 1007 404 1036 q 345 994 356 999 q 326 990 335 990 q 296 1004 313 990 q 279 1032 279 1018 q 282 1045 279 1039 q 290 1060 285 1051 q 356 1157 332 1113 q 390 1244 379 1201 q 403 1335 401 1286 q 423 1378 404 1361 q 475 1396 442 1396 z "},"‚":{"ha":307,"x_min":-125,"x_max":143,"o":"m -79 -279 q -109 -265 -93 -279 q -125 -237 -125 -251 q -123 -224 -125 -231 q -115 -210 -121 -217 q -48 -111 -74 -156 q -10 -24 -22 -67 q 4 64 3 19 q 25 108 7 90 q 78 125 43 125 q 127 109 111 125 q 143 69 143 93 q 119 -46 143 17 q 53 -165 94 -108 q -39 -261 13 -222 q -60 -275 -50 -271 q -79 -279 -71 -279 z "},"“":{"ha":546,"x_min":300,"x_max":811,"o":"m 367 990 q 316 1007 332 990 q 300 1046 300 1024 q 313 1130 300 1085 q 350 1222 326 1175 q 406 1309 374 1268 q 475 1379 438 1350 q 497 1392 486 1388 q 515 1396 507 1396 q 547 1383 531 1396 q 563 1354 563 1369 q 560 1342 563 1349 q 551 1326 557 1335 q 487 1229 511 1274 q 451 1143 463 1185 q 439 1051 440 1101 q 419 1008 438 1025 q 367 990 400 990 m 617 990 q 566 1007 582 990 q 550 1046 550 1024 q 563 1130 550 1085 q 600 1222 576 1175 q 656 1309 624 1268 q 725 1379 688 1350 q 747 1392 736 1388 q 765 1396 757 1396 q 797 1383 781 1396 q 813 1354 813 1369 q 810 1342 813 1349 q 801 1326 807 1335 q 737 1229 761 1274 q 701 1143 713 1185 q 689 1051 690 1101 q 669 1008 688 1025 q 617 990 650 990 z "},"”":{"ha":546,"x_min":279,"x_max":790,"o":"m 725 1396 q 776 1380 760 1396 q 792 1340 792 1364 q 778 1256 792 1301 q 742 1165 765 1211 q 686 1077 718 1118 q 617 1007 654 1036 q 595 994 606 999 q 576 990 585 990 q 546 1004 563 990 q 529 1032 529 1018 q 532 1045 529 1039 q 540 1060 535 1051 q 606 1157 582 1113 q 640 1244 629 1201 q 653 1335 651 1286 q 673 1378 654 1361 q 725 1396 692 1396 m 475 1396 q 526 1380 510 1396 q 542 1340 542 1364 q 528 1256 542 1301 q 492 1165 515 1211 q 436 1077 468 1118 q 367 1007 404 1036 q 345 994 356 999 q 326 990 335 990 q 296 1004 313 990 q 279 1032 279 1018 q 282 1045 279 1039 q 290 1060 285 1051 q 356 1157 332 1113 q 390 1244 379 1201 q 403 1335 401 1286 q 423 1378 404 1361 q 475 1396 442 1396 z "},"„":{"ha":554,"x_min":-125,"x_max":390,"o":"m 168 -279 q 138 -265 154 -279 q 122 -237 122 -251 q 124 -224 122 -231 q 132 -210 126 -217 q 199 -111 174 -156 q 238 -24 225 -67 q 251 64 250 19 q 272 108 254 90 q 325 125 290 125 q 374 109 358 125 q 390 69 390 93 q 366 -46 390 17 q 301 -165 342 -108 q 208 -261 260 -222 q 187 -275 197 -271 q 168 -279 176 -279 m -79 -279 q -109 -265 -93 -279 q -125 -237 -125 -251 q -123 -224 -125 -231 q -115 -210 -121 -217 q -48 -111 -74 -156 q -10 -24 -22 -67 q 4 64 3 19 q 25 108 7 90 q 78 125 43 125 q 127 109 111 125 q 143 69 143 93 q 119 -46 143 17 q 53 -165 94 -108 q -39 -261 13 -222 q -60 -275 -50 -271 q -79 -279 -71 -279 z "},"«":{"ha":1007,"x_min":129,"x_max":996,"o":"m 339 -19 q 303 -11 318 -19 q 276 19 288 -3 l 146 297 q 133 326 136 315 q 129 342 129 336 q 142 365 129 353 q 181 401 154 378 l 492 678 q 537 707 517 699 q 578 715 557 715 q 622 703 604 715 q 644 675 640 692 q 629 640 649 658 l 271 322 l 394 56 q 393 3 410 25 q 339 -19 376 -19 m 686 -19 q 650 -11 665 -19 q 624 19 635 -3 l 493 297 q 480 326 483 315 q 476 342 476 336 q 489 365 476 353 q 528 401 501 378 l 839 678 q 884 707 864 699 q 925 715 904 715 q 969 703 951 715 q 992 675 988 692 q 976 640 996 658 l 618 322 l 742 56 q 740 3 757 25 q 686 -19 724 -19 z "},"»":{"ha":1007,"x_min":13,"x_max":879,"o":"m 82 -21 q 38 -9 57 -21 q 16 20 19 3 q 32 54 13 38 l 388 374 l 265 639 q 267 692 251 671 q 321 714 283 714 q 358 706 342 714 q 383 675 374 699 l 514 397 q 528 369 524 379 q 532 353 532 360 q 519 330 532 343 q 479 293 507 317 l 168 18 q 124 -12 144 -3 q 82 -21 103 -21 m 429 -21 q 385 -9 404 -21 q 363 20 367 3 q 379 54 360 38 l 735 374 l 613 639 q 615 692 599 671 q 668 714 631 714 q 705 706 689 714 q 731 675 721 699 l 861 397 q 875 369 871 379 q 879 353 879 360 q 867 330 879 343 q 826 293 854 317 l 515 18 q 471 -12 492 -3 q 429 -21 450 -21 z "},"‹":{"ha":660,"x_min":129,"x_max":649,"o":"m 339 -19 q 303 -11 318 -19 q 276 19 288 -3 l 146 297 q 133 326 136 315 q 129 342 129 336 q 142 365 129 353 q 181 401 154 378 l 492 678 q 537 707 517 699 q 578 715 557 715 q 622 703 604 715 q 644 675 640 692 q 629 640 649 658 l 271 322 l 394 56 q 393 3 410 25 q 339 -19 376 -19 z "},"›":{"ha":660,"x_min":13,"x_max":532,"o":"m 82 -21 q 38 -9 57 -21 q 16 20 19 3 q 32 54 13 38 l 388 374 l 265 639 q 267 692 251 671 q 321 714 283 714 q 358 706 342 714 q 383 675 374 699 l 514 397 q 528 369 524 379 q 532 353 532 360 q 519 330 532 343 q 479 293 507 317 l 168 18 q 124 -12 144 -3 q 82 -21 103 -21 z "},"Á":{"ha":1157,"x_min":-79,"x_max":1108,"o":"m -21 -19 q -68 2 -57 -19 q -58 54 -79 24 l 803 1354 q 843 1398 822 1386 q 897 1410 864 1410 q 940 1397 924 1410 q 957 1339 956 1383 l 1018 43 q 1005 -2 1021 15 q 953 -19 989 -19 q 913 -8 922 -19 q 900 32 903 4 l 883 396 l 306 396 l 69 36 q 30 -10 44 0 q -21 -19 15 -19 m 382 507 l 879 507 l 846 1214 l 382 507 m 828 1469 q 794 1488 813 1469 q 775 1521 775 1507 q 777 1532 775 1526 q 788 1546 779 1538 l 1007 1747 q 1020 1758 1014 1754 q 1035 1763 1026 1763 q 1066 1750 1049 1763 q 1096 1721 1083 1738 q 1108 1689 1108 1704 q 1106 1672 1108 1679 q 1088 1654 1103 1665 l 854 1483 q 840 1474 846 1478 q 828 1469 833 1469 z "},"Ă":{"ha":1157,"x_min":-79,"x_max":1210,"o":"m -21 -19 q -68 2 -57 -19 q -58 54 -79 24 l 803 1354 q 843 1398 822 1386 q 897 1410 864 1410 q 940 1397 924 1410 q 957 1339 956 1383 l 1018 43 q 1005 -2 1021 15 q 953 -19 989 -19 q 913 -8 922 -19 q 900 32 903 4 l 883 396 l 306 396 l 69 36 q 30 -10 44 0 q -21 -19 15 -19 m 382 507 l 879 507 l 846 1214 l 382 507 m 900 1469 q 746 1531 799 1469 q 707 1721 693 1593 q 722 1750 710 1742 q 756 1758 735 1758 q 790 1748 776 1758 q 803 1721 803 1738 q 835 1619 801 1650 q 922 1589 869 1589 q 1033 1626 986 1589 q 1104 1717 1079 1663 q 1128 1750 1115 1742 q 1160 1758 1140 1758 q 1197 1746 1183 1758 q 1203 1713 1210 1733 q 1131 1564 1171 1617 q 1035 1490 1092 1511 q 900 1469 979 1469 z "},"Ǎ":{"ha":1157,"x_min":-79,"x_max":1206,"o":"m -21 -19 q -68 2 -57 -19 q -58 54 -79 24 l 803 1354 q 843 1398 822 1386 q 897 1410 864 1410 q 940 1397 924 1410 q 957 1339 956 1383 l 1018 43 q 1005 -2 1021 15 q 953 -19 989 -19 q 913 -8 922 -19 q 900 32 903 4 l 883 396 l 306 396 l 69 36 q 30 -10 44 0 q -21 -19 15 -19 m 382 507 l 879 507 l 846 1214 l 382 507 m 1163 1758 q 1192 1742 1179 1758 q 1206 1710 1206 1725 q 1201 1689 1206 1696 q 1190 1676 1197 1682 l 964 1501 q 925 1477 943 1485 q 885 1469 907 1469 q 852 1479 867 1469 q 825 1507 838 1489 l 697 1688 q 689 1706 690 1699 q 688 1718 688 1713 q 708 1747 688 1735 q 742 1758 728 1758 q 763 1752 756 1758 q 779 1736 769 1746 l 910 1611 l 1122 1738 q 1142 1751 1132 1743 q 1163 1758 1151 1758 z "},"Â":{"ha":1157,"x_min":-79,"x_max":1169,"o":"m -21 -19 q -68 2 -57 -19 q -58 54 -79 24 l 803 1354 q 843 1398 822 1386 q 897 1410 864 1410 q 940 1397 924 1410 q 957 1339 956 1383 l 1018 43 q 1005 -2 1021 15 q 953 -19 989 -19 q 913 -8 922 -19 q 900 32 903 4 l 883 396 l 306 396 l 69 36 q 30 -10 44 0 q -21 -19 15 -19 m 382 507 l 879 507 l 846 1214 l 382 507 m 692 1469 q 664 1486 675 1469 q 653 1518 653 1503 q 658 1539 653 1532 q 668 1551 663 1546 l 893 1726 q 933 1751 914 1744 q 974 1758 951 1758 q 1006 1749 992 1758 q 1032 1722 1021 1740 l 1161 1542 q 1169 1524 1168 1532 q 1169 1510 1169 1517 q 1151 1481 1169 1493 q 1121 1469 1133 1469 q 1097 1476 1107 1469 q 1076 1493 1088 1483 l 947 1618 l 735 1485 q 715 1474 725 1479 q 692 1469 704 1469 z "},"Ä":{"ha":1157,"x_min":-79,"x_max":1181,"o":"m -21 -19 q -68 2 -57 -19 q -58 54 -79 24 l 803 1354 q 843 1398 822 1386 q 897 1410 864 1410 q 940 1397 924 1410 q 957 1339 956 1383 l 1018 43 q 1005 -2 1021 15 q 953 -19 989 -19 q 913 -8 922 -19 q 900 32 903 4 l 883 396 l 306 396 l 69 36 q 30 -10 44 0 q -21 -19 15 -19 m 382 507 l 879 507 l 846 1214 l 382 507 m 738 1517 q 689 1535 708 1517 q 669 1589 669 1553 q 695 1659 669 1626 q 771 1692 721 1692 q 818 1674 799 1692 q 838 1621 838 1657 q 814 1550 838 1583 q 738 1517 790 1517 m 1079 1517 q 1031 1535 1051 1517 q 1011 1589 1011 1553 q 1037 1659 1011 1626 q 1113 1692 1063 1692 q 1160 1674 1140 1692 q 1181 1621 1181 1657 q 1156 1550 1181 1583 q 1079 1517 1132 1517 z "},"Ǽ":{"ha":1486,"x_min":-76,"x_max":1747,"o":"m 1278 0 l 704 0 q 655 13 669 0 q 650 56 640 25 l 838 638 l 544 638 l 50 3 q 15 -19 36 -15 q -33 -17 -6 -24 q -68 9 -60 -8 q -61 46 -76 26 l 951 1342 q 985 1376 968 1365 q 1028 1386 1003 1386 l 1721 1386 q 1742 1372 1736 1386 q 1740 1331 1747 1358 q 1718 1289 1732 1303 q 1689 1275 1704 1275 l 1167 1275 l 997 749 l 1418 749 q 1439 735 1433 749 q 1436 693 1444 721 q 1415 651 1429 665 q 1386 638 1401 638 l 961 638 l 792 111 l 1310 111 q 1331 98 1325 111 q 1328 56 1336 85 q 1307 15 1321 29 q 1278 0 1293 0 m 631 749 l 874 749 l 1046 1282 l 631 749 m 1324 1469 q 1290 1488 1308 1469 q 1271 1521 1271 1507 q 1273 1532 1271 1526 q 1283 1546 1275 1538 l 1503 1747 q 1516 1758 1510 1754 q 1531 1763 1522 1763 q 1562 1750 1544 1763 q 1592 1721 1579 1738 q 1604 1689 1604 1704 q 1601 1672 1604 1679 q 1583 1654 1599 1665 l 1350 1483 q 1335 1474 1342 1478 q 1324 1469 1329 1469 z "},"À":{"ha":1157,"x_min":-79,"x_max":1022,"o":"m -21 -19 q -68 2 -57 -19 q -58 54 -79 24 l 803 1354 q 843 1398 822 1386 q 897 1410 864 1410 q 940 1397 924 1410 q 957 1339 956 1383 l 1018 43 q 1005 -2 1021 15 q 953 -19 989 -19 q 913 -8 922 -19 q 900 32 903 4 l 883 396 l 306 396 l 69 36 q 30 -10 44 0 q -21 -19 15 -19 m 382 507 l 879 507 l 846 1214 l 382 507 m 969 1469 q 957 1474 964 1469 q 943 1483 950 1478 l 744 1656 q 727 1674 731 1667 q 724 1690 724 1681 q 737 1722 724 1706 q 768 1751 750 1739 q 799 1763 786 1763 q 815 1758 808 1763 q 828 1747 821 1754 l 1011 1544 q 1021 1530 1019 1535 q 1022 1521 1022 1525 q 1003 1488 1022 1507 q 969 1469 985 1469 z "},"Ā":{"ha":1157,"x_min":-79,"x_max":1167,"o":"m -21 -19 q -68 2 -57 -19 q -58 54 -79 24 l 803 1354 q 843 1398 822 1386 q 897 1410 864 1410 q 940 1397 924 1410 q 957 1339 956 1383 l 1018 43 q 1005 -2 1021 15 q 953 -19 989 -19 q 913 -8 922 -19 q 900 32 903 4 l 883 396 l 306 396 l 69 36 q 30 -10 44 0 q -21 -19 15 -19 m 382 507 l 879 507 l 846 1214 l 382 507 m 731 1556 q 698 1572 704 1556 q 699 1613 692 1588 q 718 1658 706 1643 q 756 1674 731 1674 l 1128 1674 q 1162 1656 1156 1674 q 1161 1613 1168 1639 q 1142 1569 1154 1583 q 1104 1556 1129 1556 l 731 1556 z "},"Ą":{"ha":1157,"x_min":-79,"x_max":1021,"o":"m -21 -19 q -68 2 -57 -19 q -58 54 -79 24 l 803 1354 q 843 1398 822 1386 q 897 1410 864 1410 q 940 1397 924 1410 q 957 1339 956 1383 l 1018 43 q 1005 -2 1021 15 q 953 -19 989 -19 q 913 -8 922 -19 q 900 32 903 4 l 883 396 l 306 396 l 69 36 q 30 -10 44 0 q -21 -19 15 -19 m 382 507 l 879 507 l 846 1214 l 382 507 m 769 -357 q 693 -332 719 -357 q 667 -267 667 -307 q 690 -186 667 -225 q 750 -112 713 -147 q 831 -44 788 -78 q 918 19 875 -11 l 1013 22 l 1013 14 q 933 -47 972 -17 q 861 -108 893 -78 q 810 -165 829 -137 q 790 -215 790 -192 q 800 -240 790 -231 q 828 -250 810 -250 q 879 -235 854 -250 q 931 -194 904 -219 q 956 -181 942 -183 q 983 -193 969 -179 q 997 -216 992 -203 q 993 -244 1003 -229 q 938 -299 975 -272 q 856 -341 900 -325 q 769 -357 811 -357 z "},"Å":{"ha":1157,"x_min":-79,"x_max":1133,"o":"m -21 -19 q -68 2 -57 -19 q -58 54 -79 24 l 803 1354 q 843 1398 822 1386 q 897 1410 864 1410 q 940 1397 924 1410 q 957 1339 956 1383 l 1018 43 q 1005 -2 1021 15 q 953 -19 989 -19 q 913 -8 922 -19 q 900 32 903 4 l 883 396 l 306 396 l 69 36 q 30 -10 44 0 q -21 -19 15 -19 m 382 507 l 879 507 l 846 1214 l 382 507 m 910 1460 q 816 1478 854 1460 q 758 1529 778 1496 q 739 1608 739 1563 q 768 1704 739 1661 q 847 1772 797 1747 q 958 1797 897 1797 q 1054 1779 1015 1797 q 1113 1728 1093 1761 q 1133 1647 1133 1694 q 1103 1551 1133 1593 q 1024 1484 1074 1508 q 910 1460 974 1460 m 917 1543 q 999 1572 965 1543 q 1032 1644 1032 1601 q 1013 1696 1032 1678 q 953 1714 993 1714 q 874 1684 907 1714 q 840 1613 840 1654 q 860 1561 840 1579 q 917 1543 881 1543 z "},"Ã":{"ha":1157,"x_min":-79,"x_max":1200,"o":"m -21 -19 q -68 2 -57 -19 q -58 54 -79 24 l 803 1354 q 843 1398 822 1386 q 897 1410 864 1410 q 940 1397 924 1410 q 957 1339 956 1383 l 1018 43 q 1005 -2 1021 15 q 953 -19 989 -19 q 913 -8 922 -19 q 900 32 903 4 l 883 396 l 306 396 l 69 36 q 30 -10 44 0 q -21 -19 15 -19 m 382 507 l 879 507 l 846 1214 l 382 507 m 704 1510 q 663 1549 658 1510 q 714 1683 674 1642 q 826 1725 754 1725 q 902 1710 872 1725 q 953 1674 932 1694 q 996 1639 975 1654 q 1046 1624 1017 1624 q 1080 1640 1065 1624 q 1100 1690 1094 1656 q 1158 1728 1108 1728 q 1191 1719 1182 1728 q 1197 1690 1200 1710 q 1147 1556 1188 1599 q 1039 1513 1107 1513 q 963 1528 994 1513 q 906 1563 931 1543 q 861 1597 882 1582 q 815 1613 840 1613 q 779 1594 794 1613 q 757 1540 764 1576 q 741 1518 754 1526 q 704 1510 728 1510 z "},"Ắ":{"ha":1157,"x_min":-79,"x_max":1210,"o":"m -21 -19 q -68 2 -57 -19 q -58 54 -79 24 l 803 1354 q 843 1398 822 1386 q 897 1410 864 1410 q 940 1397 924 1410 q 957 1339 956 1383 l 1018 43 q 1005 -2 1021 15 q 953 -19 989 -19 q 913 -8 922 -19 q 900 32 903 4 l 883 396 l 306 396 l 69 36 q 30 -10 44 0 q -21 -19 15 -19 m 382 507 l 879 507 l 846 1214 l 382 507 m 900 1469 q 746 1531 799 1469 q 707 1721 693 1593 q 722 1750 710 1742 q 756 1758 735 1758 q 790 1748 776 1758 q 803 1721 803 1738 q 835 1619 801 1650 q 922 1589 869 1589 q 1033 1626 986 1589 q 1104 1717 1079 1663 q 1128 1750 1115 1742 q 1160 1758 1140 1758 q 1197 1746 1183 1758 q 1203 1713 1210 1733 q 1131 1564 1171 1617 q 1035 1490 1092 1511 q 900 1469 979 1469 m 896 1740 q 862 1759 881 1740 q 843 1793 843 1778 q 845 1803 843 1799 q 856 1817 847 1808 l 1075 2018 q 1088 2029 1082 2025 q 1103 2033 1094 2033 q 1134 2021 1117 2033 q 1164 1992 1151 2008 q 1176 1961 1176 1975 q 1174 1944 1176 1951 q 1156 1926 1171 1936 l 922 1754 q 908 1744 914 1749 q 896 1740 901 1740 z "},"Ặ":{"ha":1157,"x_min":-79,"x_max":1210,"o":"m -21 -19 q -68 2 -57 -19 q -58 54 -79 24 l 803 1354 q 843 1398 822 1386 q 897 1410 864 1410 q 940 1397 924 1410 q 957 1339 956 1383 l 1018 43 q 1005 -2 1021 15 q 953 -19 989 -19 q 913 -8 922 -19 q 900 32 903 4 l 883 396 l 306 396 l 69 36 q 30 -10 44 0 q -21 -19 15 -19 m 382 507 l 879 507 l 846 1214 l 382 507 m 371 -322 q 324 -304 343 -322 q 304 -251 304 -286 q 328 -181 304 -214 q 404 -147 353 -147 q 453 -165 433 -147 q 472 -218 472 -183 q 448 -290 472 -257 q 371 -322 424 -322 m 900 1469 q 746 1531 799 1469 q 707 1721 693 1593 q 722 1750 710 1742 q 756 1758 735 1758 q 790 1748 776 1758 q 803 1721 803 1738 q 835 1619 801 1650 q 922 1589 869 1589 q 1033 1626 986 1589 q 1104 1717 1079 1663 q 1128 1750 1115 1742 q 1160 1758 1140 1758 q 1197 1746 1183 1758 q 1203 1713 1210 1733 q 1131 1564 1171 1617 q 1035 1490 1092 1511 q 900 1469 979 1469 z "},"Ằ":{"ha":1157,"x_min":-79,"x_max":1210,"o":"m -21 -19 q -68 2 -57 -19 q -58 54 -79 24 l 803 1354 q 843 1398 822 1386 q 897 1410 864 1410 q 940 1397 924 1410 q 957 1339 956 1383 l 1018 43 q 1005 -2 1021 15 q 953 -19 989 -19 q 913 -8 922 -19 q 900 32 903 4 l 883 396 l 306 396 l 69 36 q 30 -10 44 0 q -21 -19 15 -19 m 382 507 l 879 507 l 846 1214 l 382 507 m 900 1469 q 746 1531 799 1469 q 707 1721 693 1593 q 722 1750 710 1742 q 756 1758 735 1758 q 790 1748 776 1758 q 803 1721 803 1738 q 835 1619 801 1650 q 922 1589 869 1589 q 1033 1626 986 1589 q 1104 1717 1079 1663 q 1128 1750 1115 1742 q 1160 1758 1140 1758 q 1197 1746 1183 1758 q 1203 1713 1210 1733 q 1131 1564 1171 1617 q 1035 1490 1092 1511 q 900 1469 979 1469 m 1025 1736 q 1013 1740 1019 1736 q 999 1750 1006 1744 l 800 1922 q 783 1940 786 1933 q 779 1957 779 1947 q 792 1989 779 1972 q 824 2017 806 2006 q 856 2029 842 2029 q 869 2025 863 2029 q 882 2014 875 2021 l 1065 1811 q 1076 1797 1075 1801 q 1078 1788 1078 1793 q 1059 1754 1078 1772 q 1025 1736 1040 1736 z "},"Ẳ":{"ha":1157,"x_min":-79,"x_max":1210,"o":"m -21 -19 q -68 2 -57 -19 q -58 54 -79 24 l 803 1354 q 843 1398 822 1386 q 897 1410 864 1410 q 940 1397 924 1410 q 957 1339 956 1383 l 1018 43 q 1005 -2 1021 15 q 953 -19 989 -19 q 913 -8 922 -19 q 900 32 903 4 l 883 396 l 306 396 l 69 36 q 30 -10 44 0 q -21 -19 15 -19 m 382 507 l 879 507 l 846 1214 l 382 507 m 900 1469 q 746 1531 799 1469 q 707 1721 693 1593 q 722 1750 710 1742 q 756 1758 735 1758 q 790 1748 776 1758 q 803 1721 803 1738 q 835 1619 801 1650 q 922 1589 869 1589 q 1033 1626 986 1589 q 1104 1717 1079 1663 q 1128 1750 1115 1742 q 1160 1758 1140 1758 q 1197 1746 1183 1758 q 1203 1713 1210 1733 q 1131 1564 1171 1617 q 1035 1490 1092 1511 q 900 1469 979 1469 m 999 2046 q 1106 2016 1067 2046 q 1144 1932 1144 1986 q 1122 1858 1144 1889 q 1061 1810 1099 1826 q 1017 1781 1026 1794 q 1008 1756 1007 1768 l 1010 1742 q 999 1715 1013 1725 q 967 1703 986 1706 q 931 1708 947 1701 q 911 1729 915 1714 l 903 1765 q 910 1824 894 1799 q 961 1867 925 1849 q 997 1892 986 1878 q 1008 1921 1008 1907 q 999 1938 1008 1932 q 974 1944 990 1944 q 932 1938 954 1944 q 888 1917 910 1931 q 836 1950 857 1900 q 856 2004 824 1979 q 923 2035 888 2025 q 999 2046 958 2046 z "},"Ẵ":{"ha":1157,"x_min":-79,"x_max":1258,"o":"m -21 -19 q -68 2 -57 -19 q -58 54 -79 24 l 803 1354 q 843 1398 822 1386 q 897 1410 864 1410 q 940 1397 924 1410 q 957 1339 956 1383 l 1018 43 q 1005 -2 1021 15 q 953 -19 989 -19 q 913 -8 922 -19 q 900 32 903 4 l 883 396 l 306 396 l 69 36 q 30 -10 44 0 q -21 -19 15 -19 m 382 507 l 879 507 l 846 1214 l 382 507 m 900 1469 q 746 1531 799 1469 q 707 1721 693 1593 q 722 1750 710 1742 q 756 1758 735 1758 q 790 1748 776 1758 q 803 1721 803 1738 q 835 1619 801 1650 q 922 1589 869 1589 q 1033 1626 986 1589 q 1104 1717 1079 1663 q 1128 1750 1115 1742 q 1160 1758 1140 1758 q 1197 1746 1183 1758 q 1203 1713 1210 1733 q 1131 1564 1171 1617 q 1035 1490 1092 1511 q 900 1469 979 1469 m 764 1799 q 722 1836 718 1799 q 774 1972 733 1929 q 886 2014 814 2014 q 962 1999 932 2014 q 1013 1963 992 1983 q 1056 1926 1035 1942 q 1106 1911 1076 1911 q 1140 1928 1125 1911 q 1160 1979 1154 1944 q 1218 2015 1168 2015 q 1251 2006 1242 2015 q 1257 1979 1260 1997 q 1207 1843 1247 1886 q 1099 1800 1167 1800 q 1022 1815 1054 1800 q 966 1851 990 1831 q 921 1886 942 1871 q 875 1901 900 1901 q 839 1883 854 1901 q 817 1828 824 1864 q 801 1806 814 1814 q 764 1799 788 1799 z "},"Ấ":{"ha":1157,"x_min":-79,"x_max":1411,"o":"m -21 -19 q -68 2 -57 -19 q -58 54 -79 24 l 803 1354 q 843 1398 822 1386 q 897 1410 864 1410 q 940 1397 924 1410 q 957 1339 956 1383 l 1018 43 q 1005 -2 1021 15 q 953 -19 989 -19 q 913 -8 922 -19 q 900 32 903 4 l 883 396 l 306 396 l 69 36 q 30 -10 44 0 q -21 -19 15 -19 m 382 507 l 879 507 l 846 1214 l 382 507 m 692 1469 q 664 1486 675 1469 q 653 1518 653 1503 q 658 1539 653 1532 q 668 1551 663 1546 l 893 1726 q 933 1751 914 1744 q 974 1758 951 1758 q 1006 1749 992 1758 q 1032 1722 1021 1740 l 1161 1542 q 1169 1524 1168 1532 q 1169 1510 1169 1517 q 1151 1481 1169 1493 q 1121 1469 1133 1469 q 1097 1476 1107 1469 q 1076 1493 1088 1483 l 947 1618 l 735 1485 q 715 1474 725 1479 q 692 1469 704 1469 m 1168 1685 q 1134 1704 1153 1685 q 1115 1736 1115 1724 q 1117 1747 1115 1742 q 1129 1763 1119 1753 l 1310 1939 q 1323 1951 1317 1947 q 1338 1956 1329 1956 q 1369 1943 1351 1956 q 1400 1913 1388 1931 q 1413 1881 1413 1896 q 1409 1864 1413 1871 q 1390 1847 1406 1857 l 1194 1699 q 1180 1688 1186 1692 q 1168 1685 1174 1685 z "},"Ậ":{"ha":1157,"x_min":-79,"x_max":1169,"o":"m -21 -19 q -68 2 -57 -19 q -58 54 -79 24 l 803 1354 q 843 1398 822 1386 q 897 1410 864 1410 q 940 1397 924 1410 q 957 1339 956 1383 l 1018 43 q 1005 -2 1021 15 q 953 -19 989 -19 q 913 -8 922 -19 q 900 32 903 4 l 883 396 l 306 396 l 69 36 q 30 -10 44 0 q -21 -19 15 -19 m 382 507 l 879 507 l 846 1214 l 382 507 m 371 -322 q 324 -304 343 -322 q 304 -251 304 -286 q 328 -181 304 -214 q 404 -147 353 -147 q 453 -165 433 -147 q 472 -218 472 -183 q 448 -290 472 -257 q 371 -322 424 -322 m 692 1469 q 664 1486 675 1469 q 653 1518 653 1503 q 658 1539 653 1532 q 668 1551 663 1546 l 893 1726 q 933 1751 914 1744 q 974 1758 951 1758 q 1006 1749 992 1758 q 1032 1722 1021 1740 l 1161 1542 q 1169 1524 1168 1532 q 1169 1510 1169 1517 q 1151 1481 1169 1493 q 1121 1469 1133 1469 q 1097 1476 1107 1469 q 1076 1493 1088 1483 l 947 1618 l 735 1485 q 715 1474 725 1479 q 692 1469 704 1469 z "},"Ầ":{"ha":1157,"x_min":-79,"x_max":1303,"o":"m -21 -19 q -68 2 -57 -19 q -58 54 -79 24 l 803 1354 q 843 1398 822 1386 q 897 1410 864 1410 q 940 1397 924 1410 q 957 1339 956 1383 l 1018 43 q 1005 -2 1021 15 q 953 -19 989 -19 q 913 -8 922 -19 q 900 32 903 4 l 883 396 l 306 396 l 69 36 q 30 -10 44 0 q -21 -19 15 -19 m 382 507 l 879 507 l 846 1214 l 382 507 m 692 1469 q 664 1486 675 1469 q 653 1518 653 1503 q 658 1539 653 1532 q 668 1551 663 1546 l 893 1726 q 933 1751 914 1744 q 974 1758 951 1758 q 1006 1749 992 1758 q 1032 1722 1021 1740 l 1161 1542 q 1169 1524 1168 1532 q 1169 1510 1169 1517 q 1151 1481 1169 1493 q 1121 1469 1133 1469 q 1097 1476 1107 1469 q 1076 1493 1088 1483 l 947 1618 l 735 1485 q 715 1474 725 1479 q 692 1469 704 1469 m 1247 1663 q 1235 1665 1242 1663 q 1222 1675 1229 1668 l 1050 1865 q 1034 1885 1039 1878 q 1029 1901 1029 1892 q 1042 1933 1029 1917 q 1075 1960 1056 1950 q 1110 1971 1094 1971 q 1126 1967 1118 1971 q 1139 1956 1133 1963 l 1292 1740 q 1301 1724 1299 1729 q 1303 1713 1303 1718 q 1285 1680 1303 1697 q 1247 1663 1267 1663 z "},"Ẩ":{"ha":1157,"x_min":-79,"x_max":1378,"o":"m -21 -19 q -68 2 -57 -19 q -58 54 -79 24 l 803 1354 q 843 1398 822 1386 q 897 1410 864 1410 q 940 1397 924 1410 q 957 1339 956 1383 l 1018 43 q 1005 -2 1021 15 q 953 -19 989 -19 q 913 -8 922 -19 q 900 32 903 4 l 883 396 l 306 396 l 69 36 q 30 -10 44 0 q -21 -19 15 -19 m 382 507 l 879 507 l 846 1214 l 382 507 m 692 1469 q 664 1486 675 1469 q 653 1518 653 1503 q 658 1539 653 1532 q 668 1551 663 1546 l 893 1726 q 933 1751 914 1744 q 974 1758 951 1758 q 1006 1749 992 1758 q 1032 1722 1021 1740 l 1161 1542 q 1169 1524 1168 1532 q 1169 1510 1169 1517 q 1151 1481 1169 1493 q 1121 1469 1133 1469 q 1097 1476 1107 1469 q 1076 1493 1088 1483 l 947 1618 l 735 1485 q 715 1474 725 1479 q 692 1469 704 1469 m 1232 1996 q 1339 1966 1300 1996 q 1378 1882 1378 1936 q 1355 1808 1378 1839 q 1294 1760 1332 1776 q 1250 1731 1260 1744 q 1242 1706 1240 1718 l 1243 1692 q 1233 1665 1246 1675 q 1200 1653 1219 1656 q 1165 1658 1181 1651 q 1144 1679 1149 1664 l 1136 1715 q 1143 1774 1128 1749 q 1194 1817 1158 1799 q 1231 1842 1219 1828 q 1242 1871 1242 1857 q 1233 1888 1242 1882 q 1207 1894 1224 1894 q 1165 1888 1188 1894 q 1121 1867 1143 1881 q 1069 1900 1092 1850 q 1089 1954 1057 1929 q 1156 1985 1121 1975 q 1232 1996 1192 1996 z "},"Ẫ":{"ha":1157,"x_min":-79,"x_max":1268,"o":"m -21 -19 q -68 2 -57 -19 q -58 54 -79 24 l 803 1354 q 843 1398 822 1386 q 897 1410 864 1410 q 940 1397 924 1410 q 957 1339 956 1383 l 1018 43 q 1005 -2 1021 15 q 953 -19 989 -19 q 913 -8 922 -19 q 900 32 903 4 l 883 396 l 306 396 l 69 36 q 30 -10 44 0 q -21 -19 15 -19 m 382 507 l 879 507 l 846 1214 l 382 507 m 692 1469 q 664 1486 675 1469 q 653 1518 653 1503 q 658 1539 653 1532 q 668 1551 663 1546 l 893 1726 q 933 1751 914 1744 q 974 1758 951 1758 q 1006 1749 992 1758 q 1032 1722 1021 1740 l 1161 1542 q 1169 1524 1168 1532 q 1169 1510 1169 1517 q 1151 1481 1169 1493 q 1121 1469 1133 1469 q 1097 1476 1107 1469 q 1076 1493 1088 1483 l 947 1618 l 735 1485 q 715 1474 725 1479 q 692 1469 704 1469 m 772 1779 q 731 1817 726 1779 q 782 1952 742 1910 q 894 1994 822 1994 q 971 1979 940 1994 q 1023 1943 1001 1964 q 1065 1907 1044 1922 q 1114 1892 1085 1892 q 1148 1908 1133 1892 q 1168 1960 1163 1925 q 1226 1996 1176 1996 q 1259 1987 1250 1996 q 1265 1960 1268 1978 q 1215 1824 1256 1867 q 1107 1781 1175 1781 q 1031 1796 1063 1781 q 976 1831 1000 1811 q 930 1867 951 1851 q 883 1882 908 1882 q 847 1863 863 1882 q 825 1808 832 1844 q 809 1787 822 1794 q 772 1779 796 1779 z "},"Ạ":{"ha":1157,"x_min":-79,"x_max":1021,"o":"m -21 -19 q -68 2 -57 -19 q -58 54 -79 24 l 803 1354 q 843 1398 822 1386 q 897 1410 864 1410 q 940 1397 924 1410 q 957 1339 956 1383 l 1018 43 q 1005 -2 1021 15 q 953 -19 989 -19 q 913 -8 922 -19 q 900 32 903 4 l 883 396 l 306 396 l 69 36 q 30 -10 44 0 q -21 -19 15 -19 m 382 507 l 879 507 l 846 1214 l 382 507 m 371 -322 q 324 -304 343 -322 q 304 -251 304 -286 q 328 -181 304 -214 q 404 -147 353 -147 q 453 -165 433 -147 q 472 -218 472 -183 q 448 -290 472 -257 q 371 -322 424 -322 z "},"Ả":{"ha":1157,"x_min":-79,"x_max":1093,"o":"m -21 -19 q -68 2 -57 -19 q -58 54 -79 24 l 803 1354 q 843 1398 822 1386 q 897 1410 864 1410 q 940 1397 924 1410 q 957 1339 956 1383 l 1018 43 q 1005 -2 1021 15 q 953 -19 989 -19 q 913 -8 922 -19 q 900 32 903 4 l 883 396 l 306 396 l 69 36 q 30 -10 44 0 q -21 -19 15 -19 m 382 507 l 879 507 l 846 1214 l 382 507 m 947 1800 q 1054 1770 1015 1800 q 1093 1686 1093 1740 q 1070 1612 1093 1643 q 1010 1564 1047 1581 q 965 1535 975 1549 q 957 1510 956 1522 l 958 1496 q 948 1469 961 1479 q 915 1458 935 1460 q 880 1462 896 1456 q 860 1483 864 1468 l 851 1519 q 858 1578 843 1553 q 910 1621 874 1603 q 946 1647 935 1632 q 957 1675 957 1661 q 948 1692 957 1686 q 922 1699 939 1699 q 881 1692 903 1699 q 836 1671 858 1685 q 785 1704 806 1654 q 804 1758 772 1733 q 872 1790 836 1779 q 947 1800 907 1800 z "},"Ć":{"ha":1196,"x_min":210,"x_max":1403,"o":"m 663 -26 q 476 9 560 -26 q 333 111 393 44 q 242 271 274 178 q 210 481 210 364 q 233 683 210 578 q 301 893 256 789 q 413 1090 346 997 q 569 1256 481 1183 q 768 1369 658 1328 q 1010 1410 878 1410 q 1169 1390 1096 1410 q 1299 1332 1242 1369 q 1392 1242 1356 1294 q 1397 1215 1403 1226 q 1371 1188 1390 1203 q 1339 1172 1353 1174 q 1306 1186 1325 1169 q 1224 1244 1269 1221 q 1120 1280 1178 1268 q 989 1292 1063 1292 q 808 1258 893 1292 q 649 1164 722 1224 q 519 1026 576 1104 q 422 858 463 947 q 361 678 382 769 q 340 500 340 588 q 362 326 340 403 q 426 198 383 250 q 533 119 469 146 q 683 92 597 92 q 785 106 738 92 q 876 147 832 121 q 965 211 919 174 q 1063 293 1010 249 q 1095 303 1079 308 q 1125 282 1111 299 q 1145 245 1143 260 q 1132 215 1147 231 q 957 72 1039 125 q 803 -3 875 19 q 663 -26 731 -26 m 963 1469 q 928 1488 947 1469 q 910 1521 910 1507 q 912 1532 910 1526 q 922 1546 914 1538 l 1142 1747 q 1155 1758 1149 1754 q 1169 1763 1161 1763 q 1201 1750 1183 1763 q 1231 1721 1218 1738 q 1243 1689 1243 1704 q 1240 1672 1243 1679 q 1222 1654 1238 1665 l 989 1483 q 974 1474 981 1478 q 963 1469 968 1469 z "},"Č":{"ha":1196,"x_min":210,"x_max":1403,"o":"m 663 -26 q 476 9 560 -26 q 333 111 393 44 q 242 271 274 178 q 210 481 210 364 q 233 683 210 578 q 301 893 256 789 q 413 1090 346 997 q 569 1256 481 1183 q 768 1369 658 1328 q 1010 1410 878 1410 q 1169 1390 1096 1410 q 1299 1332 1242 1369 q 1392 1242 1356 1294 q 1397 1215 1403 1226 q 1371 1188 1390 1203 q 1339 1172 1353 1174 q 1306 1186 1325 1169 q 1224 1244 1269 1221 q 1120 1280 1178 1268 q 989 1292 1063 1292 q 808 1258 893 1292 q 649 1164 722 1224 q 519 1026 576 1104 q 422 858 463 947 q 361 678 382 769 q 340 500 340 588 q 362 326 340 403 q 426 198 383 250 q 533 119 469 146 q 683 92 597 92 q 785 106 738 92 q 876 147 832 121 q 965 211 919 174 q 1063 293 1010 249 q 1095 303 1079 308 q 1125 282 1111 299 q 1145 245 1143 260 q 1132 215 1147 231 q 957 72 1039 125 q 803 -3 875 19 q 663 -26 731 -26 m 1297 1758 q 1327 1742 1314 1758 q 1340 1710 1340 1725 q 1336 1689 1340 1696 q 1325 1676 1332 1682 l 1099 1501 q 1060 1477 1078 1485 q 1019 1469 1042 1469 q 987 1479 1001 1469 q 960 1507 972 1489 l 832 1688 q 824 1706 825 1699 q 822 1718 822 1713 q 842 1747 822 1735 q 876 1758 863 1758 q 897 1752 890 1758 q 914 1736 904 1746 l 1044 1611 l 1257 1738 q 1276 1751 1267 1743 q 1297 1758 1286 1758 z "},"Ç":{"ha":1196,"x_min":210,"x_max":1403,"o":"m 663 -26 q 476 9 560 -26 q 333 111 393 44 q 242 271 274 178 q 210 481 210 364 q 233 683 210 578 q 301 893 256 789 q 413 1090 346 997 q 569 1256 481 1183 q 768 1369 658 1328 q 1010 1410 878 1410 q 1169 1390 1096 1410 q 1299 1332 1242 1369 q 1392 1242 1356 1294 q 1397 1215 1403 1226 q 1371 1188 1390 1203 q 1339 1172 1353 1174 q 1306 1186 1325 1169 q 1224 1244 1269 1221 q 1120 1280 1178 1268 q 989 1292 1063 1292 q 808 1258 893 1292 q 649 1164 722 1224 q 519 1026 576 1104 q 422 858 463 947 q 361 678 382 769 q 340 500 340 588 q 362 326 340 403 q 426 198 383 250 q 533 119 469 146 q 683 92 597 92 q 785 106 738 92 q 876 147 832 121 q 965 211 919 174 q 1063 293 1010 249 q 1095 303 1079 308 q 1125 282 1111 299 q 1145 245 1143 260 q 1132 215 1147 231 q 957 72 1039 125 q 803 -3 875 19 q 663 -26 731 -26 m 515 -374 q 423 -363 464 -374 q 358 -335 382 -353 q 349 -306 347 -324 q 357 -276 350 -289 q 378 -252 367 -258 q 404 -251 390 -246 q 449 -269 422 -260 q 518 -278 475 -278 q 572 -267 553 -278 q 592 -229 592 -257 q 565 -191 592 -199 q 500 -187 538 -183 q 478 -185 485 -189 q 467 -172 472 -181 q 463 -153 461 -162 q 472 -135 465 -144 l 574 18 l 665 18 l 558 -146 l 518 -124 q 622 -112 579 -104 q 688 -147 665 -119 q 711 -215 711 -175 q 684 -302 711 -267 q 613 -356 657 -337 q 515 -374 568 -374 z "},"Ĉ":{"ha":1196,"x_min":210,"x_max":1403,"o":"m 663 -26 q 476 9 560 -26 q 333 111 393 44 q 242 271 274 178 q 210 481 210 364 q 233 683 210 578 q 301 893 256 789 q 413 1090 346 997 q 569 1256 481 1183 q 768 1369 658 1328 q 1010 1410 878 1410 q 1169 1390 1096 1410 q 1299 1332 1242 1369 q 1392 1242 1356 1294 q 1397 1215 1403 1226 q 1371 1188 1390 1203 q 1339 1172 1353 1174 q 1306 1186 1325 1169 q 1224 1244 1269 1221 q 1120 1280 1178 1268 q 989 1292 1063 1292 q 808 1258 893 1292 q 649 1164 722 1224 q 519 1026 576 1104 q 422 858 463 947 q 361 678 382 769 q 340 500 340 588 q 362 326 340 403 q 426 198 383 250 q 533 119 469 146 q 683 92 597 92 q 785 106 738 92 q 876 147 832 121 q 965 211 919 174 q 1063 293 1010 249 q 1095 303 1079 308 q 1125 282 1111 299 q 1145 245 1143 260 q 1132 215 1147 231 q 957 72 1039 125 q 803 -3 875 19 q 663 -26 731 -26 m 826 1469 q 799 1486 810 1469 q 788 1518 788 1503 q 792 1539 788 1532 q 803 1551 797 1546 l 1028 1726 q 1067 1751 1049 1744 q 1108 1758 1086 1758 q 1141 1749 1126 1758 q 1167 1722 1156 1740 l 1296 1542 q 1303 1524 1303 1532 q 1304 1510 1304 1517 q 1286 1481 1304 1493 q 1256 1469 1268 1469 q 1232 1476 1242 1469 q 1211 1493 1222 1483 l 1082 1618 l 869 1485 q 849 1474 860 1479 q 826 1469 839 1469 z "},"Ċ":{"ha":1196,"x_min":210,"x_max":1403,"o":"m 663 -26 q 476 9 560 -26 q 333 111 393 44 q 242 271 274 178 q 210 481 210 364 q 233 683 210 578 q 301 893 256 789 q 413 1090 346 997 q 569 1256 481 1183 q 768 1369 658 1328 q 1010 1410 878 1410 q 1169 1390 1096 1410 q 1299 1332 1242 1369 q 1392 1242 1356 1294 q 1397 1215 1403 1226 q 1371 1188 1390 1203 q 1339 1172 1353 1174 q 1306 1186 1325 1169 q 1224 1244 1269 1221 q 1120 1280 1178 1268 q 989 1292 1063 1292 q 808 1258 893 1292 q 649 1164 722 1224 q 519 1026 576 1104 q 422 858 463 947 q 361 678 382 769 q 340 500 340 588 q 362 326 340 403 q 426 198 383 250 q 533 119 469 146 q 683 92 597 92 q 785 106 738 92 q 876 147 832 121 q 965 211 919 174 q 1063 293 1010 249 q 1095 303 1079 308 q 1125 282 1111 299 q 1145 245 1143 260 q 1132 215 1147 231 q 957 72 1039 125 q 803 -3 875 19 q 663 -26 731 -26 m 1046 1517 q 997 1535 1017 1517 q 978 1589 978 1553 q 1003 1659 978 1626 q 1079 1692 1028 1692 q 1126 1674 1107 1692 q 1146 1621 1146 1657 q 1122 1550 1146 1583 q 1046 1517 1099 1517 z "},"Ď":{"ha":1340,"x_min":86,"x_max":1367,"o":"m 147 0 q 99 39 86 0 l 525 1347 q 550 1376 532 1367 q 599 1386 568 1386 l 839 1386 q 1070 1353 971 1386 q 1235 1261 1169 1319 q 1334 1124 1301 1203 q 1367 954 1367 1044 q 1319 641 1367 786 q 1184 378 1271 496 q 981 176 1097 260 q 723 46 864 92 q 428 0 582 0 l 147 0 m 246 118 l 428 118 q 673 156 554 118 q 892 265 792 193 q 1069 440 993 338 q 1186 672 1144 543 q 1228 953 1228 801 q 1201 1085 1228 1026 q 1122 1185 1174 1144 q 999 1247 1071 1225 q 838 1268 926 1268 l 621 1268 l 246 118 m 1243 1758 q 1273 1742 1260 1758 q 1286 1710 1286 1725 q 1282 1689 1286 1696 q 1271 1676 1278 1682 l 1044 1501 q 1006 1477 1024 1485 q 965 1469 988 1469 q 933 1479 947 1469 q 906 1507 918 1489 l 778 1688 q 769 1706 771 1699 q 768 1718 768 1713 q 788 1747 768 1735 q 822 1758 808 1758 q 843 1752 836 1758 q 860 1736 850 1746 l 990 1611 l 1203 1738 q 1222 1751 1213 1743 q 1243 1758 1232 1758 z "},"Đ":{"ha":1340,"x_min":86,"x_max":1367,"o":"m 147 0 q 99 39 86 0 l 525 1347 q 550 1376 532 1367 q 599 1386 568 1386 l 839 1386 q 1070 1353 971 1386 q 1235 1261 1169 1319 q 1334 1124 1301 1203 q 1367 954 1367 1044 q 1319 641 1367 786 q 1184 378 1271 496 q 981 176 1097 260 q 723 46 864 92 q 428 0 582 0 l 147 0 m 246 118 l 428 118 q 673 156 554 118 q 892 265 792 193 q 1069 440 993 338 q 1186 672 1144 543 q 1228 953 1228 801 q 1201 1085 1228 1026 q 1122 1185 1174 1144 q 999 1247 1071 1225 q 838 1268 926 1268 l 621 1268 l 246 118 m 165 650 q 138 665 140 650 q 139 699 135 681 q 153 735 143 718 q 189 751 163 751 l 736 751 q 765 735 763 751 q 764 699 768 718 q 750 665 760 681 q 715 650 740 650 l 165 650 z "},"É":{"ha":1022,"x_min":99,"x_max":1283,"o":"m 161 0 q 113 13 126 0 q 107 56 99 25 l 524 1347 q 545 1376 529 1367 q 589 1386 561 1386 l 1257 1386 q 1278 1372 1272 1386 q 1275 1331 1283 1358 q 1254 1289 1268 1303 q 1225 1275 1240 1275 l 622 1275 l 465 789 l 965 789 q 986 775 981 789 q 985 733 992 761 q 963 692 976 706 q 933 678 949 678 l 429 678 l 249 111 l 844 111 q 866 98 860 111 q 864 56 872 85 q 843 15 857 29 q 814 0 829 0 l 161 0 m 857 1469 q 823 1488 842 1469 q 804 1521 804 1507 q 806 1532 804 1526 q 817 1546 808 1538 l 1036 1747 q 1049 1758 1043 1754 q 1064 1763 1056 1763 q 1095 1750 1078 1763 q 1125 1721 1113 1738 q 1138 1689 1138 1704 q 1135 1672 1138 1679 q 1117 1654 1132 1665 l 883 1483 q 869 1474 875 1478 q 857 1469 863 1469 z "},"Ĕ":{"ha":1022,"x_min":99,"x_max":1283,"o":"m 161 0 q 113 13 126 0 q 107 56 99 25 l 524 1347 q 545 1376 529 1367 q 589 1386 561 1386 l 1257 1386 q 1278 1372 1272 1386 q 1275 1331 1283 1358 q 1254 1289 1268 1303 q 1225 1275 1240 1275 l 622 1275 l 465 789 l 965 789 q 986 775 981 789 q 985 733 992 761 q 963 692 976 706 q 933 678 949 678 l 429 678 l 249 111 l 844 111 q 866 98 860 111 q 864 56 872 85 q 843 15 857 29 q 814 0 829 0 l 161 0 m 929 1469 q 775 1531 828 1469 q 736 1721 722 1593 q 751 1750 739 1742 q 785 1758 764 1758 q 819 1748 806 1758 q 832 1721 832 1738 q 865 1619 831 1650 q 951 1589 899 1589 q 1062 1626 1015 1589 q 1133 1717 1108 1663 q 1157 1750 1144 1742 q 1189 1758 1169 1758 q 1226 1746 1213 1758 q 1232 1713 1239 1733 q 1160 1564 1200 1617 q 1065 1490 1121 1511 q 929 1469 1008 1469 z "},"Ě":{"ha":1022,"x_min":99,"x_max":1283,"o":"m 161 0 q 113 13 126 0 q 107 56 99 25 l 524 1347 q 545 1376 529 1367 q 589 1386 561 1386 l 1257 1386 q 1278 1372 1272 1386 q 1275 1331 1283 1358 q 1254 1289 1268 1303 q 1225 1275 1240 1275 l 622 1275 l 465 789 l 965 789 q 986 775 981 789 q 985 733 992 761 q 963 692 976 706 q 933 678 949 678 l 429 678 l 249 111 l 844 111 q 866 98 860 111 q 864 56 872 85 q 843 15 857 29 q 814 0 829 0 l 161 0 m 1192 1758 q 1222 1742 1208 1758 q 1235 1710 1235 1725 q 1231 1689 1235 1696 q 1219 1676 1226 1682 l 993 1501 q 954 1477 972 1485 q 914 1469 936 1469 q 881 1479 896 1469 q 854 1507 867 1489 l 726 1688 q 718 1706 719 1699 q 717 1718 717 1713 q 737 1747 717 1735 q 771 1758 757 1758 q 792 1752 785 1758 q 808 1736 799 1746 l 939 1611 l 1151 1738 q 1171 1751 1161 1743 q 1192 1758 1181 1758 z "},"Ê":{"ha":1022,"x_min":99,"x_max":1283,"o":"m 161 0 q 113 13 126 0 q 107 56 99 25 l 524 1347 q 545 1376 529 1367 q 589 1386 561 1386 l 1257 1386 q 1278 1372 1272 1386 q 1275 1331 1283 1358 q 1254 1289 1268 1303 q 1225 1275 1240 1275 l 622 1275 l 465 789 l 965 789 q 986 775 981 789 q 985 733 992 761 q 963 692 976 706 q 933 678 949 678 l 429 678 l 249 111 l 844 111 q 866 98 860 111 q 864 56 872 85 q 843 15 857 29 q 814 0 829 0 l 161 0 m 721 1469 q 693 1486 704 1469 q 682 1518 682 1503 q 687 1539 682 1532 q 697 1551 692 1546 l 922 1726 q 962 1751 943 1744 q 1003 1758 981 1758 q 1035 1749 1021 1758 q 1061 1722 1050 1740 l 1190 1542 q 1198 1524 1197 1532 q 1199 1510 1199 1517 q 1181 1481 1199 1493 q 1150 1469 1163 1469 q 1126 1476 1136 1469 q 1106 1493 1117 1483 l 976 1618 l 764 1485 q 744 1474 754 1479 q 721 1469 733 1469 z "},"Ë":{"ha":1022,"x_min":99,"x_max":1283,"o":"m 161 0 q 113 13 126 0 q 107 56 99 25 l 524 1347 q 545 1376 529 1367 q 589 1386 561 1386 l 1257 1386 q 1278 1372 1272 1386 q 1275 1331 1283 1358 q 1254 1289 1268 1303 q 1225 1275 1240 1275 l 622 1275 l 465 789 l 965 789 q 986 775 981 789 q 985 733 992 761 q 963 692 976 706 q 933 678 949 678 l 429 678 l 249 111 l 844 111 q 866 98 860 111 q 864 56 872 85 q 843 15 857 29 q 814 0 829 0 l 161 0 m 767 1517 q 718 1535 738 1517 q 699 1589 699 1553 q 724 1659 699 1626 q 800 1692 750 1692 q 847 1674 828 1692 q 867 1621 867 1657 q 843 1550 867 1583 q 767 1517 819 1517 m 1108 1517 q 1060 1535 1081 1517 q 1040 1589 1040 1553 q 1066 1659 1040 1626 q 1142 1692 1092 1692 q 1190 1674 1169 1692 q 1210 1621 1210 1657 q 1185 1550 1210 1583 q 1108 1517 1161 1517 z "},"Ė":{"ha":1022,"x_min":99,"x_max":1283,"o":"m 161 0 q 113 13 126 0 q 107 56 99 25 l 524 1347 q 545 1376 529 1367 q 589 1386 561 1386 l 1257 1386 q 1278 1372 1272 1386 q 1275 1331 1283 1358 q 1254 1289 1268 1303 q 1225 1275 1240 1275 l 622 1275 l 465 789 l 965 789 q 986 775 981 789 q 985 733 992 761 q 963 692 976 706 q 933 678 949 678 l 429 678 l 249 111 l 844 111 q 866 98 860 111 q 864 56 872 85 q 843 15 857 29 q 814 0 829 0 l 161 0 m 940 1517 q 892 1535 911 1517 q 872 1589 872 1553 q 897 1659 872 1626 q 974 1692 922 1692 q 1021 1674 1001 1692 q 1040 1621 1040 1657 q 1017 1550 1040 1583 q 940 1517 993 1517 z "},"È":{"ha":1022,"x_min":99,"x_max":1283,"o":"m 161 0 q 113 13 126 0 q 107 56 99 25 l 524 1347 q 545 1376 529 1367 q 589 1386 561 1386 l 1257 1386 q 1278 1372 1272 1386 q 1275 1331 1283 1358 q 1254 1289 1268 1303 q 1225 1275 1240 1275 l 622 1275 l 465 789 l 965 789 q 986 775 981 789 q 985 733 992 761 q 963 692 976 706 q 933 678 949 678 l 429 678 l 249 111 l 844 111 q 866 98 860 111 q 864 56 872 85 q 843 15 857 29 q 814 0 829 0 l 161 0 m 999 1469 q 986 1474 993 1469 q 972 1483 979 1478 l 774 1656 q 756 1674 760 1667 q 753 1690 753 1681 q 766 1722 753 1706 q 797 1751 779 1739 q 828 1763 815 1763 q 844 1758 838 1763 q 857 1747 850 1754 l 1040 1544 q 1050 1530 1049 1535 q 1051 1521 1051 1525 q 1033 1488 1051 1507 q 999 1469 1014 1469 z "},"Ē":{"ha":1022,"x_min":99,"x_max":1283,"o":"m 161 0 q 113 13 126 0 q 107 56 99 25 l 524 1347 q 545 1376 529 1367 q 589 1386 561 1386 l 1257 1386 q 1278 1372 1272 1386 q 1275 1331 1283 1358 q 1254 1289 1268 1303 q 1225 1275 1240 1275 l 622 1275 l 465 789 l 965 789 q 986 775 981 789 q 985 733 992 761 q 963 692 976 706 q 933 678 949 678 l 429 678 l 249 111 l 844 111 q 866 98 860 111 q 864 56 872 85 q 843 15 857 29 q 814 0 829 0 l 161 0 m 760 1556 q 727 1572 733 1556 q 728 1613 721 1588 q 747 1658 735 1643 q 785 1674 760 1674 l 1157 1674 q 1191 1656 1185 1674 q 1190 1613 1197 1639 q 1171 1569 1183 1583 q 1133 1556 1158 1556 l 760 1556 z "},"Ę":{"ha":1022,"x_min":99,"x_max":1283,"o":"m 161 0 q 113 13 126 0 q 107 56 99 25 l 524 1347 q 545 1376 529 1367 q 589 1386 561 1386 l 1257 1386 q 1278 1372 1272 1386 q 1275 1331 1283 1358 q 1254 1289 1268 1303 q 1225 1275 1240 1275 l 622 1275 l 465 789 l 965 789 q 986 775 981 789 q 985 733 992 761 q 963 692 976 706 q 933 678 949 678 l 429 678 l 249 111 l 844 111 q 866 98 860 111 q 864 56 872 85 q 843 15 857 29 q 814 0 829 0 l 161 0 m 603 -349 q 526 -324 553 -349 q 500 -258 500 -299 q 523 -178 500 -217 q 583 -104 546 -139 q 665 -36 621 -69 q 751 28 708 -3 l 846 31 l 846 22 q 766 -39 806 -8 q 694 -99 726 -69 q 643 -156 663 -129 q 624 -207 624 -183 q 633 -232 624 -222 q 661 -242 643 -242 q 713 -226 688 -242 q 764 -186 738 -211 q 789 -173 775 -175 q 817 -185 803 -171 q 831 -208 825 -194 q 826 -236 836 -221 q 771 -290 808 -264 q 689 -333 733 -317 q 603 -349 644 -349 z "},"Ế":{"ha":1022,"x_min":99,"x_max":1442,"o":"m 161 0 q 113 13 126 0 q 107 56 99 25 l 524 1347 q 545 1376 529 1367 q 589 1386 561 1386 l 1257 1386 q 1278 1372 1272 1386 q 1275 1331 1283 1358 q 1254 1289 1268 1303 q 1225 1275 1240 1275 l 622 1275 l 465 789 l 965 789 q 986 775 981 789 q 985 733 992 761 q 963 692 976 706 q 933 678 949 678 l 429 678 l 249 111 l 844 111 q 866 98 860 111 q 864 56 872 85 q 843 15 857 29 q 814 0 829 0 l 161 0 m 721 1469 q 693 1486 704 1469 q 682 1518 682 1503 q 687 1539 682 1532 q 697 1551 692 1546 l 922 1726 q 962 1751 943 1744 q 1003 1758 981 1758 q 1035 1749 1021 1758 q 1061 1722 1050 1740 l 1190 1542 q 1198 1524 1197 1532 q 1199 1510 1199 1517 q 1181 1481 1199 1493 q 1150 1469 1163 1469 q 1126 1476 1136 1469 q 1106 1493 1117 1483 l 976 1618 l 764 1485 q 744 1474 754 1479 q 721 1469 733 1469 m 1197 1685 q 1163 1704 1182 1685 q 1144 1736 1144 1724 q 1147 1747 1144 1742 q 1158 1763 1149 1753 l 1339 1939 q 1352 1951 1346 1947 q 1367 1956 1358 1956 q 1399 1943 1381 1956 q 1429 1913 1417 1931 q 1442 1881 1442 1896 q 1438 1864 1442 1871 q 1419 1847 1435 1857 l 1224 1699 q 1209 1688 1215 1692 q 1197 1685 1203 1685 z "},"Ệ":{"ha":1022,"x_min":99,"x_max":1283,"o":"m 161 0 q 113 13 126 0 q 107 56 99 25 l 524 1347 q 545 1376 529 1367 q 589 1386 561 1386 l 1257 1386 q 1278 1372 1272 1386 q 1275 1331 1283 1358 q 1254 1289 1268 1303 q 1225 1275 1240 1275 l 622 1275 l 465 789 l 965 789 q 986 775 981 789 q 985 733 992 761 q 963 692 976 706 q 933 678 949 678 l 429 678 l 249 111 l 844 111 q 866 98 860 111 q 864 56 872 85 q 843 15 857 29 q 814 0 829 0 l 161 0 m 406 -322 q 358 -304 378 -322 q 339 -251 339 -286 q 363 -181 339 -214 q 439 -147 388 -147 q 488 -165 468 -147 q 507 -218 507 -183 q 483 -290 507 -257 q 406 -322 458 -322 m 721 1469 q 693 1486 704 1469 q 682 1518 682 1503 q 687 1539 682 1532 q 697 1551 692 1546 l 922 1726 q 962 1751 943 1744 q 1003 1758 981 1758 q 1035 1749 1021 1758 q 1061 1722 1050 1740 l 1190 1542 q 1198 1524 1197 1532 q 1199 1510 1199 1517 q 1181 1481 1199 1493 q 1150 1469 1163 1469 q 1126 1476 1136 1469 q 1106 1493 1117 1483 l 976 1618 l 764 1485 q 744 1474 754 1479 q 721 1469 733 1469 z "},"Ề":{"ha":1022,"x_min":99,"x_max":1332,"o":"m 161 0 q 113 13 126 0 q 107 56 99 25 l 524 1347 q 545 1376 529 1367 q 589 1386 561 1386 l 1257 1386 q 1278 1372 1272 1386 q 1275 1331 1283 1358 q 1254 1289 1268 1303 q 1225 1275 1240 1275 l 622 1275 l 465 789 l 965 789 q 986 775 981 789 q 985 733 992 761 q 963 692 976 706 q 933 678 949 678 l 429 678 l 249 111 l 844 111 q 866 98 860 111 q 864 56 872 85 q 843 15 857 29 q 814 0 829 0 l 161 0 m 721 1469 q 693 1486 704 1469 q 682 1518 682 1503 q 687 1539 682 1532 q 697 1551 692 1546 l 922 1726 q 962 1751 943 1744 q 1003 1758 981 1758 q 1035 1749 1021 1758 q 1061 1722 1050 1740 l 1190 1542 q 1198 1524 1197 1532 q 1199 1510 1199 1517 q 1181 1481 1199 1493 q 1150 1469 1163 1469 q 1126 1476 1136 1469 q 1106 1493 1117 1483 l 976 1618 l 764 1485 q 744 1474 754 1479 q 721 1469 733 1469 m 1276 1663 q 1265 1665 1271 1663 q 1251 1675 1258 1668 l 1079 1865 q 1063 1885 1068 1878 q 1058 1901 1058 1892 q 1072 1933 1058 1917 q 1104 1960 1085 1950 q 1139 1971 1124 1971 q 1155 1967 1147 1971 q 1168 1956 1163 1963 l 1321 1740 q 1330 1724 1328 1729 q 1332 1713 1332 1718 q 1314 1680 1332 1697 q 1276 1663 1296 1663 z "},"Ể":{"ha":1022,"x_min":99,"x_max":1407,"o":"m 161 0 q 113 13 126 0 q 107 56 99 25 l 524 1347 q 545 1376 529 1367 q 589 1386 561 1386 l 1257 1386 q 1278 1372 1272 1386 q 1275 1331 1283 1358 q 1254 1289 1268 1303 q 1225 1275 1240 1275 l 622 1275 l 465 789 l 965 789 q 986 775 981 789 q 985 733 992 761 q 963 692 976 706 q 933 678 949 678 l 429 678 l 249 111 l 844 111 q 866 98 860 111 q 864 56 872 85 q 843 15 857 29 q 814 0 829 0 l 161 0 m 721 1469 q 693 1486 704 1469 q 682 1518 682 1503 q 687 1539 682 1532 q 697 1551 692 1546 l 922 1726 q 962 1751 943 1744 q 1003 1758 981 1758 q 1035 1749 1021 1758 q 1061 1722 1050 1740 l 1190 1542 q 1198 1524 1197 1532 q 1199 1510 1199 1517 q 1181 1481 1199 1493 q 1150 1469 1163 1469 q 1126 1476 1136 1469 q 1106 1493 1117 1483 l 976 1618 l 764 1485 q 744 1474 754 1479 q 721 1469 733 1469 m 1261 1996 q 1368 1966 1329 1996 q 1407 1882 1407 1936 q 1384 1808 1407 1839 q 1324 1760 1361 1776 q 1279 1731 1289 1744 q 1271 1706 1269 1718 l 1272 1692 q 1262 1665 1275 1675 q 1229 1653 1249 1656 q 1194 1658 1210 1651 q 1174 1679 1178 1664 l 1165 1715 q 1172 1774 1157 1749 q 1224 1817 1188 1799 q 1260 1842 1249 1828 q 1271 1871 1271 1857 q 1262 1888 1271 1882 q 1236 1894 1253 1894 q 1194 1888 1217 1894 q 1150 1867 1172 1881 q 1099 1900 1121 1850 q 1118 1954 1086 1929 q 1185 1985 1150 1975 q 1261 1996 1221 1996 z "},"Ễ":{"ha":1022,"x_min":99,"x_max":1297,"o":"m 161 0 q 113 13 126 0 q 107 56 99 25 l 524 1347 q 545 1376 529 1367 q 589 1386 561 1386 l 1257 1386 q 1278 1372 1272 1386 q 1275 1331 1283 1358 q 1254 1289 1268 1303 q 1225 1275 1240 1275 l 622 1275 l 465 789 l 965 789 q 986 775 981 789 q 985 733 992 761 q 963 692 976 706 q 933 678 949 678 l 429 678 l 249 111 l 844 111 q 866 98 860 111 q 864 56 872 85 q 843 15 857 29 q 814 0 829 0 l 161 0 m 721 1469 q 693 1486 704 1469 q 682 1518 682 1503 q 687 1539 682 1532 q 697 1551 692 1546 l 922 1726 q 962 1751 943 1744 q 1003 1758 981 1758 q 1035 1749 1021 1758 q 1061 1722 1050 1740 l 1190 1542 q 1198 1524 1197 1532 q 1199 1510 1199 1517 q 1181 1481 1199 1493 q 1150 1469 1163 1469 q 1126 1476 1136 1469 q 1106 1493 1117 1483 l 976 1618 l 764 1485 q 744 1474 754 1479 q 721 1469 733 1469 m 801 1779 q 760 1817 756 1779 q 811 1952 771 1910 q 924 1994 851 1994 q 1000 1979 969 1994 q 1052 1943 1031 1964 q 1094 1907 1074 1922 q 1143 1892 1114 1892 q 1177 1908 1163 1892 q 1197 1960 1192 1925 q 1256 1996 1206 1996 q 1288 1987 1279 1996 q 1294 1960 1297 1978 q 1244 1824 1285 1867 q 1136 1781 1204 1781 q 1060 1796 1092 1781 q 1005 1831 1029 1811 q 959 1867 981 1851 q 913 1882 938 1882 q 876 1863 892 1882 q 854 1808 861 1844 q 838 1787 851 1794 q 801 1779 825 1779 z "},"Ẹ":{"ha":1022,"x_min":99,"x_max":1283,"o":"m 161 0 q 113 13 126 0 q 107 56 99 25 l 524 1347 q 545 1376 529 1367 q 589 1386 561 1386 l 1257 1386 q 1278 1372 1272 1386 q 1275 1331 1283 1358 q 1254 1289 1268 1303 q 1225 1275 1240 1275 l 622 1275 l 465 789 l 965 789 q 986 775 981 789 q 985 733 992 761 q 963 692 976 706 q 933 678 949 678 l 429 678 l 249 111 l 844 111 q 866 98 860 111 q 864 56 872 85 q 843 15 857 29 q 814 0 829 0 l 161 0 m 406 -322 q 358 -304 378 -322 q 339 -251 339 -286 q 363 -181 339 -214 q 439 -147 388 -147 q 488 -165 468 -147 q 507 -218 507 -183 q 483 -290 507 -257 q 406 -322 458 -322 z "},"Ẻ":{"ha":1022,"x_min":99,"x_max":1283,"o":"m 161 0 q 113 13 126 0 q 107 56 99 25 l 524 1347 q 545 1376 529 1367 q 589 1386 561 1386 l 1257 1386 q 1278 1372 1272 1386 q 1275 1331 1283 1358 q 1254 1289 1268 1303 q 1225 1275 1240 1275 l 622 1275 l 465 789 l 965 789 q 986 775 981 789 q 985 733 992 761 q 963 692 976 706 q 933 678 949 678 l 429 678 l 249 111 l 844 111 q 866 98 860 111 q 864 56 872 85 q 843 15 857 29 q 814 0 829 0 l 161 0 m 978 1800 q 1085 1770 1046 1800 q 1124 1686 1124 1740 q 1101 1612 1124 1643 q 1040 1564 1078 1581 q 996 1535 1006 1549 q 988 1510 986 1522 l 989 1496 q 978 1469 992 1479 q 946 1458 965 1460 q 910 1462 926 1456 q 890 1483 894 1468 l 882 1519 q 889 1578 874 1553 q 940 1621 904 1603 q 976 1647 965 1632 q 988 1675 988 1661 q 978 1692 988 1686 q 953 1699 969 1699 q 911 1692 933 1699 q 867 1671 889 1685 q 815 1704 836 1654 q 835 1758 803 1733 q 902 1790 867 1779 q 978 1800 938 1800 z "},"Ẽ":{"ha":1022,"x_min":99,"x_max":1283,"o":"m 161 0 q 113 13 126 0 q 107 56 99 25 l 524 1347 q 545 1376 529 1367 q 589 1386 561 1386 l 1257 1386 q 1278 1372 1272 1386 q 1275 1331 1283 1358 q 1254 1289 1268 1303 q 1225 1275 1240 1275 l 622 1275 l 465 789 l 965 789 q 986 775 981 789 q 985 733 992 761 q 963 692 976 706 q 933 678 949 678 l 429 678 l 249 111 l 844 111 q 866 98 860 111 q 864 56 872 85 q 843 15 857 29 q 814 0 829 0 l 161 0 m 735 1510 q 693 1549 689 1510 q 744 1683 704 1642 q 857 1725 785 1725 q 933 1710 903 1725 q 984 1674 963 1694 q 1026 1639 1006 1654 q 1076 1624 1047 1624 q 1110 1640 1096 1624 q 1131 1690 1125 1656 q 1189 1728 1139 1728 q 1222 1719 1213 1728 q 1228 1690 1231 1710 q 1178 1556 1218 1599 q 1069 1513 1138 1513 q 993 1528 1025 1513 q 937 1563 961 1543 q 892 1597 913 1582 q 846 1613 871 1613 q 810 1594 825 1613 q 788 1540 794 1576 q 772 1518 785 1526 q 735 1510 758 1510 z "},"Ğ":{"ha":1350,"x_min":210,"x_max":1401,"o":"m 664 -26 q 476 10 560 -25 q 332 113 392 46 q 241 271 272 179 q 210 478 210 363 q 232 681 210 575 q 299 891 254 786 q 412 1089 344 996 q 567 1254 479 1182 q 765 1368 656 1326 q 1006 1410 875 1410 q 1165 1390 1092 1410 q 1295 1334 1238 1371 q 1390 1242 1353 1297 q 1395 1215 1401 1226 q 1369 1188 1389 1203 q 1338 1172 1351 1174 q 1304 1186 1324 1169 q 1224 1244 1269 1221 q 1120 1280 1178 1268 q 989 1292 1063 1292 q 806 1257 892 1292 q 649 1163 721 1222 q 519 1024 576 1103 q 422 857 461 946 q 361 676 382 768 q 340 497 340 585 q 362 326 340 401 q 426 198 383 250 q 533 119 469 146 q 683 92 597 92 q 798 111 742 92 q 908 170 854 131 q 1010 273 961 210 q 1103 424 1060 336 q 1186 625 1147 511 l 831 625 q 806 638 810 625 q 811 681 801 650 q 834 724 822 713 q 867 736 846 736 l 1310 736 q 1335 724 1331 736 q 1331 681 1339 713 q 1199 342 1275 478 q 1034 124 1122 206 q 851 8 946 43 q 664 -26 757 -26 m 1036 1469 q 882 1531 935 1469 q 843 1721 829 1593 q 858 1750 846 1742 q 892 1758 871 1758 q 926 1748 913 1758 q 939 1721 939 1738 q 972 1619 938 1650 q 1058 1589 1006 1589 q 1169 1626 1122 1589 q 1240 1717 1215 1663 q 1264 1750 1251 1742 q 1296 1758 1276 1758 q 1333 1746 1319 1758 q 1339 1713 1346 1733 q 1267 1564 1307 1617 q 1172 1490 1228 1511 q 1036 1469 1115 1469 z "},"Ĝ":{"ha":1350,"x_min":210,"x_max":1401,"o":"m 664 -26 q 476 10 560 -25 q 332 113 392 46 q 241 271 272 179 q 210 478 210 363 q 232 681 210 575 q 299 891 254 786 q 412 1089 344 996 q 567 1254 479 1182 q 765 1368 656 1326 q 1006 1410 875 1410 q 1165 1390 1092 1410 q 1295 1334 1238 1371 q 1390 1242 1353 1297 q 1395 1215 1401 1226 q 1369 1188 1389 1203 q 1338 1172 1351 1174 q 1304 1186 1324 1169 q 1224 1244 1269 1221 q 1120 1280 1178 1268 q 989 1292 1063 1292 q 806 1257 892 1292 q 649 1163 721 1222 q 519 1024 576 1103 q 422 857 461 946 q 361 676 382 768 q 340 497 340 585 q 362 326 340 401 q 426 198 383 250 q 533 119 469 146 q 683 92 597 92 q 798 111 742 92 q 908 170 854 131 q 1010 273 961 210 q 1103 424 1060 336 q 1186 625 1147 511 l 831 625 q 806 638 810 625 q 811 681 801 650 q 834 724 822 713 q 867 736 846 736 l 1310 736 q 1335 724 1331 736 q 1331 681 1339 713 q 1199 342 1275 478 q 1034 124 1122 206 q 851 8 946 43 q 664 -26 757 -26 m 828 1469 q 800 1486 811 1469 q 789 1518 789 1503 q 794 1539 789 1532 q 804 1551 799 1546 l 1029 1726 q 1069 1751 1050 1744 q 1110 1758 1088 1758 q 1142 1749 1128 1758 q 1168 1722 1157 1740 l 1297 1542 q 1305 1524 1304 1532 q 1306 1510 1306 1517 q 1288 1481 1306 1493 q 1257 1469 1269 1469 q 1233 1476 1243 1469 q 1213 1493 1224 1483 l 1083 1618 l 871 1485 q 851 1474 861 1479 q 828 1469 840 1469 z "},"Ģ":{"ha":1350,"x_min":210,"x_max":1401,"o":"m 664 -26 q 476 10 560 -25 q 332 113 392 46 q 241 271 272 179 q 210 478 210 363 q 232 681 210 575 q 299 891 254 786 q 412 1089 344 996 q 567 1254 479 1182 q 765 1368 656 1326 q 1006 1410 875 1410 q 1165 1390 1092 1410 q 1295 1334 1238 1371 q 1390 1242 1353 1297 q 1395 1215 1401 1226 q 1369 1188 1389 1203 q 1338 1172 1351 1174 q 1304 1186 1324 1169 q 1224 1244 1269 1221 q 1120 1280 1178 1268 q 989 1292 1063 1292 q 806 1257 892 1292 q 649 1163 721 1222 q 519 1024 576 1103 q 422 857 461 946 q 361 676 382 768 q 340 497 340 585 q 362 326 340 401 q 426 198 383 250 q 533 119 469 146 q 683 92 597 92 q 798 111 742 92 q 908 170 854 131 q 1010 273 961 210 q 1103 424 1060 336 q 1186 625 1147 511 l 831 625 q 806 638 810 625 q 811 681 801 650 q 834 724 822 713 q 867 736 846 736 l 1310 736 q 1335 724 1331 736 q 1331 681 1339 713 q 1199 342 1275 478 q 1034 124 1122 206 q 851 8 946 43 q 664 -26 757 -26 m 440 -401 q 422 -376 424 -390 q 432 -344 419 -361 q 474 -276 457 -307 q 501 -213 490 -246 q 515 -139 511 -181 q 534 -106 518 -115 q 576 -96 550 -96 q 624 -111 608 -96 q 636 -153 639 -126 q 615 -228 633 -187 q 568 -307 596 -268 q 508 -379 540 -346 q 474 -404 490 -397 q 440 -401 457 -411 z "},"Ġ":{"ha":1350,"x_min":210,"x_max":1401,"o":"m 664 -26 q 476 10 560 -25 q 332 113 392 46 q 241 271 272 179 q 210 478 210 363 q 232 681 210 575 q 299 891 254 786 q 412 1089 344 996 q 567 1254 479 1182 q 765 1368 656 1326 q 1006 1410 875 1410 q 1165 1390 1092 1410 q 1295 1334 1238 1371 q 1390 1242 1353 1297 q 1395 1215 1401 1226 q 1369 1188 1389 1203 q 1338 1172 1351 1174 q 1304 1186 1324 1169 q 1224 1244 1269 1221 q 1120 1280 1178 1268 q 989 1292 1063 1292 q 806 1257 892 1292 q 649 1163 721 1222 q 519 1024 576 1103 q 422 857 461 946 q 361 676 382 768 q 340 497 340 585 q 362 326 340 401 q 426 198 383 250 q 533 119 469 146 q 683 92 597 92 q 798 111 742 92 q 908 170 854 131 q 1010 273 961 210 q 1103 424 1060 336 q 1186 625 1147 511 l 831 625 q 806 638 810 625 q 811 681 801 650 q 834 724 822 713 q 867 736 846 736 l 1310 736 q 1335 724 1331 736 q 1331 681 1339 713 q 1199 342 1275 478 q 1034 124 1122 206 q 851 8 946 43 q 664 -26 757 -26 m 1047 1517 q 999 1535 1018 1517 q 979 1589 979 1553 q 1004 1659 979 1626 q 1081 1692 1029 1692 q 1128 1674 1108 1692 q 1147 1621 1147 1657 q 1124 1550 1147 1583 q 1047 1517 1100 1517 z "},"Ħ":{"ha":1368,"x_min":81,"x_max":1550,"o":"m 142 -19 q 93 19 81 -19 l 532 1372 q 557 1401 539 1392 q 604 1410 575 1410 q 653 1372 668 1410 l 463 782 l 1189 782 l 1379 1372 q 1404 1401 1386 1392 q 1453 1410 1422 1410 q 1501 1372 1515 1410 l 1063 19 q 1039 -10 1057 0 q 990 -19 1021 -19 q 942 19 929 -19 l 1153 671 l 426 671 l 215 19 q 191 -10 210 0 q 142 -19 172 -19 m 319 1019 q 292 1035 294 1019 q 293 1068 289 1050 q 307 1104 297 1088 q 343 1121 317 1121 l 1518 1121 q 1547 1104 1544 1121 q 1546 1068 1550 1088 q 1533 1035 1543 1050 q 1497 1019 1522 1019 l 319 1019 z "},"Ĥ":{"ha":1368,"x_min":81,"x_max":1515,"o":"m 142 -19 q 93 19 81 -19 l 532 1372 q 557 1401 539 1392 q 604 1410 575 1410 q 653 1372 668 1410 l 463 782 l 1189 782 l 1379 1372 q 1404 1401 1386 1392 q 1453 1410 1422 1410 q 1501 1372 1515 1410 l 1063 19 q 1039 -10 1057 0 q 990 -19 1021 -19 q 942 19 929 -19 l 1153 671 l 426 671 l 215 19 q 191 -10 210 0 q 142 -19 172 -19 m 831 1469 q 803 1486 814 1469 q 792 1518 792 1503 q 797 1539 792 1532 q 807 1551 801 1546 l 1032 1726 q 1072 1751 1053 1744 q 1113 1758 1090 1758 q 1145 1749 1131 1758 q 1171 1722 1160 1740 l 1300 1542 q 1308 1524 1307 1532 q 1308 1510 1308 1517 q 1290 1481 1308 1493 q 1260 1469 1272 1469 q 1236 1476 1246 1469 q 1215 1493 1226 1483 l 1086 1618 l 874 1485 q 853 1474 864 1479 q 831 1469 843 1469 z "},"Í":{"ha":521,"x_min":88,"x_max":839,"o":"m 149 -19 q 102 -10 117 -19 q 93 22 88 0 l 528 1372 q 552 1401 535 1392 q 600 1410 569 1410 q 646 1400 632 1410 q 653 1368 660 1390 l 218 19 q 196 -10 213 0 q 149 -19 179 -19 m 558 1469 q 524 1488 543 1469 q 506 1521 506 1507 q 508 1532 506 1526 q 518 1546 510 1538 l 738 1747 q 751 1758 744 1754 q 765 1763 757 1763 q 797 1750 779 1763 q 826 1721 814 1738 q 839 1689 839 1704 q 836 1672 839 1679 q 818 1654 833 1665 l 585 1483 q 570 1474 576 1478 q 558 1469 564 1469 z "},"Ĭ":{"ha":521,"x_min":88,"x_max":940,"o":"m 149 -19 q 102 -10 117 -19 q 93 22 88 0 l 528 1372 q 552 1401 535 1392 q 600 1410 569 1410 q 646 1400 632 1410 q 653 1368 660 1390 l 218 19 q 196 -10 213 0 q 149 -19 179 -19 m 631 1469 q 476 1531 529 1469 q 438 1721 424 1593 q 453 1750 440 1742 q 486 1758 465 1758 q 520 1748 507 1758 q 533 1721 533 1738 q 566 1619 532 1650 q 653 1589 600 1589 q 763 1626 717 1589 q 835 1717 810 1663 q 858 1750 846 1742 q 890 1758 871 1758 q 927 1746 914 1758 q 933 1713 940 1733 q 862 1564 901 1617 q 766 1490 822 1511 q 631 1469 710 1469 z "},"Ǐ":{"ha":521,"x_min":88,"x_max":936,"o":"m 149 -19 q 102 -10 117 -19 q 93 22 88 0 l 528 1372 q 552 1401 535 1392 q 600 1410 569 1410 q 646 1400 632 1410 q 653 1368 660 1390 l 218 19 q 196 -10 213 0 q 149 -19 179 -19 m 893 1758 q 923 1742 910 1758 q 936 1710 936 1725 q 932 1689 936 1696 q 921 1676 928 1682 l 694 1501 q 656 1477 674 1485 q 615 1469 638 1469 q 583 1479 597 1469 q 556 1507 568 1489 l 428 1688 q 419 1706 421 1699 q 418 1718 418 1713 q 438 1747 418 1735 q 472 1758 458 1758 q 493 1752 486 1758 q 510 1736 500 1746 l 640 1611 l 853 1738 q 872 1751 863 1743 q 893 1758 882 1758 z "},"Î":{"ha":521,"x_min":88,"x_max":900,"o":"m 149 -19 q 102 -10 117 -19 q 93 22 88 0 l 528 1372 q 552 1401 535 1392 q 600 1410 569 1410 q 646 1400 632 1410 q 653 1368 660 1390 l 218 19 q 196 -10 213 0 q 149 -19 179 -19 m 422 1469 q 394 1486 406 1469 q 383 1518 383 1503 q 388 1539 383 1532 q 399 1551 393 1546 l 624 1726 q 663 1751 644 1744 q 704 1758 682 1758 q 737 1749 722 1758 q 763 1722 751 1740 l 892 1542 q 899 1524 899 1532 q 900 1510 900 1517 q 882 1481 900 1493 q 851 1469 864 1469 q 828 1476 838 1469 q 807 1493 818 1483 l 678 1618 l 465 1485 q 445 1474 456 1479 q 422 1469 435 1469 z "},"Ï":{"ha":521,"x_min":88,"x_max":911,"o":"m 149 -19 q 102 -10 117 -19 q 93 22 88 0 l 528 1372 q 552 1401 535 1392 q 600 1410 569 1410 q 646 1400 632 1410 q 653 1368 660 1390 l 218 19 q 196 -10 213 0 q 149 -19 179 -19 m 468 1517 q 419 1535 439 1517 q 400 1589 400 1553 q 426 1659 400 1626 q 501 1692 451 1692 q 549 1674 529 1692 q 568 1621 568 1657 q 544 1550 568 1583 q 468 1517 521 1517 m 810 1517 q 762 1535 782 1517 q 742 1589 742 1553 q 767 1659 742 1626 q 843 1692 793 1692 q 891 1674 871 1692 q 911 1621 911 1657 q 887 1550 911 1583 q 810 1517 863 1517 z "},"İ":{"ha":521,"x_min":88,"x_max":740,"o":"m 149 -19 q 102 -10 117 -19 q 93 22 88 0 l 528 1372 q 552 1401 535 1392 q 600 1410 569 1410 q 646 1400 632 1410 q 653 1368 660 1390 l 218 19 q 196 -10 213 0 q 149 -19 179 -19 m 642 1517 q 593 1535 613 1517 q 574 1589 574 1553 q 599 1659 574 1626 q 675 1692 624 1692 q 722 1674 703 1692 q 742 1621 742 1657 q 718 1550 742 1583 q 642 1517 694 1517 z "},"Ì":{"ha":521,"x_min":88,"x_max":753,"o":"m 149 -19 q 102 -10 117 -19 q 93 22 88 0 l 528 1372 q 552 1401 535 1392 q 600 1410 569 1410 q 646 1400 632 1410 q 653 1368 660 1390 l 218 19 q 196 -10 213 0 q 149 -19 179 -19 m 700 1469 q 688 1474 694 1469 q 674 1483 681 1478 l 475 1656 q 458 1674 461 1667 q 454 1690 454 1681 q 467 1722 454 1706 q 499 1751 481 1739 q 529 1763 517 1763 q 545 1758 539 1763 q 558 1747 551 1754 l 742 1544 q 751 1530 750 1535 q 753 1521 753 1525 q 734 1488 753 1507 q 700 1469 715 1469 z "},"Ī":{"ha":521,"x_min":88,"x_max":897,"o":"m 149 -19 q 102 -10 117 -19 q 93 22 88 0 l 528 1372 q 552 1401 535 1392 q 600 1410 569 1410 q 646 1400 632 1410 q 653 1368 660 1390 l 218 19 q 196 -10 213 0 q 149 -19 179 -19 m 461 1556 q 428 1572 435 1556 q 429 1613 422 1588 q 449 1658 436 1643 q 486 1674 461 1674 l 858 1674 q 892 1656 886 1674 q 892 1613 899 1639 q 872 1569 885 1583 q 835 1556 860 1556 l 461 1556 z "},"Į":{"ha":521,"x_min":-143,"x_max":660,"o":"m 149 -19 q 102 -10 117 -19 q 93 22 88 0 l 528 1372 q 552 1401 535 1392 q 600 1410 569 1410 q 646 1400 632 1410 q 653 1368 660 1390 l 218 19 q 196 -10 213 0 q 149 -19 179 -19 m -40 -365 q -117 -340 -90 -365 q -143 -275 -143 -315 q -120 -194 -143 -233 q -60 -121 -97 -156 q 22 -53 -22 -86 q 108 11 65 -19 l 203 14 l 203 6 q 123 -56 163 -25 q 51 -116 83 -86 q 0 -173 19 -146 q -19 -224 -19 -200 q -10 -249 -19 -239 q 18 -258 0 -258 q 69 -243 44 -258 q 121 -203 94 -228 q 146 -190 132 -192 q 174 -201 160 -187 q 188 -224 182 -211 q 183 -253 193 -237 q 128 -307 165 -281 q 46 -349 90 -333 q -40 -365 1 -365 z "},"Ĩ":{"ha":521,"x_min":88,"x_max":931,"o":"m 149 -19 q 102 -10 117 -19 q 93 22 88 0 l 528 1372 q 552 1401 535 1392 q 600 1410 569 1410 q 646 1400 632 1410 q 653 1368 660 1390 l 218 19 q 196 -10 213 0 q 149 -19 179 -19 m 435 1510 q 393 1549 389 1510 q 444 1683 404 1642 q 557 1725 485 1725 q 633 1710 603 1725 q 684 1674 663 1694 q 726 1639 706 1654 q 776 1624 747 1624 q 810 1640 796 1624 q 831 1690 825 1656 q 889 1728 839 1728 q 922 1719 913 1728 q 928 1690 931 1710 q 878 1556 918 1599 q 769 1513 838 1513 q 693 1528 725 1513 q 637 1563 661 1543 q 592 1597 613 1582 q 546 1613 571 1613 q 510 1594 525 1613 q 488 1540 494 1576 q 472 1518 485 1526 q 435 1510 458 1510 z "},"Ị":{"ha":521,"x_min":-12,"x_max":660,"o":"m 149 -19 q 102 -10 117 -19 q 93 22 88 0 l 528 1372 q 552 1401 535 1392 q 600 1410 569 1410 q 646 1400 632 1410 q 653 1368 660 1390 l 218 19 q 196 -10 213 0 q 149 -19 179 -19 m 54 -322 q 7 -304 26 -322 q -12 -251 -12 -286 q 12 -181 -12 -214 q 88 -147 36 -147 q 136 -165 117 -147 q 156 -218 156 -183 q 131 -290 156 -257 q 54 -322 107 -322 z "},"Ỉ":{"ha":521,"x_min":88,"x_max":824,"o":"m 149 -19 q 102 -10 117 -19 q 93 22 88 0 l 528 1372 q 552 1401 535 1392 q 600 1410 569 1410 q 646 1400 632 1410 q 653 1368 660 1390 l 218 19 q 196 -10 213 0 q 149 -19 179 -19 m 678 1800 q 785 1770 746 1800 q 824 1686 824 1740 q 801 1612 824 1643 q 740 1564 778 1581 q 696 1535 706 1549 q 688 1510 686 1522 l 689 1496 q 678 1469 692 1479 q 646 1458 665 1460 q 610 1462 626 1456 q 590 1483 594 1468 l 582 1519 q 589 1578 574 1553 q 640 1621 604 1603 q 676 1647 665 1632 q 688 1675 688 1661 q 678 1692 688 1686 q 653 1699 669 1699 q 611 1692 633 1699 q 567 1671 589 1685 q 515 1704 536 1654 q 535 1758 503 1733 q 602 1790 567 1779 q 678 1800 638 1800 z "},"Ĵ":{"ha":1001,"x_min":33,"x_max":1408,"o":"m 358 -26 q 210 6 282 -26 q 90 99 138 38 q 36 249 42 161 q 42 286 33 274 q 88 304 50 299 q 128 300 111 307 q 149 265 146 293 q 179 172 153 211 q 253 112 206 132 q 360 92 300 92 q 451 101 407 92 q 535 134 494 111 q 613 196 576 157 q 680 292 649 235 q 736 428 711 349 l 1042 1372 q 1067 1401 1049 1392 q 1114 1410 1085 1410 q 1157 1401 1144 1410 q 1163 1372 1169 1392 l 854 422 q 782 249 822 324 q 694 121 742 174 q 592 36 646 68 q 479 -11 538 4 q 358 -26 421 -26 m 931 1469 q 903 1486 914 1469 q 892 1518 892 1503 q 897 1539 892 1532 q 907 1551 901 1546 l 1132 1726 q 1172 1751 1153 1744 q 1213 1758 1190 1758 q 1245 1749 1231 1758 q 1271 1722 1260 1740 l 1400 1542 q 1408 1524 1407 1532 q 1408 1510 1408 1517 q 1390 1481 1408 1493 q 1360 1469 1372 1469 q 1336 1476 1346 1469 q 1315 1493 1326 1483 l 1186 1618 l 974 1485 q 953 1474 964 1479 q 931 1469 943 1469 z "},"Ķ":{"ha":1067,"x_min":86,"x_max":1314,"o":"m 140 -22 q 98 -12 110 -22 q 92 18 86 -3 l 532 1371 q 606 1410 544 1410 q 654 1371 668 1410 l 468 800 l 1217 1388 q 1260 1406 1243 1408 q 1296 1378 1278 1403 q 1312 1338 1314 1353 q 1281 1301 1310 1322 l 531 719 q 657 477 593 589 q 790 265 721 365 q 940 64 860 165 q 954 22 960 39 q 919 -17 949 6 q 879 -26 899 -31 q 847 -6 860 -21 q 726 159 785 75 q 616 330 668 243 q 518 507 564 417 q 432 689 472 597 l 214 18 q 190 -12 208 -3 q 140 -22 171 -22 m 319 -401 q 301 -376 303 -390 q 311 -344 299 -361 q 353 -276 336 -307 q 380 -213 369 -246 q 394 -139 390 -181 q 413 -106 397 -115 q 456 -96 429 -96 q 503 -111 488 -96 q 515 -153 518 -126 q 494 -228 513 -187 q 447 -307 475 -268 q 388 -379 419 -346 q 353 -404 369 -397 q 319 -401 336 -411 z "},"Ĺ":{"ha":964,"x_min":89,"x_max":849,"o":"m 151 0 q 107 56 89 0 l 532 1372 q 553 1401 539 1392 q 597 1410 567 1410 q 644 1400 629 1410 q 651 1368 660 1390 l 246 111 l 817 111 q 838 98 832 111 q 835 56 843 85 q 814 15 828 29 q 785 0 800 0 l 151 0 m 568 1469 q 534 1488 553 1469 q 515 1521 515 1507 q 517 1532 515 1526 q 528 1546 519 1538 l 747 1747 q 760 1758 754 1754 q 775 1763 767 1763 q 806 1750 789 1763 q 836 1721 824 1738 q 849 1689 849 1704 q 846 1672 849 1679 q 828 1654 843 1665 l 594 1483 q 580 1474 586 1478 q 568 1469 574 1469 z "},"Ľ":{"ha":964,"x_min":89,"x_max":929,"o":"m 151 0 q 107 56 89 0 l 532 1372 q 553 1401 539 1392 q 597 1410 567 1410 q 644 1400 629 1410 q 651 1368 660 1390 l 246 111 l 817 111 q 838 98 832 111 q 835 56 843 85 q 814 15 828 29 q 785 0 800 0 l 151 0 m 736 1072 q 710 1096 715 1082 q 719 1135 706 1110 q 750 1199 733 1160 q 781 1283 767 1239 q 801 1367 794 1328 q 817 1401 804 1390 q 864 1413 829 1413 q 913 1401 897 1413 q 926 1367 929 1390 q 899 1274 919 1325 q 853 1174 879 1224 q 799 1086 826 1125 q 776 1069 792 1076 q 736 1072 760 1061 z "},"Ļ":{"ha":964,"x_min":89,"x_max":843,"o":"m 151 0 q 107 56 89 0 l 532 1372 q 553 1401 539 1392 q 597 1410 567 1410 q 644 1400 629 1410 q 651 1368 660 1390 l 246 111 l 817 111 q 838 98 832 111 q 835 56 843 85 q 814 15 828 29 q 785 0 800 0 l 151 0 m 303 -401 q 284 -376 286 -390 q 294 -344 282 -361 q 336 -276 319 -307 q 363 -213 353 -246 q 378 -139 374 -181 q 397 -106 381 -115 q 439 -96 413 -96 q 486 -111 471 -96 q 499 -153 501 -126 q 477 -228 496 -187 q 431 -307 458 -268 q 371 -379 403 -346 q 336 -404 353 -397 q 303 -401 319 -411 z "},"Ŀ":{"ha":964,"x_min":89,"x_max":924,"o":"m 151 0 q 107 56 89 0 l 532 1372 q 553 1401 539 1392 q 597 1410 567 1410 q 644 1400 629 1410 q 651 1368 660 1390 l 246 111 l 817 111 q 838 98 832 111 q 835 56 843 85 q 814 15 828 29 q 785 0 800 0 l 151 0 m 824 629 q 776 647 796 629 q 756 700 756 665 q 781 772 756 739 q 857 804 806 804 q 905 787 885 804 q 925 733 925 769 q 901 663 925 696 q 824 629 876 629 z "},"Ł":{"ha":964,"x_min":89,"x_max":843,"o":"m 151 0 q 107 56 89 0 l 532 1372 q 553 1401 539 1392 q 597 1410 567 1410 q 644 1400 629 1410 q 651 1368 660 1390 l 246 111 l 817 111 q 838 98 832 111 q 835 56 843 85 q 814 15 828 29 q 785 0 800 0 l 151 0 m 197 589 q 163 590 176 582 q 138 621 149 597 q 135 658 132 639 q 157 683 138 676 l 689 878 q 720 880 708 885 q 742 854 732 875 q 732 789 767 804 l 197 589 z "},"Ń":{"ha":1369,"x_min":81,"x_max":1517,"o":"m 142 -19 q 93 19 81 -19 l 532 1372 q 557 1401 539 1392 q 604 1410 575 1410 q 642 1401 629 1410 q 663 1372 656 1392 l 1007 221 l 1381 1372 q 1406 1401 1388 1392 q 1453 1410 1424 1410 q 1501 1372 1517 1410 l 1064 19 q 1040 -10 1058 0 q 993 -19 1021 -19 q 960 -12 971 -19 q 942 19 949 -6 l 593 1185 l 214 19 q 190 -10 208 0 q 142 -19 172 -19 m 994 1469 q 960 1488 979 1469 q 942 1521 942 1507 q 944 1532 942 1526 q 954 1546 946 1538 l 1174 1747 q 1187 1758 1181 1754 q 1201 1763 1193 1763 q 1233 1750 1215 1763 q 1263 1721 1250 1738 q 1275 1689 1275 1704 q 1272 1672 1275 1679 q 1254 1654 1269 1665 l 1021 1483 q 1006 1474 1013 1478 q 994 1469 1000 1469 z "},"Ň":{"ha":1369,"x_min":81,"x_max":1517,"o":"m 142 -19 q 93 19 81 -19 l 532 1372 q 557 1401 539 1392 q 604 1410 575 1410 q 642 1401 629 1410 q 663 1372 656 1392 l 1007 221 l 1381 1372 q 1406 1401 1388 1392 q 1453 1410 1424 1410 q 1501 1372 1517 1410 l 1064 19 q 1040 -10 1058 0 q 993 -19 1021 -19 q 960 -12 971 -19 q 942 19 949 -6 l 593 1185 l 214 19 q 190 -10 208 0 q 142 -19 172 -19 m 1328 1758 q 1358 1742 1344 1758 q 1371 1710 1371 1725 q 1367 1689 1371 1696 q 1356 1676 1363 1682 l 1129 1501 q 1090 1477 1108 1485 q 1050 1469 1072 1469 q 1017 1479 1032 1469 q 990 1507 1003 1489 l 863 1688 q 854 1706 856 1699 q 853 1718 853 1713 q 873 1747 853 1735 q 907 1758 893 1758 q 928 1752 921 1758 q 944 1736 935 1746 l 1075 1611 l 1288 1738 q 1307 1751 1297 1743 q 1328 1758 1317 1758 z "},"Ņ":{"ha":1369,"x_min":81,"x_max":1517,"o":"m 142 -19 q 93 19 81 -19 l 532 1372 q 557 1401 539 1392 q 604 1410 575 1410 q 642 1401 629 1410 q 663 1372 656 1392 l 1007 221 l 1381 1372 q 1406 1401 1388 1392 q 1453 1410 1424 1410 q 1501 1372 1517 1410 l 1064 19 q 1040 -10 1058 0 q 993 -19 1021 -19 q 960 -12 971 -19 q 942 19 949 -6 l 593 1185 l 214 19 q 190 -10 208 0 q 142 -19 172 -19 m 408 -401 q 390 -376 392 -390 q 400 -344 388 -361 q 442 -276 425 -307 q 469 -213 458 -246 q 483 -139 479 -181 q 502 -106 486 -115 q 544 -96 518 -96 q 592 -111 576 -96 q 604 -153 607 -126 q 583 -228 601 -187 q 536 -307 564 -268 q 476 -379 508 -346 q 442 -404 458 -397 q 408 -401 425 -411 z "},"Ñ":{"ha":1369,"x_min":81,"x_max":1517,"o":"m 142 -19 q 93 19 81 -19 l 532 1372 q 557 1401 539 1392 q 604 1410 575 1410 q 642 1401 629 1410 q 663 1372 656 1392 l 1007 221 l 1381 1372 q 1406 1401 1388 1392 q 1453 1410 1424 1410 q 1501 1372 1517 1410 l 1064 19 q 1040 -10 1058 0 q 993 -19 1021 -19 q 960 -12 971 -19 q 942 19 949 -6 l 593 1185 l 214 19 q 190 -10 208 0 q 142 -19 172 -19 m 871 1510 q 829 1549 825 1510 q 881 1683 840 1642 q 993 1725 921 1725 q 1069 1710 1039 1725 q 1120 1674 1099 1694 q 1163 1639 1142 1654 q 1213 1624 1183 1624 q 1247 1640 1232 1624 q 1267 1690 1261 1656 q 1325 1728 1275 1728 q 1358 1719 1349 1728 q 1364 1690 1367 1710 q 1314 1556 1354 1599 q 1206 1513 1274 1513 q 1129 1528 1161 1513 q 1073 1563 1097 1543 q 1028 1597 1049 1582 q 982 1613 1007 1613 q 946 1594 961 1613 q 924 1540 931 1576 q 908 1518 921 1526 q 871 1510 894 1510 z "},"Ó":{"ha":1426,"x_min":214,"x_max":1435,"o":"m 674 -26 q 485 9 569 -26 q 340 112 400 44 q 247 274 279 179 q 214 488 214 369 q 237 695 214 589 q 304 905 260 801 q 413 1099 349 1008 q 563 1260 478 1190 q 753 1370 649 1331 q 979 1410 857 1410 q 1167 1374 1083 1410 q 1310 1272 1251 1339 q 1402 1111 1369 1206 q 1435 900 1435 1017 q 1411 681 1435 792 q 1342 467 1388 571 q 1231 274 1296 364 q 1081 117 1165 185 q 894 12 996 50 q 674 -26 792 -26 m 694 92 q 871 125 789 92 q 1022 217 953 158 q 1143 354 1090 276 q 1232 521 1196 432 q 1287 701 1268 610 q 1306 882 1306 793 q 1283 1058 1306 982 q 1217 1187 1261 1135 q 1108 1265 1172 1239 q 958 1292 1043 1292 q 783 1258 865 1292 q 632 1165 700 1225 q 510 1028 564 1106 q 419 862 457 950 q 363 683 382 774 q 344 504 344 592 q 367 328 344 406 q 433 199 389 251 q 542 119 476 147 q 694 92 607 92 m 985 1469 q 951 1488 969 1469 q 932 1521 932 1507 q 934 1532 932 1526 q 944 1546 936 1538 l 1164 1747 q 1177 1758 1171 1754 q 1192 1763 1183 1763 q 1223 1750 1206 1763 q 1253 1721 1240 1738 q 1265 1689 1265 1704 q 1263 1672 1265 1679 q 1244 1654 1260 1665 l 1011 1483 q 997 1474 1003 1478 q 985 1469 990 1469 z "},"Ŏ":{"ha":1426,"x_min":214,"x_max":1435,"o":"m 674 -26 q 485 9 569 -26 q 340 112 400 44 q 247 274 279 179 q 214 488 214 369 q 237 695 214 589 q 304 905 260 801 q 413 1099 349 1008 q 563 1260 478 1190 q 753 1370 649 1331 q 979 1410 857 1410 q 1167 1374 1083 1410 q 1310 1272 1251 1339 q 1402 1111 1369 1206 q 1435 900 1435 1017 q 1411 681 1435 792 q 1342 467 1388 571 q 1231 274 1296 364 q 1081 117 1165 185 q 894 12 996 50 q 674 -26 792 -26 m 694 92 q 871 125 789 92 q 1022 217 953 158 q 1143 354 1090 276 q 1232 521 1196 432 q 1287 701 1268 610 q 1306 882 1306 793 q 1283 1058 1306 982 q 1217 1187 1261 1135 q 1108 1265 1172 1239 q 958 1292 1043 1292 q 783 1258 865 1292 q 632 1165 700 1225 q 510 1028 564 1106 q 419 862 457 950 q 363 683 382 774 q 344 504 344 592 q 367 328 344 406 q 433 199 389 251 q 542 119 476 147 q 694 92 607 92 m 1057 1469 q 903 1531 956 1469 q 864 1721 850 1593 q 879 1750 867 1742 q 913 1758 892 1758 q 947 1748 933 1758 q 960 1721 960 1738 q 992 1619 958 1650 q 1079 1589 1026 1589 q 1190 1626 1143 1589 q 1261 1717 1236 1663 q 1285 1750 1272 1742 q 1317 1758 1297 1758 q 1353 1746 1340 1758 q 1360 1713 1367 1733 q 1288 1564 1328 1617 q 1192 1490 1249 1511 q 1057 1469 1136 1469 z "},"Ǒ":{"ha":1426,"x_min":214,"x_max":1435,"o":"m 674 -26 q 485 9 569 -26 q 340 112 400 44 q 247 274 279 179 q 214 488 214 369 q 237 695 214 589 q 304 905 260 801 q 413 1099 349 1008 q 563 1260 478 1190 q 753 1370 649 1331 q 979 1410 857 1410 q 1167 1374 1083 1410 q 1310 1272 1251 1339 q 1402 1111 1369 1206 q 1435 900 1435 1017 q 1411 681 1435 792 q 1342 467 1388 571 q 1231 274 1296 364 q 1081 117 1165 185 q 894 12 996 50 q 674 -26 792 -26 m 694 92 q 871 125 789 92 q 1022 217 953 158 q 1143 354 1090 276 q 1232 521 1196 432 q 1287 701 1268 610 q 1306 882 1306 793 q 1283 1058 1306 982 q 1217 1187 1261 1135 q 1108 1265 1172 1239 q 958 1292 1043 1292 q 783 1258 865 1292 q 632 1165 700 1225 q 510 1028 564 1106 q 419 862 457 950 q 363 683 382 774 q 344 504 344 592 q 367 328 344 406 q 433 199 389 251 q 542 119 476 147 q 694 92 607 92 m 1319 1758 q 1349 1742 1336 1758 q 1363 1710 1363 1725 q 1358 1689 1363 1696 q 1347 1676 1354 1682 l 1121 1501 q 1082 1477 1100 1485 q 1042 1469 1064 1469 q 1009 1479 1024 1469 q 982 1507 994 1489 l 854 1688 q 846 1706 847 1699 q 844 1718 844 1713 q 865 1747 844 1735 q 899 1758 885 1758 q 919 1752 913 1758 q 936 1736 926 1746 l 1067 1611 l 1279 1738 q 1299 1751 1289 1743 q 1319 1758 1308 1758 z "},"Ô":{"ha":1426,"x_min":214,"x_max":1435,"o":"m 674 -26 q 485 9 569 -26 q 340 112 400 44 q 247 274 279 179 q 214 488 214 369 q 237 695 214 589 q 304 905 260 801 q 413 1099 349 1008 q 563 1260 478 1190 q 753 1370 649 1331 q 979 1410 857 1410 q 1167 1374 1083 1410 q 1310 1272 1251 1339 q 1402 1111 1369 1206 q 1435 900 1435 1017 q 1411 681 1435 792 q 1342 467 1388 571 q 1231 274 1296 364 q 1081 117 1165 185 q 894 12 996 50 q 674 -26 792 -26 m 694 92 q 871 125 789 92 q 1022 217 953 158 q 1143 354 1090 276 q 1232 521 1196 432 q 1287 701 1268 610 q 1306 882 1306 793 q 1283 1058 1306 982 q 1217 1187 1261 1135 q 1108 1265 1172 1239 q 958 1292 1043 1292 q 783 1258 865 1292 q 632 1165 700 1225 q 510 1028 564 1106 q 419 862 457 950 q 363 683 382 774 q 344 504 344 592 q 367 328 344 406 q 433 199 389 251 q 542 119 476 147 q 694 92 607 92 m 849 1469 q 821 1486 832 1469 q 810 1518 810 1503 q 815 1539 810 1532 q 825 1551 819 1546 l 1050 1726 q 1090 1751 1071 1744 q 1131 1758 1108 1758 q 1163 1749 1149 1758 q 1189 1722 1178 1740 l 1318 1542 q 1326 1524 1325 1532 q 1326 1510 1326 1517 q 1308 1481 1326 1493 q 1278 1469 1290 1469 q 1254 1476 1264 1469 q 1233 1493 1244 1483 l 1104 1618 l 892 1485 q 872 1474 882 1479 q 849 1469 861 1469 z "},"Ö":{"ha":1426,"x_min":214,"x_max":1435,"o":"m 674 -26 q 485 9 569 -26 q 340 112 400 44 q 247 274 279 179 q 214 488 214 369 q 237 695 214 589 q 304 905 260 801 q 413 1099 349 1008 q 563 1260 478 1190 q 753 1370 649 1331 q 979 1410 857 1410 q 1167 1374 1083 1410 q 1310 1272 1251 1339 q 1402 1111 1369 1206 q 1435 900 1435 1017 q 1411 681 1435 792 q 1342 467 1388 571 q 1231 274 1296 364 q 1081 117 1165 185 q 894 12 996 50 q 674 -26 792 -26 m 694 92 q 871 125 789 92 q 1022 217 953 158 q 1143 354 1090 276 q 1232 521 1196 432 q 1287 701 1268 610 q 1306 882 1306 793 q 1283 1058 1306 982 q 1217 1187 1261 1135 q 1108 1265 1172 1239 q 958 1292 1043 1292 q 783 1258 865 1292 q 632 1165 700 1225 q 510 1028 564 1106 q 419 862 457 950 q 363 683 382 774 q 344 504 344 592 q 367 328 344 406 q 433 199 389 251 q 542 119 476 147 q 694 92 607 92 m 896 1517 q 847 1535 867 1517 q 828 1589 828 1553 q 853 1659 828 1626 q 929 1692 879 1692 q 976 1674 957 1692 q 996 1621 996 1657 q 972 1550 996 1583 q 896 1517 949 1517 m 1238 1517 q 1190 1535 1210 1517 q 1169 1589 1169 1553 q 1195 1659 1169 1626 q 1271 1692 1221 1692 q 1319 1674 1299 1692 q 1339 1621 1339 1657 q 1315 1550 1339 1583 q 1238 1517 1290 1517 z "},"Ò":{"ha":1426,"x_min":214,"x_max":1435,"o":"m 674 -26 q 485 9 569 -26 q 340 112 400 44 q 247 274 279 179 q 214 488 214 369 q 237 695 214 589 q 304 905 260 801 q 413 1099 349 1008 q 563 1260 478 1190 q 753 1370 649 1331 q 979 1410 857 1410 q 1167 1374 1083 1410 q 1310 1272 1251 1339 q 1402 1111 1369 1206 q 1435 900 1435 1017 q 1411 681 1435 792 q 1342 467 1388 571 q 1231 274 1296 364 q 1081 117 1165 185 q 894 12 996 50 q 674 -26 792 -26 m 694 92 q 871 125 789 92 q 1022 217 953 158 q 1143 354 1090 276 q 1232 521 1196 432 q 1287 701 1268 610 q 1306 882 1306 793 q 1283 1058 1306 982 q 1217 1187 1261 1135 q 1108 1265 1172 1239 q 958 1292 1043 1292 q 783 1258 865 1292 q 632 1165 700 1225 q 510 1028 564 1106 q 419 862 457 950 q 363 683 382 774 q 344 504 344 592 q 367 328 344 406 q 433 199 389 251 q 542 119 476 147 q 694 92 607 92 m 1126 1469 q 1114 1474 1121 1469 q 1100 1483 1107 1478 l 901 1656 q 884 1674 888 1667 q 881 1690 881 1681 q 894 1722 881 1706 q 925 1751 907 1739 q 956 1763 943 1763 q 972 1758 965 1763 q 985 1747 978 1754 l 1168 1544 q 1178 1530 1176 1535 q 1179 1521 1179 1525 q 1160 1488 1179 1507 q 1126 1469 1142 1469 z "},"Ő":{"ha":1426,"x_min":214,"x_max":1435,"o":"m 674 -26 q 485 9 569 -26 q 340 112 400 44 q 247 274 279 179 q 214 488 214 369 q 237 695 214 589 q 304 905 260 801 q 413 1099 349 1008 q 563 1260 478 1190 q 753 1370 649 1331 q 979 1410 857 1410 q 1167 1374 1083 1410 q 1310 1272 1251 1339 q 1402 1111 1369 1206 q 1435 900 1435 1017 q 1411 681 1435 792 q 1342 467 1388 571 q 1231 274 1296 364 q 1081 117 1165 185 q 894 12 996 50 q 674 -26 792 -26 m 694 92 q 871 125 789 92 q 1022 217 953 158 q 1143 354 1090 276 q 1232 521 1196 432 q 1287 701 1268 610 q 1306 882 1306 793 q 1283 1058 1306 982 q 1217 1187 1261 1135 q 1108 1265 1172 1239 q 958 1292 1043 1292 q 783 1258 865 1292 q 632 1165 700 1225 q 510 1028 564 1106 q 419 862 457 950 q 363 683 382 774 q 344 504 344 592 q 367 328 344 406 q 433 199 389 251 q 542 119 476 147 q 694 92 607 92 m 904 1469 q 871 1488 889 1469 q 853 1521 853 1507 q 854 1532 853 1526 q 865 1546 856 1538 l 1061 1747 q 1074 1758 1068 1754 q 1088 1763 1079 1763 q 1119 1750 1101 1763 q 1150 1721 1138 1738 q 1163 1690 1163 1704 q 1160 1672 1163 1679 q 1142 1654 1157 1665 l 932 1483 q 917 1474 924 1478 q 904 1469 910 1469 m 1176 1469 q 1142 1488 1161 1469 q 1124 1521 1124 1507 q 1125 1532 1124 1526 q 1136 1546 1126 1538 l 1331 1747 q 1345 1758 1339 1754 q 1360 1763 1351 1763 q 1391 1750 1374 1763 q 1422 1721 1408 1738 q 1435 1690 1435 1704 q 1432 1672 1435 1679 q 1414 1654 1429 1665 l 1201 1483 q 1188 1474 1194 1478 q 1176 1469 1182 1469 z "},"Ō":{"ha":1426,"x_min":214,"x_max":1435,"o":"m 674 -26 q 485 9 569 -26 q 340 112 400 44 q 247 274 279 179 q 214 488 214 369 q 237 695 214 589 q 304 905 260 801 q 413 1099 349 1008 q 563 1260 478 1190 q 753 1370 649 1331 q 979 1410 857 1410 q 1167 1374 1083 1410 q 1310 1272 1251 1339 q 1402 1111 1369 1206 q 1435 900 1435 1017 q 1411 681 1435 792 q 1342 467 1388 571 q 1231 274 1296 364 q 1081 117 1165 185 q 894 12 996 50 q 674 -26 792 -26 m 694 92 q 871 125 789 92 q 1022 217 953 158 q 1143 354 1090 276 q 1232 521 1196 432 q 1287 701 1268 610 q 1306 882 1306 793 q 1283 1058 1306 982 q 1217 1187 1261 1135 q 1108 1265 1172 1239 q 958 1292 1043 1292 q 783 1258 865 1292 q 632 1165 700 1225 q 510 1028 564 1106 q 419 862 457 950 q 363 683 382 774 q 344 504 344 592 q 367 328 344 406 q 433 199 389 251 q 542 119 476 147 q 694 92 607 92 m 888 1556 q 855 1572 861 1556 q 856 1613 849 1588 q 875 1658 863 1643 q 913 1674 888 1674 l 1285 1674 q 1319 1656 1313 1674 q 1318 1613 1325 1639 q 1299 1569 1311 1583 q 1261 1556 1286 1556 l 888 1556 z "},"Ø":{"ha":1426,"x_min":149,"x_max":1483,"o":"m 674 -26 q 485 9 569 -26 q 340 112 400 44 q 247 274 279 179 q 214 488 214 369 q 237 695 214 589 q 304 905 260 801 q 413 1099 349 1008 q 563 1260 478 1190 q 753 1370 649 1331 q 979 1410 857 1410 q 1167 1374 1083 1410 q 1310 1272 1251 1339 q 1402 1111 1369 1206 q 1435 900 1435 1017 q 1411 681 1435 792 q 1342 467 1388 571 q 1231 274 1296 364 q 1081 117 1165 185 q 894 12 996 50 q 674 -26 792 -26 m 694 92 q 871 125 789 92 q 1022 217 953 158 q 1143 354 1090 276 q 1232 521 1196 432 q 1287 701 1268 610 q 1306 882 1306 793 q 1283 1058 1306 982 q 1217 1187 1261 1135 q 1108 1265 1172 1239 q 958 1292 1043 1292 q 783 1258 865 1292 q 632 1165 700 1225 q 510 1028 564 1106 q 419 862 457 950 q 363 683 382 774 q 344 504 344 592 q 367 328 344 406 q 433 199 389 251 q 542 119 476 147 q 694 92 607 92 m 269 -42 q 240 -60 260 -56 q 193 -43 219 -65 q 179 28 150 -8 l 1379 1415 q 1413 1431 1390 1431 q 1457 1415 1435 1432 q 1480 1381 1476 1401 q 1468 1342 1483 1361 l 269 -42 z "},"Õ":{"ha":1426,"x_min":214,"x_max":1435,"o":"m 674 -26 q 485 9 569 -26 q 340 112 400 44 q 247 274 279 179 q 214 488 214 369 q 237 695 214 589 q 304 905 260 801 q 413 1099 349 1008 q 563 1260 478 1190 q 753 1370 649 1331 q 979 1410 857 1410 q 1167 1374 1083 1410 q 1310 1272 1251 1339 q 1402 1111 1369 1206 q 1435 900 1435 1017 q 1411 681 1435 792 q 1342 467 1388 571 q 1231 274 1296 364 q 1081 117 1165 185 q 894 12 996 50 q 674 -26 792 -26 m 694 92 q 871 125 789 92 q 1022 217 953 158 q 1143 354 1090 276 q 1232 521 1196 432 q 1287 701 1268 610 q 1306 882 1306 793 q 1283 1058 1306 982 q 1217 1187 1261 1135 q 1108 1265 1172 1239 q 958 1292 1043 1292 q 783 1258 865 1292 q 632 1165 700 1225 q 510 1028 564 1106 q 419 862 457 950 q 363 683 382 774 q 344 504 344 592 q 367 328 344 406 q 433 199 389 251 q 542 119 476 147 q 694 92 607 92 m 863 1510 q 821 1549 817 1510 q 872 1683 832 1642 q 985 1725 913 1725 q 1060 1710 1031 1725 q 1112 1674 1090 1694 q 1154 1639 1133 1654 q 1204 1624 1175 1624 q 1238 1640 1224 1624 q 1258 1690 1253 1656 q 1317 1728 1267 1728 q 1349 1719 1340 1728 q 1356 1690 1358 1710 q 1306 1556 1346 1599 q 1197 1513 1265 1513 q 1121 1528 1153 1513 q 1065 1563 1089 1543 q 1019 1597 1040 1582 q 974 1613 999 1613 q 938 1594 953 1613 q 915 1540 922 1576 q 899 1518 913 1526 q 863 1510 886 1510 z "},"Ố":{"ha":1426,"x_min":214,"x_max":1569,"o":"m 674 -26 q 485 9 569 -26 q 340 112 400 44 q 247 274 279 179 q 214 488 214 369 q 237 695 214 589 q 304 905 260 801 q 413 1099 349 1008 q 563 1260 478 1190 q 753 1370 649 1331 q 979 1410 857 1410 q 1167 1374 1083 1410 q 1310 1272 1251 1339 q 1402 1111 1369 1206 q 1435 900 1435 1017 q 1411 681 1435 792 q 1342 467 1388 571 q 1231 274 1296 364 q 1081 117 1165 185 q 894 12 996 50 q 674 -26 792 -26 m 694 92 q 871 125 789 92 q 1022 217 953 158 q 1143 354 1090 276 q 1232 521 1196 432 q 1287 701 1268 610 q 1306 882 1306 793 q 1283 1058 1306 982 q 1217 1187 1261 1135 q 1108 1265 1172 1239 q 958 1292 1043 1292 q 783 1258 865 1292 q 632 1165 700 1225 q 510 1028 564 1106 q 419 862 457 950 q 363 683 382 774 q 344 504 344 592 q 367 328 344 406 q 433 199 389 251 q 542 119 476 147 q 694 92 607 92 m 849 1469 q 821 1486 832 1469 q 810 1518 810 1503 q 815 1539 810 1532 q 825 1551 819 1546 l 1050 1726 q 1090 1751 1071 1744 q 1131 1758 1108 1758 q 1163 1749 1149 1758 q 1189 1722 1178 1740 l 1318 1542 q 1326 1524 1325 1532 q 1326 1510 1326 1517 q 1308 1481 1326 1493 q 1278 1469 1290 1469 q 1254 1476 1264 1469 q 1233 1493 1244 1483 l 1104 1618 l 892 1485 q 872 1474 882 1479 q 849 1469 861 1469 m 1325 1685 q 1291 1704 1310 1685 q 1272 1736 1272 1724 q 1274 1747 1272 1742 q 1286 1763 1276 1753 l 1467 1939 q 1480 1951 1474 1947 q 1494 1956 1486 1956 q 1526 1943 1508 1956 q 1557 1913 1544 1931 q 1569 1881 1569 1896 q 1566 1864 1569 1871 q 1547 1847 1563 1857 l 1351 1699 q 1337 1688 1343 1692 q 1325 1685 1331 1685 z "},"Ộ":{"ha":1426,"x_min":214,"x_max":1435,"o":"m 674 -26 q 485 9 569 -26 q 340 112 400 44 q 247 274 279 179 q 214 488 214 369 q 237 695 214 589 q 304 905 260 801 q 413 1099 349 1008 q 563 1260 478 1190 q 753 1370 649 1331 q 979 1410 857 1410 q 1167 1374 1083 1410 q 1310 1272 1251 1339 q 1402 1111 1369 1206 q 1435 900 1435 1017 q 1411 681 1435 792 q 1342 467 1388 571 q 1231 274 1296 364 q 1081 117 1165 185 q 894 12 996 50 q 674 -26 792 -26 m 694 92 q 871 125 789 92 q 1022 217 953 158 q 1143 354 1090 276 q 1232 521 1196 432 q 1287 701 1268 610 q 1306 882 1306 793 q 1283 1058 1306 982 q 1217 1187 1261 1135 q 1108 1265 1172 1239 q 958 1292 1043 1292 q 783 1258 865 1292 q 632 1165 700 1225 q 510 1028 564 1106 q 419 862 457 950 q 363 683 382 774 q 344 504 344 592 q 367 328 344 406 q 433 199 389 251 q 542 119 476 147 q 694 92 607 92 m 506 -322 q 458 -304 478 -322 q 439 -251 439 -286 q 463 -181 439 -214 q 539 -147 488 -147 q 588 -165 568 -147 q 607 -218 607 -183 q 583 -290 607 -257 q 506 -322 558 -322 m 849 1469 q 821 1486 832 1469 q 810 1518 810 1503 q 815 1539 810 1532 q 825 1551 819 1546 l 1050 1726 q 1090 1751 1071 1744 q 1131 1758 1108 1758 q 1163 1749 1149 1758 q 1189 1722 1178 1740 l 1318 1542 q 1326 1524 1325 1532 q 1326 1510 1326 1517 q 1308 1481 1326 1493 q 1278 1469 1290 1469 q 1254 1476 1264 1469 q 1233 1493 1244 1483 l 1104 1618 l 892 1485 q 872 1474 882 1479 q 849 1469 861 1469 z "},"Ồ":{"ha":1426,"x_min":214,"x_max":1460,"o":"m 674 -26 q 485 9 569 -26 q 340 112 400 44 q 247 274 279 179 q 214 488 214 369 q 237 695 214 589 q 304 905 260 801 q 413 1099 349 1008 q 563 1260 478 1190 q 753 1370 649 1331 q 979 1410 857 1410 q 1167 1374 1083 1410 q 1310 1272 1251 1339 q 1402 1111 1369 1206 q 1435 900 1435 1017 q 1411 681 1435 792 q 1342 467 1388 571 q 1231 274 1296 364 q 1081 117 1165 185 q 894 12 996 50 q 674 -26 792 -26 m 694 92 q 871 125 789 92 q 1022 217 953 158 q 1143 354 1090 276 q 1232 521 1196 432 q 1287 701 1268 610 q 1306 882 1306 793 q 1283 1058 1306 982 q 1217 1187 1261 1135 q 1108 1265 1172 1239 q 958 1292 1043 1292 q 783 1258 865 1292 q 632 1165 700 1225 q 510 1028 564 1106 q 419 862 457 950 q 363 683 382 774 q 344 504 344 592 q 367 328 344 406 q 433 199 389 251 q 542 119 476 147 q 694 92 607 92 m 849 1469 q 821 1486 832 1469 q 810 1518 810 1503 q 815 1539 810 1532 q 825 1551 819 1546 l 1050 1726 q 1090 1751 1071 1744 q 1131 1758 1108 1758 q 1163 1749 1149 1758 q 1189 1722 1178 1740 l 1318 1542 q 1326 1524 1325 1532 q 1326 1510 1326 1517 q 1308 1481 1326 1493 q 1278 1469 1290 1469 q 1254 1476 1264 1469 q 1233 1493 1244 1483 l 1104 1618 l 892 1485 q 872 1474 882 1479 q 849 1469 861 1469 m 1404 1663 q 1392 1665 1399 1663 q 1379 1675 1386 1668 l 1207 1865 q 1191 1885 1196 1878 q 1186 1901 1186 1892 q 1199 1933 1186 1917 q 1232 1960 1213 1950 q 1267 1971 1251 1971 q 1283 1967 1275 1971 q 1296 1956 1290 1963 l 1449 1740 q 1458 1724 1456 1729 q 1460 1713 1460 1718 q 1442 1680 1460 1697 q 1404 1663 1424 1663 z "},"Ổ":{"ha":1426,"x_min":214,"x_max":1536,"o":"m 674 -26 q 485 9 569 -26 q 340 112 400 44 q 247 274 279 179 q 214 488 214 369 q 237 695 214 589 q 304 905 260 801 q 413 1099 349 1008 q 563 1260 478 1190 q 753 1370 649 1331 q 979 1410 857 1410 q 1167 1374 1083 1410 q 1310 1272 1251 1339 q 1402 1111 1369 1206 q 1435 900 1435 1017 q 1411 681 1435 792 q 1342 467 1388 571 q 1231 274 1296 364 q 1081 117 1165 185 q 894 12 996 50 q 674 -26 792 -26 m 694 92 q 871 125 789 92 q 1022 217 953 158 q 1143 354 1090 276 q 1232 521 1196 432 q 1287 701 1268 610 q 1306 882 1306 793 q 1283 1058 1306 982 q 1217 1187 1261 1135 q 1108 1265 1172 1239 q 958 1292 1043 1292 q 783 1258 865 1292 q 632 1165 700 1225 q 510 1028 564 1106 q 419 862 457 950 q 363 683 382 774 q 344 504 344 592 q 367 328 344 406 q 433 199 389 251 q 542 119 476 147 q 694 92 607 92 m 849 1469 q 821 1486 832 1469 q 810 1518 810 1503 q 815 1539 810 1532 q 825 1551 819 1546 l 1050 1726 q 1090 1751 1071 1744 q 1131 1758 1108 1758 q 1163 1749 1149 1758 q 1189 1722 1178 1740 l 1318 1542 q 1326 1524 1325 1532 q 1326 1510 1326 1517 q 1308 1481 1326 1493 q 1278 1469 1290 1469 q 1254 1476 1264 1469 q 1233 1493 1244 1483 l 1104 1618 l 892 1485 q 872 1474 882 1479 q 849 1469 861 1469 m 1389 1996 q 1496 1966 1457 1996 q 1535 1882 1535 1936 q 1512 1808 1535 1839 q 1451 1760 1489 1776 q 1407 1731 1417 1744 q 1399 1706 1397 1718 l 1400 1692 q 1390 1665 1403 1675 q 1357 1653 1376 1656 q 1322 1658 1338 1651 q 1301 1679 1306 1664 l 1293 1715 q 1300 1774 1285 1749 q 1351 1817 1315 1799 q 1388 1842 1376 1828 q 1399 1871 1399 1857 q 1390 1888 1399 1882 q 1364 1894 1381 1894 q 1322 1888 1344 1894 q 1278 1867 1300 1881 q 1226 1900 1249 1850 q 1246 1954 1214 1929 q 1313 1985 1278 1975 q 1389 1996 1349 1996 z "},"Ỗ":{"ha":1426,"x_min":214,"x_max":1435,"o":"m 674 -26 q 485 9 569 -26 q 340 112 400 44 q 247 274 279 179 q 214 488 214 369 q 237 695 214 589 q 304 905 260 801 q 413 1099 349 1008 q 563 1260 478 1190 q 753 1370 649 1331 q 979 1410 857 1410 q 1167 1374 1083 1410 q 1310 1272 1251 1339 q 1402 1111 1369 1206 q 1435 900 1435 1017 q 1411 681 1435 792 q 1342 467 1388 571 q 1231 274 1296 364 q 1081 117 1165 185 q 894 12 996 50 q 674 -26 792 -26 m 694 92 q 871 125 789 92 q 1022 217 953 158 q 1143 354 1090 276 q 1232 521 1196 432 q 1287 701 1268 610 q 1306 882 1306 793 q 1283 1058 1306 982 q 1217 1187 1261 1135 q 1108 1265 1172 1239 q 958 1292 1043 1292 q 783 1258 865 1292 q 632 1165 700 1225 q 510 1028 564 1106 q 419 862 457 950 q 363 683 382 774 q 344 504 344 592 q 367 328 344 406 q 433 199 389 251 q 542 119 476 147 q 694 92 607 92 m 849 1469 q 821 1486 832 1469 q 810 1518 810 1503 q 815 1539 810 1532 q 825 1551 819 1546 l 1050 1726 q 1090 1751 1071 1744 q 1131 1758 1108 1758 q 1163 1749 1149 1758 q 1189 1722 1178 1740 l 1318 1542 q 1326 1524 1325 1532 q 1326 1510 1326 1517 q 1308 1481 1326 1493 q 1278 1469 1290 1469 q 1254 1476 1264 1469 q 1233 1493 1244 1483 l 1104 1618 l 892 1485 q 872 1474 882 1479 q 849 1469 861 1469 m 929 1779 q 888 1817 883 1779 q 939 1952 899 1910 q 1051 1994 979 1994 q 1128 1979 1097 1994 q 1180 1943 1158 1964 q 1222 1907 1201 1922 q 1271 1892 1242 1892 q 1305 1908 1290 1892 q 1325 1960 1319 1925 q 1383 1996 1333 1996 q 1416 1987 1407 1996 q 1422 1960 1425 1978 q 1372 1824 1413 1867 q 1264 1781 1332 1781 q 1188 1796 1219 1781 q 1133 1831 1157 1811 q 1087 1867 1108 1851 q 1040 1882 1065 1882 q 1004 1863 1019 1882 q 982 1808 989 1844 q 966 1787 979 1794 q 929 1779 953 1779 z "},"Ọ":{"ha":1426,"x_min":214,"x_max":1435,"o":"m 674 -26 q 485 9 569 -26 q 340 112 400 44 q 247 274 279 179 q 214 488 214 369 q 237 695 214 589 q 304 905 260 801 q 413 1099 349 1008 q 563 1260 478 1190 q 753 1370 649 1331 q 979 1410 857 1410 q 1167 1374 1083 1410 q 1310 1272 1251 1339 q 1402 1111 1369 1206 q 1435 900 1435 1017 q 1411 681 1435 792 q 1342 467 1388 571 q 1231 274 1296 364 q 1081 117 1165 185 q 894 12 996 50 q 674 -26 792 -26 m 694 92 q 871 125 789 92 q 1022 217 953 158 q 1143 354 1090 276 q 1232 521 1196 432 q 1287 701 1268 610 q 1306 882 1306 793 q 1283 1058 1306 982 q 1217 1187 1261 1135 q 1108 1265 1172 1239 q 958 1292 1043 1292 q 783 1258 865 1292 q 632 1165 700 1225 q 510 1028 564 1106 q 419 862 457 950 q 363 683 382 774 q 344 504 344 592 q 367 328 344 406 q 433 199 389 251 q 542 119 476 147 q 694 92 607 92 m 506 -322 q 458 -304 478 -322 q 439 -251 439 -286 q 463 -181 439 -214 q 539 -147 488 -147 q 588 -165 568 -147 q 607 -218 607 -183 q 583 -290 607 -257 q 506 -322 558 -322 z "},"Ỏ":{"ha":1426,"x_min":214,"x_max":1435,"o":"m 674 -26 q 485 9 569 -26 q 340 112 400 44 q 247 274 279 179 q 214 488 214 369 q 237 695 214 589 q 304 905 260 801 q 413 1099 349 1008 q 563 1260 478 1190 q 753 1370 649 1331 q 979 1410 857 1410 q 1167 1374 1083 1410 q 1310 1272 1251 1339 q 1402 1111 1369 1206 q 1435 900 1435 1017 q 1411 681 1435 792 q 1342 467 1388 571 q 1231 274 1296 364 q 1081 117 1165 185 q 894 12 996 50 q 674 -26 792 -26 m 694 92 q 871 125 789 92 q 1022 217 953 158 q 1143 354 1090 276 q 1232 521 1196 432 q 1287 701 1268 610 q 1306 882 1306 793 q 1283 1058 1306 982 q 1217 1187 1261 1135 q 1108 1265 1172 1239 q 958 1292 1043 1292 q 783 1258 865 1292 q 632 1165 700 1225 q 510 1028 564 1106 q 419 862 457 950 q 363 683 382 774 q 344 504 344 592 q 367 328 344 406 q 433 199 389 251 q 542 119 476 147 q 694 92 607 92 m 1106 1800 q 1213 1770 1174 1800 q 1251 1686 1251 1740 q 1228 1612 1251 1643 q 1168 1564 1206 1581 q 1124 1535 1133 1549 q 1115 1510 1114 1522 l 1117 1496 q 1106 1469 1119 1479 q 1074 1458 1093 1460 q 1038 1462 1054 1456 q 1018 1483 1022 1468 l 1010 1519 q 1017 1578 1001 1553 q 1068 1621 1032 1603 q 1104 1647 1093 1632 q 1115 1675 1115 1661 q 1106 1692 1115 1686 q 1081 1699 1097 1699 q 1039 1692 1061 1699 q 994 1671 1017 1685 q 943 1704 964 1654 q 963 1758 931 1733 q 1030 1790 994 1779 q 1106 1800 1065 1800 z "},"Ơ":{"ha":1426,"x_min":214,"x_max":1525,"o":"m 674 -26 q 485 9 569 -26 q 340 112 400 44 q 247 274 279 179 q 214 488 214 369 q 237 695 214 589 q 304 905 260 801 q 413 1099 349 1008 q 563 1260 478 1190 q 753 1370 649 1331 q 979 1410 857 1410 q 1082 1399 1035 1410 q 1169 1368 1129 1389 q 1311 1391 1260 1372 q 1384 1443 1363 1410 q 1404 1522 1406 1476 q 1386 1626 1403 1568 q 1394 1660 1381 1646 q 1431 1680 1408 1674 q 1473 1681 1453 1686 q 1499 1658 1493 1676 q 1523 1542 1521 1600 q 1502 1434 1525 1483 q 1426 1350 1479 1385 q 1282 1301 1372 1315 q 1394 1133 1354 1235 q 1435 900 1435 1031 q 1411 681 1435 792 q 1342 467 1388 571 q 1231 274 1296 364 q 1081 117 1165 185 q 894 12 996 50 q 674 -26 792 -26 m 694 92 q 871 125 789 92 q 1022 217 953 158 q 1143 354 1090 276 q 1232 521 1196 432 q 1287 701 1268 610 q 1306 882 1306 793 q 1283 1058 1306 982 q 1217 1187 1261 1135 q 1108 1265 1172 1239 q 958 1292 1043 1292 q 783 1258 865 1292 q 632 1165 700 1225 q 510 1028 564 1106 q 419 862 457 950 q 363 683 382 774 q 344 504 344 592 q 367 328 344 406 q 433 199 389 251 q 542 119 476 147 q 694 92 607 92 z "},"Ớ":{"ha":1426,"x_min":214,"x_max":1525,"o":"m 674 -26 q 485 9 569 -26 q 340 112 400 44 q 247 274 279 179 q 214 488 214 369 q 237 695 214 589 q 304 905 260 801 q 413 1099 349 1008 q 563 1260 478 1190 q 753 1370 649 1331 q 979 1410 857 1410 q 1082 1399 1035 1410 q 1169 1368 1129 1389 q 1311 1391 1260 1372 q 1384 1443 1363 1410 q 1404 1522 1406 1476 q 1386 1626 1403 1568 q 1394 1660 1381 1646 q 1431 1680 1408 1674 q 1473 1681 1453 1686 q 1499 1658 1493 1676 q 1523 1542 1521 1600 q 1502 1434 1525 1483 q 1426 1350 1479 1385 q 1282 1301 1372 1315 q 1394 1133 1354 1235 q 1435 900 1435 1031 q 1411 681 1435 792 q 1342 467 1388 571 q 1231 274 1296 364 q 1081 117 1165 185 q 894 12 996 50 q 674 -26 792 -26 m 694 92 q 871 125 789 92 q 1022 217 953 158 q 1143 354 1090 276 q 1232 521 1196 432 q 1287 701 1268 610 q 1306 882 1306 793 q 1283 1058 1306 982 q 1217 1187 1261 1135 q 1108 1265 1172 1239 q 958 1292 1043 1292 q 783 1258 865 1292 q 632 1165 700 1225 q 510 1028 564 1106 q 419 862 457 950 q 363 683 382 774 q 344 504 344 592 q 367 328 344 406 q 433 199 389 251 q 542 119 476 147 q 694 92 607 92 m 985 1469 q 951 1488 969 1469 q 932 1521 932 1507 q 934 1532 932 1526 q 944 1546 936 1538 l 1164 1747 q 1177 1758 1171 1754 q 1192 1763 1183 1763 q 1223 1750 1206 1763 q 1253 1721 1240 1738 q 1265 1689 1265 1704 q 1263 1672 1265 1679 q 1244 1654 1260 1665 l 1011 1483 q 997 1474 1003 1478 q 985 1469 990 1469 z "},"Ợ":{"ha":1426,"x_min":214,"x_max":1525,"o":"m 674 -26 q 485 9 569 -26 q 340 112 400 44 q 247 274 279 179 q 214 488 214 369 q 237 695 214 589 q 304 905 260 801 q 413 1099 349 1008 q 563 1260 478 1190 q 753 1370 649 1331 q 979 1410 857 1410 q 1082 1399 1035 1410 q 1169 1368 1129 1389 q 1311 1391 1260 1372 q 1384 1443 1363 1410 q 1404 1522 1406 1476 q 1386 1626 1403 1568 q 1394 1660 1381 1646 q 1431 1680 1408 1674 q 1473 1681 1453 1686 q 1499 1658 1493 1676 q 1523 1542 1521 1600 q 1502 1434 1525 1483 q 1426 1350 1479 1385 q 1282 1301 1372 1315 q 1394 1133 1354 1235 q 1435 900 1435 1031 q 1411 681 1435 792 q 1342 467 1388 571 q 1231 274 1296 364 q 1081 117 1165 185 q 894 12 996 50 q 674 -26 792 -26 m 694 92 q 871 125 789 92 q 1022 217 953 158 q 1143 354 1090 276 q 1232 521 1196 432 q 1287 701 1268 610 q 1306 882 1306 793 q 1283 1058 1306 982 q 1217 1187 1261 1135 q 1108 1265 1172 1239 q 958 1292 1043 1292 q 783 1258 865 1292 q 632 1165 700 1225 q 510 1028 564 1106 q 419 862 457 950 q 363 683 382 774 q 344 504 344 592 q 367 328 344 406 q 433 199 389 251 q 542 119 476 147 q 694 92 607 92 m 506 -322 q 458 -304 478 -322 q 439 -251 439 -286 q 463 -181 439 -214 q 539 -147 488 -147 q 588 -165 568 -147 q 607 -218 607 -183 q 583 -290 607 -257 q 506 -322 558 -322 z "},"Ờ":{"ha":1426,"x_min":214,"x_max":1525,"o":"m 674 -26 q 485 9 569 -26 q 340 112 400 44 q 247 274 279 179 q 214 488 214 369 q 237 695 214 589 q 304 905 260 801 q 413 1099 349 1008 q 563 1260 478 1190 q 753 1370 649 1331 q 979 1410 857 1410 q 1082 1399 1035 1410 q 1169 1368 1129 1389 q 1311 1391 1260 1372 q 1384 1443 1363 1410 q 1404 1522 1406 1476 q 1386 1626 1403 1568 q 1394 1660 1381 1646 q 1431 1680 1408 1674 q 1473 1681 1453 1686 q 1499 1658 1493 1676 q 1523 1542 1521 1600 q 1502 1434 1525 1483 q 1426 1350 1479 1385 q 1282 1301 1372 1315 q 1394 1133 1354 1235 q 1435 900 1435 1031 q 1411 681 1435 792 q 1342 467 1388 571 q 1231 274 1296 364 q 1081 117 1165 185 q 894 12 996 50 q 674 -26 792 -26 m 694 92 q 871 125 789 92 q 1022 217 953 158 q 1143 354 1090 276 q 1232 521 1196 432 q 1287 701 1268 610 q 1306 882 1306 793 q 1283 1058 1306 982 q 1217 1187 1261 1135 q 1108 1265 1172 1239 q 958 1292 1043 1292 q 783 1258 865 1292 q 632 1165 700 1225 q 510 1028 564 1106 q 419 862 457 950 q 363 683 382 774 q 344 504 344 592 q 367 328 344 406 q 433 199 389 251 q 542 119 476 147 q 694 92 607 92 m 1126 1469 q 1114 1474 1121 1469 q 1100 1483 1107 1478 l 901 1656 q 884 1674 888 1667 q 881 1690 881 1681 q 894 1722 881 1706 q 925 1751 907 1739 q 956 1763 943 1763 q 972 1758 965 1763 q 985 1747 978 1754 l 1168 1544 q 1178 1530 1176 1535 q 1179 1521 1179 1525 q 1160 1488 1179 1507 q 1126 1469 1142 1469 z "},"Ở":{"ha":1426,"x_min":214,"x_max":1525,"o":"m 674 -26 q 485 9 569 -26 q 340 112 400 44 q 247 274 279 179 q 214 488 214 369 q 237 695 214 589 q 304 905 260 801 q 413 1099 349 1008 q 563 1260 478 1190 q 753 1370 649 1331 q 979 1410 857 1410 q 1082 1399 1035 1410 q 1169 1368 1129 1389 q 1311 1391 1260 1372 q 1384 1443 1363 1410 q 1404 1522 1406 1476 q 1386 1626 1403 1568 q 1394 1660 1381 1646 q 1431 1680 1408 1674 q 1473 1681 1453 1686 q 1499 1658 1493 1676 q 1523 1542 1521 1600 q 1502 1434 1525 1483 q 1426 1350 1479 1385 q 1282 1301 1372 1315 q 1394 1133 1354 1235 q 1435 900 1435 1031 q 1411 681 1435 792 q 1342 467 1388 571 q 1231 274 1296 364 q 1081 117 1165 185 q 894 12 996 50 q 674 -26 792 -26 m 694 92 q 871 125 789 92 q 1022 217 953 158 q 1143 354 1090 276 q 1232 521 1196 432 q 1287 701 1268 610 q 1306 882 1306 793 q 1283 1058 1306 982 q 1217 1187 1261 1135 q 1108 1265 1172 1239 q 958 1292 1043 1292 q 783 1258 865 1292 q 632 1165 700 1225 q 510 1028 564 1106 q 419 862 457 950 q 363 683 382 774 q 344 504 344 592 q 367 328 344 406 q 433 199 389 251 q 542 119 476 147 q 694 92 607 92 m 1106 1800 q 1213 1770 1174 1800 q 1251 1686 1251 1740 q 1228 1612 1251 1643 q 1168 1564 1206 1581 q 1124 1535 1133 1549 q 1115 1510 1114 1522 l 1117 1496 q 1106 1469 1119 1479 q 1074 1458 1093 1460 q 1038 1462 1054 1456 q 1018 1483 1022 1468 l 1010 1519 q 1017 1578 1001 1553 q 1068 1621 1032 1603 q 1104 1647 1093 1632 q 1115 1675 1115 1661 q 1106 1692 1115 1686 q 1081 1699 1097 1699 q 1039 1692 1061 1699 q 994 1671 1017 1685 q 943 1704 964 1654 q 963 1758 931 1733 q 1030 1790 994 1779 q 1106 1800 1065 1800 z "},"Ỡ":{"ha":1426,"x_min":214,"x_max":1525,"o":"m 674 -26 q 485 9 569 -26 q 340 112 400 44 q 247 274 279 179 q 214 488 214 369 q 237 695 214 589 q 304 905 260 801 q 413 1099 349 1008 q 563 1260 478 1190 q 753 1370 649 1331 q 979 1410 857 1410 q 1082 1399 1035 1410 q 1169 1368 1129 1389 q 1311 1391 1260 1372 q 1384 1443 1363 1410 q 1404 1522 1406 1476 q 1386 1626 1403 1568 q 1394 1660 1381 1646 q 1431 1680 1408 1674 q 1473 1681 1453 1686 q 1499 1658 1493 1676 q 1523 1542 1521 1600 q 1502 1434 1525 1483 q 1426 1350 1479 1385 q 1282 1301 1372 1315 q 1394 1133 1354 1235 q 1435 900 1435 1031 q 1411 681 1435 792 q 1342 467 1388 571 q 1231 274 1296 364 q 1081 117 1165 185 q 894 12 996 50 q 674 -26 792 -26 m 694 92 q 871 125 789 92 q 1022 217 953 158 q 1143 354 1090 276 q 1232 521 1196 432 q 1287 701 1268 610 q 1306 882 1306 793 q 1283 1058 1306 982 q 1217 1187 1261 1135 q 1108 1265 1172 1239 q 958 1292 1043 1292 q 783 1258 865 1292 q 632 1165 700 1225 q 510 1028 564 1106 q 419 862 457 950 q 363 683 382 774 q 344 504 344 592 q 367 328 344 406 q 433 199 389 251 q 542 119 476 147 q 694 92 607 92 m 818 1510 q 776 1549 772 1510 q 828 1683 788 1642 q 940 1725 868 1725 q 1016 1710 986 1725 q 1067 1674 1046 1694 q 1110 1639 1089 1654 q 1160 1624 1131 1624 q 1194 1640 1179 1624 q 1214 1690 1208 1656 q 1272 1728 1222 1728 q 1305 1719 1296 1728 q 1311 1690 1314 1710 q 1261 1556 1301 1599 q 1153 1513 1221 1513 q 1076 1528 1108 1513 q 1020 1563 1044 1543 q 975 1597 996 1582 q 929 1613 954 1613 q 893 1594 908 1613 q 871 1540 878 1576 q 855 1518 868 1526 q 818 1510 842 1510 z "},"Ŕ":{"ha":1069,"x_min":89,"x_max":1222,"o":"m 149 -19 q 103 -10 118 -19 q 94 22 89 0 l 524 1347 q 547 1376 531 1367 q 594 1386 564 1386 l 794 1386 q 1038 1359 943 1386 q 1178 1270 1133 1332 q 1222 1103 1222 1208 q 1201 973 1222 1033 q 1140 861 1181 913 q 1041 769 1100 810 q 905 698 982 728 q 735 650 828 668 q 535 628 643 632 q 640 436 583 531 q 767 251 697 342 q 922 71 836 160 q 938 41 933 60 q 911 -6 943 22 q 870 -20 890 -24 q 833 0 850 -17 q 673 185 751 83 q 527 397 594 286 q 408 615 460 508 l 217 19 q 195 -10 210 0 q 149 -19 181 -19 m 443 725 q 610 733 532 725 q 754 758 688 742 q 875 797 821 774 q 971 850 929 819 q 1041 918 1013 881 q 1083 999 1069 956 q 1097 1093 1097 1043 q 1069 1203 1097 1164 q 970 1259 1040 1243 q 776 1275 900 1275 l 622 1275 l 443 725 m 843 1469 q 809 1488 828 1469 q 790 1521 790 1507 q 792 1532 790 1526 q 803 1546 794 1538 l 1022 1747 q 1035 1758 1029 1754 q 1050 1763 1042 1763 q 1081 1750 1064 1763 q 1111 1721 1099 1738 q 1124 1689 1124 1704 q 1121 1672 1124 1679 q 1103 1654 1118 1665 l 869 1483 q 855 1474 861 1478 q 843 1469 849 1469 z "},"Ř":{"ha":1069,"x_min":89,"x_max":1222,"o":"m 149 -19 q 103 -10 118 -19 q 94 22 89 0 l 524 1347 q 547 1376 531 1367 q 594 1386 564 1386 l 794 1386 q 1038 1359 943 1386 q 1178 1270 1133 1332 q 1222 1103 1222 1208 q 1201 973 1222 1033 q 1140 861 1181 913 q 1041 769 1100 810 q 905 698 982 728 q 735 650 828 668 q 535 628 643 632 q 640 436 583 531 q 767 251 697 342 q 922 71 836 160 q 938 41 933 60 q 911 -6 943 22 q 870 -20 890 -24 q 833 0 850 -17 q 673 185 751 83 q 527 397 594 286 q 408 615 460 508 l 217 19 q 195 -10 210 0 q 149 -19 181 -19 m 443 725 q 610 733 532 725 q 754 758 688 742 q 875 797 821 774 q 971 850 929 819 q 1041 918 1013 881 q 1083 999 1069 956 q 1097 1093 1097 1043 q 1069 1203 1097 1164 q 970 1259 1040 1243 q 776 1275 900 1275 l 622 1275 l 443 725 m 1178 1758 q 1208 1742 1194 1758 q 1221 1710 1221 1725 q 1217 1689 1221 1696 q 1206 1676 1213 1682 l 979 1501 q 940 1477 958 1485 q 900 1469 922 1469 q 867 1479 882 1469 q 840 1507 853 1489 l 713 1688 q 704 1706 706 1699 q 703 1718 703 1713 q 723 1747 703 1735 q 757 1758 743 1758 q 778 1752 771 1758 q 794 1736 785 1746 l 925 1611 l 1138 1738 q 1157 1751 1147 1743 q 1178 1758 1167 1758 z "},"Ŗ":{"ha":1069,"x_min":89,"x_max":1222,"o":"m 149 -19 q 103 -10 118 -19 q 94 22 89 0 l 524 1347 q 547 1376 531 1367 q 594 1386 564 1386 l 794 1386 q 1038 1359 943 1386 q 1178 1270 1133 1332 q 1222 1103 1222 1208 q 1201 973 1222 1033 q 1140 861 1181 913 q 1041 769 1100 810 q 905 698 982 728 q 735 650 828 668 q 535 628 643 632 q 640 436 583 531 q 767 251 697 342 q 922 71 836 160 q 938 41 933 60 q 911 -6 943 22 q 870 -20 890 -24 q 833 0 850 -17 q 673 185 751 83 q 527 397 594 286 q 408 615 460 508 l 217 19 q 195 -10 210 0 q 149 -19 181 -19 m 443 725 q 610 733 532 725 q 754 758 688 742 q 875 797 821 774 q 971 850 929 819 q 1041 918 1013 881 q 1083 999 1069 956 q 1097 1093 1097 1043 q 1069 1203 1097 1164 q 970 1259 1040 1243 q 776 1275 900 1275 l 622 1275 l 443 725 m 318 -401 q 299 -376 301 -390 q 310 -344 297 -361 q 351 -276 335 -307 q 378 -213 368 -246 q 393 -139 389 -181 q 412 -106 396 -115 q 454 -96 428 -96 q 501 -111 486 -96 q 514 -153 517 -126 q 492 -228 511 -187 q 446 -307 474 -268 q 386 -379 418 -346 q 351 -404 368 -397 q 318 -401 335 -411 z "},"Ś":{"ha":1061,"x_min":53,"x_max":1169,"o":"m 475 -31 q 335 -15 397 -31 q 224 24 274 0 q 136 81 175 49 q 67 147 97 113 q 61 178 53 163 q 83 206 69 193 q 117 225 103 221 q 146 215 132 229 q 227 152 181 181 q 335 106 274 124 q 476 88 397 88 q 620 107 554 88 q 735 164 686 126 q 810 258 783 201 q 838 392 838 315 q 823 474 838 438 q 781 541 808 511 q 713 597 753 571 q 621 651 674 624 q 529 707 572 678 q 450 769 486 736 q 388 844 414 803 q 347 935 361 885 q 332 1047 332 985 q 363 1192 332 1126 q 453 1306 394 1257 q 593 1383 511 1356 q 776 1410 675 1410 q 925 1387 854 1410 q 1056 1327 996 1364 q 1154 1249 1115 1290 q 1166 1219 1169 1235 q 1144 1186 1163 1203 q 1112 1168 1129 1171 q 1082 1176 1094 1165 q 1001 1234 1047 1208 q 899 1276 956 1260 q 776 1292 843 1292 q 649 1275 707 1292 q 549 1228 592 1258 q 484 1152 507 1197 q 461 1047 461 1107 q 474 958 461 999 q 514 883 486 917 q 585 819 542 850 q 689 757 628 789 q 813 681 760 721 q 899 598 865 642 q 950 503 933 554 q 967 393 967 453 q 931 219 967 297 q 828 85 894 142 q 672 -1 763 29 q 475 -31 582 -31 m 760 1469 q 726 1488 744 1469 q 707 1521 707 1507 q 709 1532 707 1526 q 719 1546 711 1538 l 939 1747 q 952 1758 946 1754 q 967 1763 958 1763 q 998 1750 981 1763 q 1028 1721 1015 1738 q 1040 1689 1040 1704 q 1038 1672 1040 1679 q 1019 1654 1035 1665 l 786 1483 q 772 1474 778 1478 q 760 1469 765 1469 z "},"Š":{"ha":1061,"x_min":53,"x_max":1169,"o":"m 475 -31 q 335 -15 397 -31 q 224 24 274 0 q 136 81 175 49 q 67 147 97 113 q 61 178 53 163 q 83 206 69 193 q 117 225 103 221 q 146 215 132 229 q 227 152 181 181 q 335 106 274 124 q 476 88 397 88 q 620 107 554 88 q 735 164 686 126 q 810 258 783 201 q 838 392 838 315 q 823 474 838 438 q 781 541 808 511 q 713 597 753 571 q 621 651 674 624 q 529 707 572 678 q 450 769 486 736 q 388 844 414 803 q 347 935 361 885 q 332 1047 332 985 q 363 1192 332 1126 q 453 1306 394 1257 q 593 1383 511 1356 q 776 1410 675 1410 q 925 1387 854 1410 q 1056 1327 996 1364 q 1154 1249 1115 1290 q 1166 1219 1169 1235 q 1144 1186 1163 1203 q 1112 1168 1129 1171 q 1082 1176 1094 1165 q 1001 1234 1047 1208 q 899 1276 956 1260 q 776 1292 843 1292 q 649 1275 707 1292 q 549 1228 592 1258 q 484 1152 507 1197 q 461 1047 461 1107 q 474 958 461 999 q 514 883 486 917 q 585 819 542 850 q 689 757 628 789 q 813 681 760 721 q 899 598 865 642 q 950 503 933 554 q 967 393 967 453 q 931 219 967 297 q 828 85 894 142 q 672 -1 763 29 q 475 -31 582 -31 m 1094 1758 q 1124 1742 1111 1758 q 1138 1710 1138 1725 q 1133 1689 1138 1696 q 1122 1676 1129 1682 l 896 1501 q 857 1477 875 1485 q 817 1469 839 1469 q 784 1479 799 1469 q 757 1507 769 1489 l 629 1688 q 621 1706 622 1699 q 619 1718 619 1713 q 640 1747 619 1735 q 674 1758 660 1758 q 694 1752 688 1758 q 711 1736 701 1746 l 842 1611 l 1054 1738 q 1074 1751 1064 1743 q 1094 1758 1083 1758 z "},"Ş":{"ha":1061,"x_min":53,"x_max":1169,"o":"m 475 -31 q 335 -15 397 -31 q 224 24 274 0 q 136 81 175 49 q 67 147 97 113 q 61 178 53 163 q 83 206 69 193 q 117 225 103 221 q 146 215 132 229 q 227 152 181 181 q 335 106 274 124 q 476 88 397 88 q 620 107 554 88 q 735 164 686 126 q 810 258 783 201 q 838 392 838 315 q 823 474 838 438 q 781 541 808 511 q 713 597 753 571 q 621 651 674 624 q 529 707 572 678 q 450 769 486 736 q 388 844 414 803 q 347 935 361 885 q 332 1047 332 985 q 363 1192 332 1126 q 453 1306 394 1257 q 593 1383 511 1356 q 776 1410 675 1410 q 925 1387 854 1410 q 1056 1327 996 1364 q 1154 1249 1115 1290 q 1166 1219 1169 1235 q 1144 1186 1163 1203 q 1112 1168 1129 1171 q 1082 1176 1094 1165 q 1001 1234 1047 1208 q 899 1276 956 1260 q 776 1292 843 1292 q 649 1275 707 1292 q 549 1228 592 1258 q 484 1152 507 1197 q 461 1047 461 1107 q 474 958 461 999 q 514 883 486 917 q 585 819 542 850 q 689 757 628 789 q 813 681 760 721 q 899 598 865 642 q 950 503 933 554 q 967 393 967 453 q 931 219 967 297 q 828 85 894 142 q 672 -1 763 29 q 475 -31 582 -31 m 369 -374 q 277 -363 318 -374 q 213 -335 236 -353 q 203 -306 201 -324 q 211 -276 204 -289 q 233 -252 221 -258 q 258 -251 244 -246 q 303 -269 276 -260 q 372 -278 329 -278 q 426 -267 407 -278 q 446 -229 446 -257 q 419 -191 446 -199 q 354 -187 392 -183 q 333 -185 339 -189 q 321 -172 326 -181 q 317 -153 315 -162 q 326 -135 319 -144 l 428 18 l 519 18 l 413 -146 l 372 -124 q 476 -112 433 -104 q 542 -147 519 -119 q 565 -215 565 -175 q 538 -302 565 -267 q 467 -356 511 -337 q 369 -374 422 -374 z "},"Ŝ":{"ha":1061,"x_min":53,"x_max":1169,"o":"m 475 -31 q 335 -15 397 -31 q 224 24 274 0 q 136 81 175 49 q 67 147 97 113 q 61 178 53 163 q 83 206 69 193 q 117 225 103 221 q 146 215 132 229 q 227 152 181 181 q 335 106 274 124 q 476 88 397 88 q 620 107 554 88 q 735 164 686 126 q 810 258 783 201 q 838 392 838 315 q 823 474 838 438 q 781 541 808 511 q 713 597 753 571 q 621 651 674 624 q 529 707 572 678 q 450 769 486 736 q 388 844 414 803 q 347 935 361 885 q 332 1047 332 985 q 363 1192 332 1126 q 453 1306 394 1257 q 593 1383 511 1356 q 776 1410 675 1410 q 925 1387 854 1410 q 1056 1327 996 1364 q 1154 1249 1115 1290 q 1166 1219 1169 1235 q 1144 1186 1163 1203 q 1112 1168 1129 1171 q 1082 1176 1094 1165 q 1001 1234 1047 1208 q 899 1276 956 1260 q 776 1292 843 1292 q 649 1275 707 1292 q 549 1228 592 1258 q 484 1152 507 1197 q 461 1047 461 1107 q 474 958 461 999 q 514 883 486 917 q 585 819 542 850 q 689 757 628 789 q 813 681 760 721 q 899 598 865 642 q 950 503 933 554 q 967 393 967 453 q 931 219 967 297 q 828 85 894 142 q 672 -1 763 29 q 475 -31 582 -31 m 624 1469 q 596 1486 607 1469 q 585 1518 585 1503 q 590 1539 585 1532 q 600 1551 594 1546 l 825 1726 q 865 1751 846 1744 q 906 1758 883 1758 q 938 1749 924 1758 q 964 1722 953 1740 l 1093 1542 q 1101 1524 1100 1532 q 1101 1510 1101 1517 q 1083 1481 1101 1493 q 1053 1469 1065 1469 q 1029 1476 1039 1469 q 1008 1493 1019 1483 l 879 1618 l 667 1485 q 647 1474 657 1479 q 624 1469 636 1469 z "},"Ș":{"ha":1061,"x_min":53,"x_max":1169,"o":"m 475 -31 q 335 -15 397 -31 q 224 24 274 0 q 136 81 175 49 q 67 147 97 113 q 61 178 53 163 q 83 206 69 193 q 117 225 103 221 q 146 215 132 229 q 227 152 181 181 q 335 106 274 124 q 476 88 397 88 q 620 107 554 88 q 735 164 686 126 q 810 258 783 201 q 838 392 838 315 q 823 474 838 438 q 781 541 808 511 q 713 597 753 571 q 621 651 674 624 q 529 707 572 678 q 450 769 486 736 q 388 844 414 803 q 347 935 361 885 q 332 1047 332 985 q 363 1192 332 1126 q 453 1306 394 1257 q 593 1383 511 1356 q 776 1410 675 1410 q 925 1387 854 1410 q 1056 1327 996 1364 q 1154 1249 1115 1290 q 1166 1219 1169 1235 q 1144 1186 1163 1203 q 1112 1168 1129 1171 q 1082 1176 1094 1165 q 1001 1234 1047 1208 q 899 1276 956 1260 q 776 1292 843 1292 q 649 1275 707 1292 q 549 1228 592 1258 q 484 1152 507 1197 q 461 1047 461 1107 q 474 958 461 999 q 514 883 486 917 q 585 819 542 850 q 689 757 628 789 q 813 681 760 721 q 899 598 865 642 q 950 503 933 554 q 967 393 967 453 q 931 219 967 297 q 828 85 894 142 q 672 -1 763 29 q 475 -31 582 -31 m 292 -401 q 273 -376 275 -390 q 283 -344 271 -361 q 325 -276 308 -307 q 352 -213 342 -246 q 367 -139 363 -181 q 385 -106 369 -115 q 428 -96 401 -96 q 475 -111 460 -96 q 488 -153 490 -126 q 466 -228 485 -187 q 419 -307 447 -268 q 360 -379 392 -346 q 325 -404 342 -397 q 292 -401 308 -411 z "},"Ŧ":{"ha":1064,"x_min":335,"x_max":1368,"o":"m 414 -21 q 365 18 356 -21 l 775 1275 l 367 1275 q 341 1288 346 1275 q 346 1331 336 1300 q 369 1374 357 1363 q 403 1386 382 1386 l 1338 1386 q 1363 1374 1358 1386 q 1357 1331 1368 1363 q 1335 1288 1347 1300 q 1301 1275 1322 1275 l 896 1275 l 486 18 q 463 -11 481 -1 q 414 -21 444 -21 m 365 642 q 338 657 340 642 q 339 690 335 672 q 353 726 343 710 q 389 743 363 743 l 936 743 q 965 726 963 743 q 964 690 968 710 q 950 657 960 672 q 915 642 940 642 l 365 642 z "},"Ť":{"ha":1064,"x_min":336,"x_max":1368,"o":"m 414 -21 q 365 18 356 -21 l 775 1275 l 367 1275 q 341 1288 346 1275 q 346 1331 336 1300 q 369 1374 357 1363 q 403 1386 382 1386 l 1338 1386 q 1363 1374 1358 1386 q 1357 1331 1368 1363 q 1335 1288 1347 1300 q 1301 1275 1322 1275 l 896 1275 l 486 18 q 463 -11 481 -1 q 414 -21 444 -21 m 1169 1758 q 1199 1742 1186 1758 q 1213 1710 1213 1725 q 1208 1689 1213 1696 q 1197 1676 1204 1682 l 971 1501 q 932 1477 950 1485 q 892 1469 914 1469 q 859 1479 874 1469 q 832 1507 844 1489 l 704 1688 q 696 1706 697 1699 q 694 1718 694 1713 q 715 1747 694 1735 q 749 1758 735 1758 q 769 1752 763 1758 q 786 1736 776 1746 l 917 1611 l 1129 1738 q 1149 1751 1139 1743 q 1169 1758 1158 1758 z "},"Ţ":{"ha":1064,"x_min":165,"x_max":1368,"o":"m 414 -21 q 365 18 356 -21 l 775 1275 l 367 1275 q 341 1288 346 1275 q 346 1331 336 1300 q 369 1374 357 1363 q 403 1386 382 1386 l 1338 1386 q 1363 1374 1358 1386 q 1357 1331 1368 1363 q 1335 1288 1347 1300 q 1301 1275 1322 1275 l 896 1275 l 486 18 q 463 -11 481 -1 q 414 -21 444 -21 m 333 -374 q 241 -363 282 -374 q 176 -335 200 -353 q 167 -306 165 -324 q 175 -276 168 -289 q 197 -252 185 -258 q 222 -251 208 -246 q 267 -269 240 -260 q 336 -278 293 -278 q 390 -267 371 -278 q 410 -229 410 -257 q 383 -191 410 -199 q 318 -187 356 -183 q 297 -185 303 -189 q 285 -172 290 -181 q 281 -153 279 -162 q 290 -135 283 -144 l 392 18 l 483 18 l 376 -146 l 336 -124 q 440 -112 397 -104 q 506 -147 483 -119 q 529 -215 529 -175 q 502 -302 529 -267 q 431 -356 475 -337 q 333 -374 386 -374 z "},"Ț":{"ha":1064,"x_min":235,"x_max":1368,"o":"m 414 -21 q 365 18 356 -21 l 775 1275 l 367 1275 q 341 1288 346 1275 q 346 1331 336 1300 q 369 1374 357 1363 q 403 1386 382 1386 l 1338 1386 q 1363 1374 1358 1386 q 1357 1331 1368 1363 q 1335 1288 1347 1300 q 1301 1275 1322 1275 l 896 1275 l 486 18 q 463 -11 481 -1 q 414 -21 444 -21 m 256 -401 q 237 -376 239 -390 q 247 -344 235 -361 q 289 -276 272 -307 q 316 -213 306 -246 q 331 -139 326 -181 q 349 -106 333 -115 q 392 -96 365 -96 q 439 -111 424 -96 q 451 -153 454 -126 q 430 -228 449 -187 q 383 -307 411 -268 q 324 -379 356 -346 q 289 -404 306 -397 q 256 -401 272 -411 z "},"Ú":{"ha":1331,"x_min":186,"x_max":1482,"o":"m 576 -26 q 378 6 461 -26 q 247 101 294 39 q 193 256 200 164 q 224 467 186 347 l 513 1372 q 535 1401 519 1392 q 585 1410 551 1410 q 632 1400 617 1410 q 640 1368 647 1390 l 343 450 q 321 247 303 326 q 408 129 339 167 q 588 92 476 92 q 802 133 710 92 q 958 253 894 174 q 1058 450 1022 333 l 1344 1372 q 1367 1401 1351 1392 q 1415 1410 1383 1410 q 1469 1368 1482 1410 l 1179 435 q 1047 181 1132 283 q 843 26 961 78 q 576 -26 725 -26 m 936 1469 q 902 1488 921 1469 q 883 1521 883 1507 q 885 1532 883 1526 q 896 1546 888 1538 l 1115 1747 q 1128 1758 1122 1754 q 1143 1763 1135 1763 q 1174 1750 1157 1763 q 1204 1721 1192 1738 q 1217 1689 1217 1704 q 1214 1672 1217 1679 q 1196 1654 1211 1665 l 963 1483 q 948 1474 954 1478 q 936 1469 942 1469 z "},"Ŭ":{"ha":1331,"x_min":186,"x_max":1482,"o":"m 576 -26 q 378 6 461 -26 q 247 101 294 39 q 193 256 200 164 q 224 467 186 347 l 513 1372 q 535 1401 519 1392 q 585 1410 551 1410 q 632 1400 617 1410 q 640 1368 647 1390 l 343 450 q 321 247 303 326 q 408 129 339 167 q 588 92 476 92 q 802 133 710 92 q 958 253 894 174 q 1058 450 1022 333 l 1344 1372 q 1367 1401 1351 1392 q 1415 1410 1383 1410 q 1469 1368 1482 1410 l 1179 435 q 1047 181 1132 283 q 843 26 961 78 q 576 -26 725 -26 m 1008 1469 q 854 1531 907 1469 q 815 1721 801 1593 q 831 1750 818 1742 q 864 1758 843 1758 q 898 1748 885 1758 q 911 1721 911 1738 q 944 1619 910 1650 q 1031 1589 978 1589 q 1141 1626 1094 1589 q 1213 1717 1188 1663 q 1236 1750 1224 1742 q 1268 1758 1249 1758 q 1305 1746 1292 1758 q 1311 1713 1318 1733 q 1240 1564 1279 1617 q 1144 1490 1200 1511 q 1008 1469 1088 1469 z "},"Ǔ":{"ha":1331,"x_min":186,"x_max":1482,"o":"m 576 -26 q 378 6 461 -26 q 247 101 294 39 q 193 256 200 164 q 224 467 186 347 l 513 1372 q 535 1401 519 1392 q 585 1410 551 1410 q 632 1400 617 1410 q 640 1368 647 1390 l 343 450 q 321 247 303 326 q 408 129 339 167 q 588 92 476 92 q 802 133 710 92 q 958 253 894 174 q 1058 450 1022 333 l 1344 1372 q 1367 1401 1351 1392 q 1415 1410 1383 1410 q 1469 1368 1482 1410 l 1179 435 q 1047 181 1132 283 q 843 26 961 78 q 576 -26 725 -26 m 1271 1758 q 1301 1742 1288 1758 q 1314 1710 1314 1725 q 1310 1689 1314 1696 q 1299 1676 1306 1682 l 1072 1501 q 1033 1477 1051 1485 q 993 1469 1015 1469 q 960 1479 975 1469 q 933 1507 946 1489 l 806 1688 q 797 1706 799 1699 q 796 1718 796 1713 q 816 1747 796 1735 q 850 1758 836 1758 q 871 1752 864 1758 q 888 1736 878 1746 l 1018 1611 l 1231 1738 q 1250 1751 1240 1743 q 1271 1758 1260 1758 z "},"Û":{"ha":1331,"x_min":186,"x_max":1482,"o":"m 576 -26 q 378 6 461 -26 q 247 101 294 39 q 193 256 200 164 q 224 467 186 347 l 513 1372 q 535 1401 519 1392 q 585 1410 551 1410 q 632 1400 617 1410 q 640 1368 647 1390 l 343 450 q 321 247 303 326 q 408 129 339 167 q 588 92 476 92 q 802 133 710 92 q 958 253 894 174 q 1058 450 1022 333 l 1344 1372 q 1367 1401 1351 1392 q 1415 1410 1383 1410 q 1469 1368 1482 1410 l 1179 435 q 1047 181 1132 283 q 843 26 961 78 q 576 -26 725 -26 m 800 1469 q 772 1486 783 1469 q 761 1518 761 1503 q 766 1539 761 1532 q 776 1551 771 1546 l 1001 1726 q 1041 1751 1022 1744 q 1082 1758 1060 1758 q 1115 1749 1100 1758 q 1140 1722 1129 1740 l 1269 1542 q 1277 1524 1276 1532 q 1278 1510 1278 1517 q 1260 1481 1278 1493 q 1229 1469 1242 1469 q 1206 1476 1215 1469 q 1185 1493 1196 1483 l 1056 1618 l 843 1485 q 823 1474 833 1479 q 800 1469 813 1469 z "},"Ü":{"ha":1331,"x_min":186,"x_max":1482,"o":"m 576 -26 q 378 6 461 -26 q 247 101 294 39 q 193 256 200 164 q 224 467 186 347 l 513 1372 q 535 1401 519 1392 q 585 1410 551 1410 q 632 1400 617 1410 q 640 1368 647 1390 l 343 450 q 321 247 303 326 q 408 129 339 167 q 588 92 476 92 q 802 133 710 92 q 958 253 894 174 q 1058 450 1022 333 l 1344 1372 q 1367 1401 1351 1392 q 1415 1410 1383 1410 q 1469 1368 1482 1410 l 1179 435 q 1047 181 1132 283 q 843 26 961 78 q 576 -26 725 -26 m 847 1517 q 799 1535 818 1517 q 779 1589 779 1553 q 805 1659 779 1626 q 881 1692 831 1692 q 928 1674 908 1692 q 947 1621 947 1657 q 924 1550 947 1583 q 847 1517 900 1517 m 1189 1517 q 1141 1535 1161 1517 q 1121 1589 1121 1553 q 1147 1659 1121 1626 q 1222 1692 1172 1692 q 1270 1674 1250 1692 q 1290 1621 1290 1657 q 1266 1550 1290 1583 q 1189 1517 1242 1517 z "},"Ù":{"ha":1331,"x_min":186,"x_max":1482,"o":"m 576 -26 q 378 6 461 -26 q 247 101 294 39 q 193 256 200 164 q 224 467 186 347 l 513 1372 q 535 1401 519 1392 q 585 1410 551 1410 q 632 1400 617 1410 q 640 1368 647 1390 l 343 450 q 321 247 303 326 q 408 129 339 167 q 588 92 476 92 q 802 133 710 92 q 958 253 894 174 q 1058 450 1022 333 l 1344 1372 q 1367 1401 1351 1392 q 1415 1410 1383 1410 q 1469 1368 1482 1410 l 1179 435 q 1047 181 1132 283 q 843 26 961 78 q 576 -26 725 -26 m 1078 1469 q 1065 1474 1072 1469 q 1051 1483 1058 1478 l 853 1656 q 835 1674 839 1667 q 832 1690 832 1681 q 845 1722 832 1706 q 876 1751 858 1739 q 907 1763 894 1763 q 923 1758 917 1763 q 936 1747 929 1754 l 1119 1544 q 1129 1530 1128 1535 q 1131 1521 1131 1525 q 1112 1488 1131 1507 q 1078 1469 1093 1469 z "},"Ű":{"ha":1331,"x_min":186,"x_max":1482,"o":"m 576 -26 q 378 6 461 -26 q 247 101 294 39 q 193 256 200 164 q 224 467 186 347 l 513 1372 q 535 1401 519 1392 q 585 1410 551 1410 q 632 1400 617 1410 q 640 1368 647 1390 l 343 450 q 321 247 303 326 q 408 129 339 167 q 588 92 476 92 q 802 133 710 92 q 958 253 894 174 q 1058 450 1022 333 l 1344 1372 q 1367 1401 1351 1392 q 1415 1410 1383 1410 q 1469 1368 1482 1410 l 1179 435 q 1047 181 1132 283 q 843 26 961 78 q 576 -26 725 -26 m 856 1469 q 822 1488 840 1469 q 804 1521 804 1507 q 806 1532 804 1526 q 817 1546 807 1538 l 1013 1747 q 1025 1758 1019 1754 q 1039 1763 1031 1763 q 1071 1750 1053 1763 q 1101 1721 1089 1738 q 1114 1690 1114 1704 q 1111 1672 1114 1679 q 1093 1654 1108 1665 l 883 1483 q 868 1474 875 1478 q 856 1469 861 1469 m 1128 1469 q 1094 1488 1113 1469 q 1075 1521 1075 1507 q 1076 1532 1075 1526 q 1088 1546 1078 1538 l 1282 1747 q 1297 1758 1290 1754 q 1311 1763 1303 1763 q 1342 1750 1325 1763 q 1373 1721 1360 1738 q 1386 1690 1386 1704 q 1383 1672 1386 1679 q 1365 1654 1381 1665 l 1153 1483 q 1140 1474 1146 1478 q 1128 1469 1133 1469 z "},"Ū":{"ha":1331,"x_min":186,"x_max":1482,"o":"m 576 -26 q 378 6 461 -26 q 247 101 294 39 q 193 256 200 164 q 224 467 186 347 l 513 1372 q 535 1401 519 1392 q 585 1410 551 1410 q 632 1400 617 1410 q 640 1368 647 1390 l 343 450 q 321 247 303 326 q 408 129 339 167 q 588 92 476 92 q 802 133 710 92 q 958 253 894 174 q 1058 450 1022 333 l 1344 1372 q 1367 1401 1351 1392 q 1415 1410 1383 1410 q 1469 1368 1482 1410 l 1179 435 q 1047 181 1132 283 q 843 26 961 78 q 576 -26 725 -26 m 839 1556 q 806 1572 813 1556 q 807 1613 800 1588 q 826 1658 814 1643 q 864 1674 839 1674 l 1236 1674 q 1270 1656 1264 1674 q 1269 1613 1276 1639 q 1250 1569 1263 1583 q 1213 1556 1238 1556 l 839 1556 z "},"Ų":{"ha":1331,"x_min":186,"x_max":1482,"o":"m 576 -26 q 378 6 461 -26 q 247 101 294 39 q 193 256 200 164 q 224 467 186 347 l 513 1372 q 535 1401 519 1392 q 585 1410 551 1410 q 632 1400 617 1410 q 640 1368 647 1390 l 343 450 q 321 247 303 326 q 408 129 339 167 q 588 92 476 92 q 802 133 710 92 q 958 253 894 174 q 1058 450 1022 333 l 1344 1372 q 1367 1401 1351 1392 q 1415 1410 1383 1410 q 1469 1368 1482 1410 l 1179 435 q 1047 181 1132 283 q 843 26 961 78 q 576 -26 725 -26 m 589 -336 q 513 -311 539 -336 q 486 -246 486 -286 q 509 -165 486 -204 q 569 -92 532 -126 q 651 -24 607 -57 q 738 40 694 10 l 832 43 l 832 35 q 752 -26 792 4 q 681 -87 713 -57 q 629 -144 649 -117 q 610 -194 610 -171 q 619 -219 610 -210 q 647 -229 629 -229 q 699 -214 674 -229 q 750 -174 724 -199 q 775 -160 761 -162 q 803 -172 789 -158 q 817 -195 811 -182 q 813 -224 822 -208 q 757 -278 794 -251 q 675 -320 719 -304 q 589 -336 631 -336 z "},"Ů":{"ha":1331,"x_min":186,"x_max":1482,"o":"m 576 -26 q 378 6 461 -26 q 247 101 294 39 q 193 256 200 164 q 224 467 186 347 l 513 1372 q 535 1401 519 1392 q 585 1410 551 1410 q 632 1400 617 1410 q 640 1368 647 1390 l 343 450 q 321 247 303 326 q 408 129 339 167 q 588 92 476 92 q 802 133 710 92 q 958 253 894 174 q 1058 450 1022 333 l 1344 1372 q 1367 1401 1351 1392 q 1415 1410 1383 1410 q 1469 1368 1482 1410 l 1179 435 q 1047 181 1132 283 q 843 26 961 78 q 576 -26 725 -26 m 1018 1460 q 924 1478 963 1460 q 867 1529 886 1496 q 847 1608 847 1563 q 876 1704 847 1661 q 956 1772 906 1747 q 1067 1797 1006 1797 q 1163 1779 1124 1797 q 1222 1728 1201 1761 q 1242 1647 1242 1694 q 1212 1551 1242 1593 q 1132 1484 1182 1508 q 1018 1460 1082 1460 m 1025 1543 q 1107 1572 1074 1543 q 1140 1644 1140 1601 q 1121 1696 1140 1678 q 1061 1714 1101 1714 q 982 1684 1015 1714 q 949 1613 949 1654 q 969 1561 949 1579 q 1025 1543 989 1543 z "},"Ũ":{"ha":1331,"x_min":186,"x_max":1482,"o":"m 576 -26 q 378 6 461 -26 q 247 101 294 39 q 193 256 200 164 q 224 467 186 347 l 513 1372 q 535 1401 519 1392 q 585 1410 551 1410 q 632 1400 617 1410 q 640 1368 647 1390 l 343 450 q 321 247 303 326 q 408 129 339 167 q 588 92 476 92 q 802 133 710 92 q 958 253 894 174 q 1058 450 1022 333 l 1344 1372 q 1367 1401 1351 1392 q 1415 1410 1383 1410 q 1469 1368 1482 1410 l 1179 435 q 1047 181 1132 283 q 843 26 961 78 q 576 -26 725 -26 m 814 1510 q 772 1549 768 1510 q 824 1683 783 1642 q 936 1725 864 1725 q 1012 1710 982 1725 q 1063 1674 1042 1694 q 1106 1639 1085 1654 q 1156 1624 1126 1624 q 1190 1640 1175 1624 q 1210 1690 1204 1656 q 1268 1728 1218 1728 q 1301 1719 1292 1728 q 1307 1690 1310 1710 q 1257 1556 1297 1599 q 1149 1513 1217 1513 q 1072 1528 1104 1513 q 1016 1563 1040 1543 q 971 1597 992 1582 q 925 1613 950 1613 q 889 1594 904 1613 q 867 1540 874 1576 q 851 1518 864 1526 q 814 1510 838 1510 z "},"Ǘ":{"ha":1331,"x_min":186,"x_max":1482,"o":"m 576 -26 q 378 6 461 -26 q 247 101 294 39 q 193 256 200 164 q 224 467 186 347 l 513 1372 q 535 1401 519 1392 q 585 1410 551 1410 q 632 1400 617 1410 q 640 1368 647 1390 l 343 450 q 321 247 303 326 q 408 129 339 167 q 588 92 476 92 q 802 133 710 92 q 958 253 894 174 q 1058 450 1022 333 l 1344 1372 q 1367 1401 1351 1392 q 1415 1410 1383 1410 q 1469 1368 1482 1410 l 1179 435 q 1047 181 1132 283 q 843 26 961 78 q 576 -26 725 -26 m 847 1517 q 799 1535 818 1517 q 779 1589 779 1553 q 805 1659 779 1626 q 881 1692 831 1692 q 928 1674 908 1692 q 947 1621 947 1657 q 924 1550 947 1583 q 847 1517 900 1517 m 1189 1517 q 1141 1535 1161 1517 q 1121 1589 1121 1553 q 1147 1659 1121 1626 q 1222 1692 1172 1692 q 1270 1674 1250 1692 q 1290 1621 1290 1657 q 1266 1550 1290 1583 q 1189 1517 1242 1517 m 1008 1731 q 974 1749 993 1731 q 956 1782 956 1768 q 958 1793 956 1788 q 968 1807 960 1799 l 1188 2008 q 1201 2019 1194 2015 q 1215 2024 1207 2024 q 1247 2011 1229 2024 q 1276 1982 1264 1999 q 1289 1950 1289 1965 q 1286 1933 1289 1940 q 1268 1915 1283 1926 l 1035 1744 q 1020 1735 1026 1739 q 1008 1731 1014 1731 z "},"Ǚ":{"ha":1331,"x_min":186,"x_max":1482,"o":"m 576 -26 q 378 6 461 -26 q 247 101 294 39 q 193 256 200 164 q 224 467 186 347 l 513 1372 q 535 1401 519 1392 q 585 1410 551 1410 q 632 1400 617 1410 q 640 1368 647 1390 l 343 450 q 321 247 303 326 q 408 129 339 167 q 588 92 476 92 q 802 133 710 92 q 958 253 894 174 q 1058 450 1022 333 l 1344 1372 q 1367 1401 1351 1392 q 1415 1410 1383 1410 q 1469 1368 1482 1410 l 1179 435 q 1047 181 1132 283 q 843 26 961 78 q 576 -26 725 -26 m 847 1517 q 799 1535 818 1517 q 779 1589 779 1553 q 805 1659 779 1626 q 881 1692 831 1692 q 928 1674 908 1692 q 947 1621 947 1657 q 924 1550 947 1583 q 847 1517 900 1517 m 1189 1517 q 1141 1535 1161 1517 q 1121 1589 1121 1553 q 1147 1659 1121 1626 q 1222 1692 1172 1692 q 1270 1674 1250 1692 q 1290 1621 1290 1657 q 1266 1550 1290 1583 q 1189 1517 1242 1517 m 1343 2019 q 1373 2003 1360 2019 q 1386 1971 1386 1986 q 1382 1950 1386 1957 q 1371 1938 1378 1943 l 1144 1763 q 1106 1738 1124 1746 q 1065 1731 1088 1731 q 1033 1740 1047 1731 q 1006 1768 1018 1750 l 878 1949 q 869 1967 871 1960 q 868 1979 868 1974 q 888 2008 868 1996 q 922 2019 908 2019 q 943 2013 936 2019 q 960 1997 950 2007 l 1090 1872 l 1303 1999 q 1322 2012 1313 2004 q 1343 2019 1332 2019 z "},"Ǜ":{"ha":1331,"x_min":186,"x_max":1482,"o":"m 576 -26 q 378 6 461 -26 q 247 101 294 39 q 193 256 200 164 q 224 467 186 347 l 513 1372 q 535 1401 519 1392 q 585 1410 551 1410 q 632 1400 617 1410 q 640 1368 647 1390 l 343 450 q 321 247 303 326 q 408 129 339 167 q 588 92 476 92 q 802 133 710 92 q 958 253 894 174 q 1058 450 1022 333 l 1344 1372 q 1367 1401 1351 1392 q 1415 1410 1383 1410 q 1469 1368 1482 1410 l 1179 435 q 1047 181 1132 283 q 843 26 961 78 q 576 -26 725 -26 m 847 1517 q 799 1535 818 1517 q 779 1589 779 1553 q 805 1659 779 1626 q 881 1692 831 1692 q 928 1674 908 1692 q 947 1621 947 1657 q 924 1550 947 1583 q 847 1517 900 1517 m 1189 1517 q 1141 1535 1161 1517 q 1121 1589 1121 1553 q 1147 1659 1121 1626 q 1222 1692 1172 1692 q 1270 1674 1250 1692 q 1290 1621 1290 1657 q 1266 1550 1290 1583 q 1189 1517 1242 1517 m 1150 1731 q 1138 1735 1144 1731 q 1124 1744 1131 1739 l 925 1917 q 908 1935 911 1928 q 904 1951 904 1942 q 917 1983 904 1967 q 949 2012 931 2000 q 979 2024 967 2024 q 995 2019 989 2024 q 1008 2008 1001 2015 l 1192 1806 q 1201 1791 1200 1796 q 1203 1782 1203 1786 q 1184 1749 1203 1768 q 1150 1731 1165 1731 z "},"Ǖ":{"ha":1331,"x_min":186,"x_max":1482,"o":"m 576 -26 q 378 6 461 -26 q 247 101 294 39 q 193 256 200 164 q 224 467 186 347 l 513 1372 q 535 1401 519 1392 q 585 1410 551 1410 q 632 1400 617 1410 q 640 1368 647 1390 l 343 450 q 321 247 303 326 q 408 129 339 167 q 588 92 476 92 q 802 133 710 92 q 958 253 894 174 q 1058 450 1022 333 l 1344 1372 q 1367 1401 1351 1392 q 1415 1410 1383 1410 q 1469 1368 1482 1410 l 1179 435 q 1047 181 1132 283 q 843 26 961 78 q 576 -26 725 -26 m 847 1517 q 799 1535 818 1517 q 779 1589 779 1553 q 805 1659 779 1626 q 881 1692 831 1692 q 928 1674 908 1692 q 947 1621 947 1657 q 924 1550 947 1583 q 847 1517 900 1517 m 1189 1517 q 1141 1535 1161 1517 q 1121 1589 1121 1553 q 1147 1659 1121 1626 q 1222 1692 1172 1692 q 1270 1674 1250 1692 q 1290 1621 1290 1657 q 1266 1550 1290 1583 q 1189 1517 1242 1517 m 911 1817 q 878 1833 885 1817 q 879 1874 872 1849 q 899 1919 886 1904 q 936 1935 911 1935 l 1308 1935 q 1342 1917 1336 1935 q 1342 1874 1349 1900 q 1322 1831 1335 1844 q 1285 1817 1310 1817 l 911 1817 z "},"Ụ":{"ha":1331,"x_min":186,"x_max":1482,"o":"m 576 -26 q 378 6 461 -26 q 247 101 294 39 q 193 256 200 164 q 224 467 186 347 l 513 1372 q 535 1401 519 1392 q 585 1410 551 1410 q 632 1400 617 1410 q 640 1368 647 1390 l 343 450 q 321 247 303 326 q 408 129 339 167 q 588 92 476 92 q 802 133 710 92 q 958 253 894 174 q 1058 450 1022 333 l 1344 1372 q 1367 1401 1351 1392 q 1415 1410 1383 1410 q 1469 1368 1482 1410 l 1179 435 q 1047 181 1132 283 q 843 26 961 78 q 576 -26 725 -26 m 453 -322 q 406 -304 425 -322 q 386 -251 386 -286 q 410 -181 386 -214 q 486 -147 435 -147 q 535 -165 515 -147 q 554 -218 554 -183 q 530 -290 554 -257 q 453 -322 506 -322 z "},"Ủ":{"ha":1331,"x_min":186,"x_max":1482,"o":"m 576 -26 q 378 6 461 -26 q 247 101 294 39 q 193 256 200 164 q 224 467 186 347 l 513 1372 q 535 1401 519 1392 q 585 1410 551 1410 q 632 1400 617 1410 q 640 1368 647 1390 l 343 450 q 321 247 303 326 q 408 129 339 167 q 588 92 476 92 q 802 133 710 92 q 958 253 894 174 q 1058 450 1022 333 l 1344 1372 q 1367 1401 1351 1392 q 1415 1410 1383 1410 q 1469 1368 1482 1410 l 1179 435 q 1047 181 1132 283 q 843 26 961 78 q 576 -26 725 -26 m 1057 1800 q 1164 1770 1125 1800 q 1203 1686 1203 1740 q 1180 1612 1203 1643 q 1119 1564 1157 1581 q 1075 1535 1085 1549 q 1067 1510 1065 1522 l 1068 1496 q 1058 1469 1071 1479 q 1025 1458 1044 1460 q 990 1462 1006 1456 q 969 1483 974 1468 l 961 1519 q 968 1578 953 1553 q 1019 1621 983 1603 q 1056 1647 1044 1632 q 1067 1675 1067 1661 q 1058 1692 1067 1686 q 1032 1699 1049 1699 q 990 1692 1013 1699 q 946 1671 968 1685 q 894 1704 915 1654 q 914 1758 882 1733 q 981 1790 946 1779 q 1057 1800 1017 1800 z "},"Ư":{"ha":1331,"x_min":186,"x_max":1740,"o":"m 1718 1656 q 1736 1534 1740 1593 q 1696 1428 1732 1475 q 1587 1352 1660 1381 q 1399 1322 1514 1324 l 1426 1406 q 1568 1436 1524 1410 q 1618 1510 1613 1463 q 1606 1624 1624 1558 q 1614 1657 1600 1643 q 1650 1677 1628 1671 q 1692 1678 1672 1683 q 1718 1656 1713 1674 m 576 -26 q 378 6 461 -26 q 247 101 294 39 q 193 256 200 164 q 224 467 186 347 l 513 1372 q 535 1401 519 1392 q 585 1410 551 1410 q 632 1400 617 1410 q 640 1368 647 1390 l 343 450 q 321 247 303 326 q 408 129 339 167 q 588 92 476 92 q 802 133 710 92 q 958 253 894 174 q 1058 450 1022 333 l 1344 1372 q 1367 1401 1351 1392 q 1415 1410 1383 1410 q 1469 1368 1482 1410 l 1179 435 q 1047 181 1132 283 q 843 26 961 78 q 576 -26 725 -26 z "},"Ứ":{"ha":1331,"x_min":186,"x_max":1740,"o":"m 1718 1656 q 1736 1534 1740 1593 q 1696 1428 1732 1475 q 1587 1352 1660 1381 q 1399 1322 1514 1324 l 1426 1406 q 1568 1436 1524 1410 q 1618 1510 1613 1463 q 1606 1624 1624 1558 q 1614 1657 1600 1643 q 1650 1677 1628 1671 q 1692 1678 1672 1683 q 1718 1656 1713 1674 m 576 -26 q 378 6 461 -26 q 247 101 294 39 q 193 256 200 164 q 224 467 186 347 l 513 1372 q 535 1401 519 1392 q 585 1410 551 1410 q 632 1400 617 1410 q 640 1368 647 1390 l 343 450 q 321 247 303 326 q 408 129 339 167 q 588 92 476 92 q 802 133 710 92 q 958 253 894 174 q 1058 450 1022 333 l 1344 1372 q 1367 1401 1351 1392 q 1415 1410 1383 1410 q 1469 1368 1482 1410 l 1179 435 q 1047 181 1132 283 q 843 26 961 78 q 576 -26 725 -26 m 936 1469 q 902 1488 921 1469 q 883 1521 883 1507 q 885 1532 883 1526 q 896 1546 888 1538 l 1115 1747 q 1128 1758 1122 1754 q 1143 1763 1135 1763 q 1174 1750 1157 1763 q 1204 1721 1192 1738 q 1217 1689 1217 1704 q 1214 1672 1217 1679 q 1196 1654 1211 1665 l 963 1483 q 948 1474 954 1478 q 936 1469 942 1469 z "},"Ự":{"ha":1331,"x_min":186,"x_max":1740,"o":"m 1718 1656 q 1736 1534 1740 1593 q 1696 1428 1732 1475 q 1587 1352 1660 1381 q 1399 1322 1514 1324 l 1426 1406 q 1568 1436 1524 1410 q 1618 1510 1613 1463 q 1606 1624 1624 1558 q 1614 1657 1600 1643 q 1650 1677 1628 1671 q 1692 1678 1672 1683 q 1718 1656 1713 1674 m 576 -26 q 378 6 461 -26 q 247 101 294 39 q 193 256 200 164 q 224 467 186 347 l 513 1372 q 535 1401 519 1392 q 585 1410 551 1410 q 632 1400 617 1410 q 640 1368 647 1390 l 343 450 q 321 247 303 326 q 408 129 339 167 q 588 92 476 92 q 802 133 710 92 q 958 253 894 174 q 1058 450 1022 333 l 1344 1372 q 1367 1401 1351 1392 q 1415 1410 1383 1410 q 1469 1368 1482 1410 l 1179 435 q 1047 181 1132 283 q 843 26 961 78 q 576 -26 725 -26 m 453 -322 q 406 -304 425 -322 q 386 -251 386 -286 q 410 -181 386 -214 q 486 -147 435 -147 q 535 -165 515 -147 q 554 -218 554 -183 q 530 -290 554 -257 q 453 -322 506 -322 z "},"Ừ":{"ha":1331,"x_min":186,"x_max":1740,"o":"m 1718 1656 q 1736 1534 1740 1593 q 1696 1428 1732 1475 q 1587 1352 1660 1381 q 1399 1322 1514 1324 l 1426 1406 q 1568 1436 1524 1410 q 1618 1510 1613 1463 q 1606 1624 1624 1558 q 1614 1657 1600 1643 q 1650 1677 1628 1671 q 1692 1678 1672 1683 q 1718 1656 1713 1674 m 576 -26 q 378 6 461 -26 q 247 101 294 39 q 193 256 200 164 q 224 467 186 347 l 513 1372 q 535 1401 519 1392 q 585 1410 551 1410 q 632 1400 617 1410 q 640 1368 647 1390 l 343 450 q 321 247 303 326 q 408 129 339 167 q 588 92 476 92 q 802 133 710 92 q 958 253 894 174 q 1058 450 1022 333 l 1344 1372 q 1367 1401 1351 1392 q 1415 1410 1383 1410 q 1469 1368 1482 1410 l 1179 435 q 1047 181 1132 283 q 843 26 961 78 q 576 -26 725 -26 m 1078 1469 q 1065 1474 1072 1469 q 1051 1483 1058 1478 l 853 1656 q 835 1674 839 1667 q 832 1690 832 1681 q 845 1722 832 1706 q 876 1751 858 1739 q 907 1763 894 1763 q 923 1758 917 1763 q 936 1747 929 1754 l 1119 1544 q 1129 1530 1128 1535 q 1131 1521 1131 1525 q 1112 1488 1131 1507 q 1078 1469 1093 1469 z "},"Ử":{"ha":1331,"x_min":186,"x_max":1740,"o":"m 1718 1656 q 1736 1534 1740 1593 q 1696 1428 1732 1475 q 1587 1352 1660 1381 q 1399 1322 1514 1324 l 1426 1406 q 1568 1436 1524 1410 q 1618 1510 1613 1463 q 1606 1624 1624 1558 q 1614 1657 1600 1643 q 1650 1677 1628 1671 q 1692 1678 1672 1683 q 1718 1656 1713 1674 m 576 -26 q 378 6 461 -26 q 247 101 294 39 q 193 256 200 164 q 224 467 186 347 l 513 1372 q 535 1401 519 1392 q 585 1410 551 1410 q 632 1400 617 1410 q 640 1368 647 1390 l 343 450 q 321 247 303 326 q 408 129 339 167 q 588 92 476 92 q 802 133 710 92 q 958 253 894 174 q 1058 450 1022 333 l 1344 1372 q 1367 1401 1351 1392 q 1415 1410 1383 1410 q 1469 1368 1482 1410 l 1179 435 q 1047 181 1132 283 q 843 26 961 78 q 576 -26 725 -26 m 1057 1800 q 1164 1770 1125 1800 q 1203 1686 1203 1740 q 1180 1612 1203 1643 q 1119 1564 1157 1581 q 1075 1535 1085 1549 q 1067 1510 1065 1522 l 1068 1496 q 1058 1469 1071 1479 q 1025 1458 1044 1460 q 990 1462 1006 1456 q 969 1483 974 1468 l 961 1519 q 968 1578 953 1553 q 1019 1621 983 1603 q 1056 1647 1044 1632 q 1067 1675 1067 1661 q 1058 1692 1067 1686 q 1032 1699 1049 1699 q 990 1692 1013 1699 q 946 1671 968 1685 q 894 1704 915 1654 q 914 1758 882 1733 q 981 1790 946 1779 q 1057 1800 1017 1800 z "},"Ữ":{"ha":1331,"x_min":186,"x_max":1740,"o":"m 1718 1656 q 1736 1534 1740 1593 q 1696 1428 1732 1475 q 1587 1352 1660 1381 q 1399 1322 1514 1324 l 1426 1406 q 1568 1436 1524 1410 q 1618 1510 1613 1463 q 1606 1624 1624 1558 q 1614 1657 1600 1643 q 1650 1677 1628 1671 q 1692 1678 1672 1683 q 1718 1656 1713 1674 m 576 -26 q 378 6 461 -26 q 247 101 294 39 q 193 256 200 164 q 224 467 186 347 l 513 1372 q 535 1401 519 1392 q 585 1410 551 1410 q 632 1400 617 1410 q 640 1368 647 1390 l 343 450 q 321 247 303 326 q 408 129 339 167 q 588 92 476 92 q 802 133 710 92 q 958 253 894 174 q 1058 450 1022 333 l 1344 1372 q 1367 1401 1351 1392 q 1415 1410 1383 1410 q 1469 1368 1482 1410 l 1179 435 q 1047 181 1132 283 q 843 26 961 78 q 576 -26 725 -26 m 814 1510 q 772 1549 768 1510 q 824 1683 783 1642 q 936 1725 864 1725 q 1012 1710 982 1725 q 1063 1674 1042 1694 q 1106 1639 1085 1654 q 1156 1624 1126 1624 q 1190 1640 1175 1624 q 1210 1690 1204 1656 q 1268 1728 1218 1728 q 1301 1719 1292 1728 q 1307 1690 1310 1710 q 1257 1556 1297 1599 q 1149 1513 1217 1513 q 1072 1528 1104 1513 q 1016 1563 1040 1543 q 971 1597 992 1582 q 925 1613 950 1613 q 889 1594 904 1613 q 867 1540 874 1576 q 851 1518 864 1526 q 814 1510 838 1510 z "},"Ẃ":{"ha":1838,"x_min":354,"x_max":2150,"o":"m 435 -19 q 392 -6 408 -19 q 375 53 376 8 l 356 1347 q 371 1393 354 1376 q 422 1410 388 1410 q 464 1399 454 1410 q 474 1360 474 1388 l 488 189 l 1163 1354 q 1201 1401 1185 1392 q 1254 1410 1218 1410 q 1297 1399 1286 1410 q 1307 1360 1307 1388 l 1319 186 l 2003 1354 q 2042 1400 2025 1390 q 2093 1410 2058 1410 q 2140 1388 2129 1410 q 2131 1338 2150 1367 l 1363 36 q 1322 -7 1343 6 q 1267 -19 1301 -19 q 1224 -5 1240 -19 q 1207 53 1208 10 l 1192 1172 l 529 36 q 490 -7 511 6 q 435 -19 468 -19 m 1206 1469 q 1172 1488 1190 1469 q 1153 1521 1153 1507 q 1155 1532 1153 1526 q 1165 1546 1157 1538 l 1385 1747 q 1398 1758 1392 1754 q 1413 1763 1404 1763 q 1444 1750 1426 1763 q 1474 1721 1461 1738 q 1486 1689 1486 1704 q 1483 1672 1486 1679 q 1465 1654 1481 1665 l 1232 1483 q 1217 1474 1224 1478 q 1206 1469 1211 1469 z "},"Ŵ":{"ha":1838,"x_min":354,"x_max":2150,"o":"m 435 -19 q 392 -6 408 -19 q 375 53 376 8 l 356 1347 q 371 1393 354 1376 q 422 1410 388 1410 q 464 1399 454 1410 q 474 1360 474 1388 l 488 189 l 1163 1354 q 1201 1401 1185 1392 q 1254 1410 1218 1410 q 1297 1399 1286 1410 q 1307 1360 1307 1388 l 1319 186 l 2003 1354 q 2042 1400 2025 1390 q 2093 1410 2058 1410 q 2140 1388 2129 1410 q 2131 1338 2150 1367 l 1363 36 q 1322 -7 1343 6 q 1267 -19 1301 -19 q 1224 -5 1240 -19 q 1207 53 1208 10 l 1192 1172 l 529 36 q 490 -7 511 6 q 435 -19 468 -19 m 1069 1469 q 1042 1486 1053 1469 q 1031 1518 1031 1503 q 1035 1539 1031 1532 q 1046 1551 1040 1546 l 1271 1726 q 1310 1751 1292 1744 q 1351 1758 1329 1758 q 1384 1749 1369 1758 q 1410 1722 1399 1740 l 1539 1542 q 1547 1524 1546 1532 q 1547 1510 1547 1517 q 1529 1481 1547 1493 q 1499 1469 1511 1469 q 1475 1476 1485 1469 q 1454 1493 1465 1483 l 1325 1618 l 1113 1485 q 1092 1474 1103 1479 q 1069 1469 1082 1469 z "},"Ẅ":{"ha":1838,"x_min":354,"x_max":2150,"o":"m 435 -19 q 392 -6 408 -19 q 375 53 376 8 l 356 1347 q 371 1393 354 1376 q 422 1410 388 1410 q 464 1399 454 1410 q 474 1360 474 1388 l 488 189 l 1163 1354 q 1201 1401 1185 1392 q 1254 1410 1218 1410 q 1297 1399 1286 1410 q 1307 1360 1307 1388 l 1319 186 l 2003 1354 q 2042 1400 2025 1390 q 2093 1410 2058 1410 q 2140 1388 2129 1410 q 2131 1338 2150 1367 l 1363 36 q 1322 -7 1343 6 q 1267 -19 1301 -19 q 1224 -5 1240 -19 q 1207 53 1208 10 l 1192 1172 l 529 36 q 490 -7 511 6 q 435 -19 468 -19 m 1117 1517 q 1068 1535 1088 1517 q 1049 1589 1049 1553 q 1074 1659 1049 1626 q 1150 1692 1100 1692 q 1197 1674 1178 1692 q 1217 1621 1217 1657 q 1193 1550 1217 1583 q 1117 1517 1169 1517 m 1458 1517 q 1410 1535 1431 1517 q 1390 1589 1390 1553 q 1416 1659 1390 1626 q 1492 1692 1442 1692 q 1540 1674 1519 1692 q 1560 1621 1560 1657 q 1535 1550 1560 1583 q 1458 1517 1511 1517 z "},"Ẁ":{"ha":1838,"x_min":354,"x_max":2150,"o":"m 435 -19 q 392 -6 408 -19 q 375 53 376 8 l 356 1347 q 371 1393 354 1376 q 422 1410 388 1410 q 464 1399 454 1410 q 474 1360 474 1388 l 488 189 l 1163 1354 q 1201 1401 1185 1392 q 1254 1410 1218 1410 q 1297 1399 1286 1410 q 1307 1360 1307 1388 l 1319 186 l 2003 1354 q 2042 1400 2025 1390 q 2093 1410 2058 1410 q 2140 1388 2129 1410 q 2131 1338 2150 1367 l 1363 36 q 1322 -7 1343 6 q 1267 -19 1301 -19 q 1224 -5 1240 -19 q 1207 53 1208 10 l 1192 1172 l 529 36 q 490 -7 511 6 q 435 -19 468 -19 m 1347 1469 q 1335 1474 1342 1469 q 1321 1483 1328 1478 l 1122 1656 q 1105 1674 1108 1667 q 1101 1690 1101 1681 q 1115 1722 1101 1706 q 1146 1751 1128 1739 q 1176 1763 1164 1763 q 1192 1758 1186 1763 q 1206 1747 1199 1754 l 1389 1544 q 1399 1530 1397 1535 q 1400 1521 1400 1525 q 1381 1488 1400 1507 q 1347 1469 1363 1469 z "},"Ý":{"ha":958,"x_min":286,"x_max":1299,"o":"m 347 -19 q 299 19 286 -19 l 490 610 l 335 1347 q 344 1392 329 1375 q 394 1410 358 1410 q 438 1397 426 1410 q 454 1360 449 1385 l 582 739 l 1147 1364 q 1185 1399 1167 1388 q 1236 1410 1203 1410 q 1285 1388 1272 1410 q 1274 1338 1299 1367 l 614 606 l 424 19 q 347 -19 411 -19 m 744 1469 q 710 1488 729 1469 q 692 1521 692 1507 q 694 1532 692 1526 q 704 1546 696 1538 l 924 1747 q 937 1758 931 1754 q 951 1763 943 1763 q 983 1750 965 1763 q 1013 1721 1000 1738 q 1025 1689 1025 1704 q 1022 1672 1025 1679 q 1004 1654 1019 1665 l 771 1483 q 756 1474 763 1478 q 744 1469 750 1469 z "},"Ŷ":{"ha":958,"x_min":286,"x_max":1299,"o":"m 347 -19 q 299 19 286 -19 l 490 610 l 335 1347 q 344 1392 329 1375 q 394 1410 358 1410 q 438 1397 426 1410 q 454 1360 449 1385 l 582 739 l 1147 1364 q 1185 1399 1167 1388 q 1236 1410 1203 1410 q 1285 1388 1272 1410 q 1274 1338 1299 1367 l 614 606 l 424 19 q 347 -19 411 -19 m 608 1469 q 581 1486 592 1469 q 569 1518 569 1503 q 574 1539 569 1532 q 585 1551 579 1546 l 810 1726 q 849 1751 831 1744 q 890 1758 868 1758 q 923 1749 908 1758 q 949 1722 938 1740 l 1078 1542 q 1085 1524 1085 1532 q 1086 1510 1086 1517 q 1068 1481 1086 1493 q 1038 1469 1050 1469 q 1014 1476 1024 1469 q 993 1493 1004 1483 l 864 1618 l 651 1485 q 631 1474 642 1479 q 608 1469 621 1469 z "},"Ÿ":{"ha":958,"x_min":286,"x_max":1299,"o":"m 347 -19 q 299 19 286 -19 l 490 610 l 335 1347 q 344 1392 329 1375 q 394 1410 358 1410 q 438 1397 426 1410 q 454 1360 449 1385 l 582 739 l 1147 1364 q 1185 1399 1167 1388 q 1236 1410 1203 1410 q 1285 1388 1272 1410 q 1274 1338 1299 1367 l 614 606 l 424 19 q 347 -19 411 -19 m 656 1517 q 607 1535 626 1517 q 588 1589 588 1553 q 613 1659 588 1626 q 689 1692 639 1692 q 736 1674 717 1692 q 756 1621 756 1657 q 732 1550 756 1583 q 656 1517 708 1517 m 997 1517 q 949 1535 969 1517 q 929 1589 929 1553 q 955 1659 929 1626 q 1031 1692 981 1692 q 1078 1674 1058 1692 q 1099 1621 1099 1657 q 1074 1550 1099 1583 q 997 1517 1050 1517 z "},"Ỳ":{"ha":958,"x_min":286,"x_max":1299,"o":"m 347 -19 q 299 19 286 -19 l 490 610 l 335 1347 q 344 1392 329 1375 q 394 1410 358 1410 q 438 1397 426 1410 q 454 1360 449 1385 l 582 739 l 1147 1364 q 1185 1399 1167 1388 q 1236 1410 1203 1410 q 1285 1388 1272 1410 q 1274 1338 1299 1367 l 614 606 l 424 19 q 347 -19 411 -19 m 886 1469 q 874 1474 881 1469 q 860 1483 867 1478 l 661 1656 q 644 1674 647 1667 q 640 1690 640 1681 q 653 1722 640 1706 q 685 1751 667 1739 q 715 1763 703 1763 q 731 1758 725 1763 q 744 1747 738 1754 l 928 1544 q 938 1530 936 1535 q 939 1521 939 1525 q 920 1488 939 1507 q 886 1469 901 1469 z "},"Ỵ":{"ha":958,"x_min":222,"x_max":1299,"o":"m 347 -19 q 299 19 286 -19 l 490 610 l 335 1347 q 344 1392 329 1375 q 394 1410 358 1410 q 438 1397 426 1410 q 454 1360 449 1385 l 582 739 l 1147 1364 q 1185 1399 1167 1388 q 1236 1410 1203 1410 q 1285 1388 1272 1410 q 1274 1338 1299 1367 l 614 606 l 424 19 q 347 -19 411 -19 m 289 -322 q 242 -304 261 -322 q 222 -251 222 -286 q 247 -181 222 -214 q 322 -147 271 -147 q 371 -165 351 -147 q 390 -218 390 -183 q 366 -290 390 -257 q 289 -322 342 -322 z "},"Ỷ":{"ha":958,"x_min":286,"x_max":1299,"o":"m 347 -19 q 299 19 286 -19 l 490 610 l 335 1347 q 344 1392 329 1375 q 394 1410 358 1410 q 438 1397 426 1410 q 454 1360 449 1385 l 582 739 l 1147 1364 q 1185 1399 1167 1388 q 1236 1410 1203 1410 q 1285 1388 1272 1410 q 1274 1338 1299 1367 l 614 606 l 424 19 q 347 -19 411 -19 m 865 1800 q 972 1770 933 1800 q 1011 1686 1011 1740 q 988 1612 1011 1643 q 928 1564 965 1581 q 883 1535 893 1549 q 875 1510 874 1522 l 876 1496 q 866 1469 879 1479 q 833 1458 853 1460 q 798 1462 814 1456 q 778 1483 782 1468 l 769 1519 q 776 1578 761 1553 q 828 1621 792 1603 q 864 1647 853 1632 q 875 1675 875 1661 q 866 1692 875 1686 q 840 1699 857 1699 q 799 1692 821 1699 q 754 1671 776 1685 q 703 1704 724 1654 q 722 1758 690 1733 q 790 1790 754 1779 q 865 1800 825 1800 z "},"Ỹ":{"ha":958,"x_min":286,"x_max":1299,"o":"m 347 -19 q 299 19 286 -19 l 490 610 l 335 1347 q 344 1392 329 1375 q 394 1410 358 1410 q 438 1397 426 1410 q 454 1360 449 1385 l 582 739 l 1147 1364 q 1185 1399 1167 1388 q 1236 1410 1203 1410 q 1285 1388 1272 1410 q 1274 1338 1299 1367 l 614 606 l 424 19 q 347 -19 411 -19 m 622 1510 q 581 1549 576 1510 q 632 1683 592 1642 q 744 1725 672 1725 q 820 1710 790 1725 q 872 1674 850 1694 q 914 1639 893 1654 q 964 1624 935 1624 q 998 1640 983 1624 q 1018 1690 1013 1656 q 1076 1728 1026 1728 q 1109 1719 1100 1728 q 1115 1690 1118 1710 q 1065 1556 1106 1599 q 957 1513 1025 1513 q 881 1528 913 1513 q 824 1563 849 1543 q 779 1597 800 1582 q 733 1613 758 1613 q 697 1594 713 1613 q 675 1540 682 1576 q 659 1518 672 1526 q 622 1510 646 1510 z "},"Ź":{"ha":944,"x_min":-81,"x_max":1229,"o":"m -47 0 q -72 13 -64 0 q -78 46 -81 26 q -62 81 -76 65 l 1017 1275 l 400 1275 q 378 1288 385 1275 q 381 1331 372 1301 q 401 1372 388 1358 q 431 1386 415 1386 l 1192 1386 q 1222 1358 1215 1386 q 1207 1306 1229 1331 l 126 111 l 811 111 q 832 98 826 111 q 829 56 838 85 q 808 15 822 29 q 779 0 794 0 l -47 0 m 721 1469 q 687 1488 706 1469 q 668 1521 668 1507 q 670 1532 668 1526 q 681 1546 672 1538 l 900 1747 q 913 1758 907 1754 q 928 1763 919 1763 q 959 1750 942 1763 q 989 1721 976 1738 q 1001 1689 1001 1704 q 999 1672 1001 1679 q 981 1654 996 1665 l 747 1483 q 733 1474 739 1478 q 721 1469 726 1469 z "},"Ž":{"ha":944,"x_min":-81,"x_max":1229,"o":"m -47 0 q -72 13 -64 0 q -78 46 -81 26 q -62 81 -76 65 l 1017 1275 l 400 1275 q 378 1288 385 1275 q 381 1331 372 1301 q 401 1372 388 1358 q 431 1386 415 1386 l 1192 1386 q 1222 1358 1215 1386 q 1207 1306 1229 1331 l 126 111 l 811 111 q 832 98 826 111 q 829 56 838 85 q 808 15 822 29 q 779 0 794 0 l -47 0 m 1056 1758 q 1085 1742 1072 1758 q 1099 1710 1099 1725 q 1094 1689 1099 1696 q 1083 1676 1090 1682 l 857 1501 q 818 1477 836 1485 q 778 1469 800 1469 q 745 1479 760 1469 q 718 1507 731 1489 l 590 1688 q 582 1706 583 1699 q 581 1718 581 1713 q 601 1747 581 1735 q 635 1758 621 1758 q 656 1752 649 1758 q 672 1736 663 1746 l 803 1611 l 1015 1738 q 1035 1751 1025 1743 q 1056 1758 1044 1758 z "},"Ż":{"ha":944,"x_min":-81,"x_max":1229,"o":"m -47 0 q -72 13 -64 0 q -78 46 -81 26 q -62 81 -76 65 l 1017 1275 l 400 1275 q 378 1288 385 1275 q 381 1331 372 1301 q 401 1372 388 1358 q 431 1386 415 1386 l 1192 1386 q 1222 1358 1215 1386 q 1207 1306 1229 1331 l 126 111 l 811 111 q 832 98 826 111 q 829 56 838 85 q 808 15 822 29 q 779 0 794 0 l -47 0 m 804 1517 q 756 1535 775 1517 q 736 1589 736 1553 q 761 1659 736 1626 q 838 1692 786 1692 q 885 1674 865 1692 q 904 1621 904 1657 q 881 1550 904 1583 q 804 1517 857 1517 z "},"á":{"ha":865,"x_min":61,"x_max":843,"o":"m 264 -24 q 155 4 200 -24 q 85 85 110 32 q 61 210 61 138 q 78 340 61 271 q 128 477 94 410 q 215 600 163 544 q 340 688 268 656 q 506 721 413 721 q 599 706 554 721 q 681 665 643 690 l 682 671 q 705 707 692 699 q 744 715 718 715 q 800 702 789 715 q 803 661 811 689 l 640 165 q 633 130 636 150 q 636 95 629 110 q 668 81 643 81 q 706 91 689 81 q 737 117 724 101 q 758 144 750 132 q 782 161 767 156 q 819 151 797 167 q 843 122 843 138 q 835 92 843 107 q 796 40 821 67 q 736 -6 771 13 q 657 -24 701 -24 q 591 -15 618 -24 q 547 11 564 -6 q 522 50 531 28 q 514 99 514 72 q 514 106 514 103 q 514 113 514 110 q 424 27 469 57 q 337 -13 378 -3 q 264 -24 296 -24 m 186 222 q 199 148 186 178 q 239 103 213 118 q 304 88 265 88 q 394 112 350 88 q 479 182 438 136 q 557 290 521 228 l 651 575 q 583 603 615 596 q 514 611 550 611 q 385 585 440 611 q 292 515 331 558 q 231 419 254 471 q 197 315 207 367 q 186 222 186 264 m 532 856 q 502 869 519 856 q 485 897 485 882 q 488 915 485 907 q 499 932 492 924 l 669 1144 q 692 1167 682 1161 q 713 1172 701 1172 q 744 1163 726 1172 q 774 1138 761 1153 q 786 1106 786 1122 q 781 1088 786 1094 q 768 1074 776 1081 l 572 876 q 532 856 551 856 z "},"ă":{"ha":865,"x_min":61,"x_max":882,"o":"m 264 -24 q 155 4 200 -24 q 85 85 110 32 q 61 210 61 138 q 78 340 61 271 q 128 477 94 410 q 215 600 163 544 q 340 688 268 656 q 506 721 413 721 q 599 706 554 721 q 681 665 643 690 l 682 671 q 705 707 692 699 q 744 715 718 715 q 800 702 789 715 q 803 661 811 689 l 640 165 q 633 130 636 150 q 636 95 629 110 q 668 81 643 81 q 706 91 689 81 q 737 117 724 101 q 758 144 750 132 q 782 161 767 156 q 819 151 797 167 q 843 122 843 138 q 835 92 843 107 q 796 40 821 67 q 736 -6 771 13 q 657 -24 701 -24 q 591 -15 618 -24 q 547 11 564 -6 q 522 50 531 28 q 514 99 514 72 q 514 106 514 103 q 514 113 514 110 q 424 27 469 57 q 337 -13 378 -3 q 264 -24 296 -24 m 186 222 q 199 148 186 178 q 239 103 213 118 q 304 88 265 88 q 394 112 350 88 q 479 182 438 136 q 557 290 521 228 l 651 575 q 583 603 615 596 q 514 611 550 611 q 385 585 440 611 q 292 515 331 558 q 231 419 254 471 q 197 315 207 367 q 186 222 186 264 m 571 858 q 418 931 465 858 q 394 1139 371 1004 q 410 1169 399 1160 q 443 1178 422 1178 q 477 1167 464 1178 q 488 1139 490 1156 q 511 1020 482 1063 q 592 978 540 978 q 702 1026 653 978 q 778 1133 751 1074 q 801 1167 789 1158 q 832 1175 813 1175 q 869 1163 857 1175 q 875 1129 882 1150 q 801 970 843 1029 q 703 885 760 911 q 571 858 647 858 z "},"ǎ":{"ha":865,"x_min":61,"x_max":881,"o":"m 264 -24 q 155 4 200 -24 q 85 85 110 32 q 61 210 61 138 q 78 340 61 271 q 128 477 94 410 q 215 600 163 544 q 340 688 268 656 q 506 721 413 721 q 599 706 554 721 q 681 665 643 690 l 682 671 q 705 707 692 699 q 744 715 718 715 q 800 702 789 715 q 803 661 811 689 l 640 165 q 633 130 636 150 q 636 95 629 110 q 668 81 643 81 q 706 91 689 81 q 737 117 724 101 q 758 144 750 132 q 782 161 767 156 q 819 151 797 167 q 843 122 843 138 q 835 92 843 107 q 796 40 821 67 q 736 -6 771 13 q 657 -24 701 -24 q 591 -15 618 -24 q 547 11 564 -6 q 522 50 531 28 q 514 99 514 72 q 514 106 514 103 q 514 113 514 110 q 424 27 469 57 q 337 -13 378 -3 q 264 -24 296 -24 m 186 222 q 199 148 186 178 q 239 103 213 118 q 304 88 265 88 q 394 112 350 88 q 479 182 438 136 q 557 290 521 228 l 651 575 q 583 603 615 596 q 514 611 550 611 q 385 585 440 611 q 292 515 331 558 q 231 419 254 471 q 197 315 207 367 q 186 222 186 264 m 838 1178 q 867 1163 854 1178 q 881 1131 881 1147 q 876 1109 881 1117 q 865 1096 871 1101 l 644 889 q 606 865 625 871 q 564 858 588 858 q 531 867 546 858 q 506 894 515 876 l 393 1106 q 385 1124 388 1117 q 383 1138 383 1132 q 404 1166 383 1154 q 438 1178 425 1178 q 460 1171 453 1178 q 474 1154 468 1164 l 594 999 l 797 1157 q 816 1171 807 1164 q 838 1178 825 1178 z "},"â":{"ha":865,"x_min":61,"x_max":843,"o":"m 264 -24 q 155 4 200 -24 q 85 85 110 32 q 61 210 61 138 q 78 340 61 271 q 128 477 94 410 q 215 600 163 544 q 340 688 268 656 q 506 721 413 721 q 599 706 554 721 q 681 665 643 690 l 682 671 q 705 707 692 699 q 744 715 718 715 q 800 702 789 715 q 803 661 811 689 l 640 165 q 633 130 636 150 q 636 95 629 110 q 668 81 643 81 q 706 91 689 81 q 737 117 724 101 q 758 144 750 132 q 782 161 767 156 q 819 151 797 167 q 843 122 843 138 q 835 92 843 107 q 796 40 821 67 q 736 -6 771 13 q 657 -24 701 -24 q 591 -15 618 -24 q 547 11 564 -6 q 522 50 531 28 q 514 99 514 72 q 514 106 514 103 q 514 113 514 110 q 424 27 469 57 q 337 -13 378 -3 q 264 -24 296 -24 m 186 222 q 199 148 186 178 q 239 103 213 118 q 304 88 265 88 q 394 112 350 88 q 479 182 438 136 q 557 290 521 228 l 651 575 q 583 603 615 596 q 514 611 550 611 q 385 585 440 611 q 292 515 331 558 q 231 419 254 471 q 197 315 207 367 q 186 222 186 264 m 379 847 q 348 863 361 847 q 335 894 335 878 q 340 915 335 907 q 351 929 346 924 l 571 1136 q 610 1160 590 1154 q 651 1167 629 1167 q 685 1158 669 1167 q 710 1131 701 1149 l 824 918 q 831 901 829 908 q 832 888 832 894 q 812 859 832 871 q 778 847 792 847 q 756 854 764 847 q 742 869 749 861 l 622 1026 l 418 868 q 400 855 410 863 q 379 847 390 847 z "},"ä":{"ha":865,"x_min":61,"x_max":863,"o":"m 264 -24 q 155 4 200 -24 q 85 85 110 32 q 61 210 61 138 q 78 340 61 271 q 128 477 94 410 q 215 600 163 544 q 340 688 268 656 q 506 721 413 721 q 599 706 554 721 q 681 665 643 690 l 682 671 q 705 707 692 699 q 744 715 718 715 q 800 702 789 715 q 803 661 811 689 l 640 165 q 633 130 636 150 q 636 95 629 110 q 668 81 643 81 q 706 91 689 81 q 737 117 724 101 q 758 144 750 132 q 782 161 767 156 q 819 151 797 167 q 843 122 843 138 q 835 92 843 107 q 796 40 821 67 q 736 -6 771 13 q 657 -24 701 -24 q 591 -15 618 -24 q 547 11 564 -6 q 522 50 531 28 q 514 99 514 72 q 514 106 514 103 q 514 113 514 110 q 424 27 469 57 q 337 -13 378 -3 q 264 -24 296 -24 m 186 222 q 199 148 186 178 q 239 103 213 118 q 304 88 265 88 q 394 112 350 88 q 479 182 438 136 q 557 290 521 228 l 651 575 q 583 603 615 596 q 514 611 550 611 q 385 585 440 611 q 292 515 331 558 q 231 419 254 471 q 197 315 207 367 q 186 222 186 264 m 431 929 q 383 947 403 929 q 364 1000 364 965 q 388 1071 364 1038 q 464 1104 413 1104 q 513 1087 493 1104 q 532 1033 532 1069 q 508 963 532 996 q 431 929 483 929 m 763 929 q 714 947 733 929 q 694 1000 694 965 q 719 1071 694 1038 q 794 1104 743 1104 q 843 1087 824 1104 q 863 1033 863 1069 q 839 963 863 996 q 763 929 815 929 z "},"ǽ":{"ha":1240,"x_min":56,"x_max":1228,"o":"m 56 200 q 75 336 56 264 q 133 476 94 408 q 228 600 171 544 q 361 688 285 656 q 533 721 438 721 q 644 711 593 721 q 749 681 696 701 q 865 626 801 661 q 751 453 797 551 q 706 251 706 354 q 726 161 706 199 q 779 104 746 124 q 854 85 813 85 q 924 97 893 85 q 981 129 954 108 q 1036 174 1008 150 q 1073 188 1056 190 q 1106 171 1090 186 q 1128 133 1125 153 q 1113 97 1132 114 q 1025 28 1069 56 q 935 -13 981 0 q 840 -26 890 -26 q 701 9 760 -26 q 612 106 643 44 q 581 247 581 167 q 605 392 581 318 q 665 531 629 465 q 735 646 701 597 l 751 557 q 659 596 713 581 q 525 611 606 611 q 376 572 440 611 q 269 469 313 532 q 206 335 226 406 q 185 201 185 264 q 196 138 185 164 q 227 100 207 113 q 275 88 247 88 q 353 110 313 88 q 442 184 394 133 q 543 319 489 235 q 661 525 597 403 l 749 508 q 616 251 678 354 q 495 88 554 149 q 377 2 436 28 q 254 -24 318 -24 q 106 38 157 -24 q 56 200 56 100 m 1228 563 q 1202 464 1228 510 q 1128 381 1176 418 q 1010 318 1079 344 q 852 277 940 292 q 658 263 764 263 l 689 360 q 832 370 767 360 q 947 399 897 381 q 1033 440 997 417 q 1086 488 1068 463 q 1104 536 1104 513 q 1081 591 1104 572 q 993 610 1058 610 q 880 597 932 610 q 775 549 828 583 l 757 661 q 872 705 813 689 q 1025 721 932 721 q 1169 680 1111 721 q 1228 563 1228 639 m 760 856 q 730 869 747 856 q 713 897 713 882 q 716 915 713 907 q 726 932 719 924 l 897 1144 q 919 1167 910 1161 q 940 1172 929 1172 q 972 1163 954 1172 q 1001 1138 989 1153 q 1014 1106 1014 1122 q 1009 1088 1014 1094 q 996 1074 1004 1081 l 800 876 q 760 856 779 856 z "},"à":{"ha":865,"x_min":61,"x_max":843,"o":"m 264 -24 q 155 4 200 -24 q 85 85 110 32 q 61 210 61 138 q 78 340 61 271 q 128 477 94 410 q 215 600 163 544 q 340 688 268 656 q 506 721 413 721 q 599 706 554 721 q 681 665 643 690 l 682 671 q 705 707 692 699 q 744 715 718 715 q 800 702 789 715 q 803 661 811 689 l 640 165 q 633 130 636 150 q 636 95 629 110 q 668 81 643 81 q 706 91 689 81 q 737 117 724 101 q 758 144 750 132 q 782 161 767 156 q 819 151 797 167 q 843 122 843 138 q 835 92 843 107 q 796 40 821 67 q 736 -6 771 13 q 657 -24 701 -24 q 591 -15 618 -24 q 547 11 564 -6 q 522 50 531 28 q 514 99 514 72 q 514 106 514 103 q 514 113 514 110 q 424 27 469 57 q 337 -13 378 -3 q 264 -24 296 -24 m 186 222 q 199 148 186 178 q 239 103 213 118 q 304 88 265 88 q 394 112 350 88 q 479 182 438 136 q 557 290 521 228 l 651 575 q 583 603 615 596 q 514 611 550 611 q 385 585 440 611 q 292 515 331 558 q 231 419 254 471 q 197 315 207 367 q 186 222 186 264 m 604 865 q 584 872 594 865 q 563 897 574 879 l 450 1099 q 442 1114 446 1107 q 439 1129 439 1121 q 451 1158 439 1144 q 483 1179 464 1171 q 519 1188 501 1188 q 568 1143 551 1188 l 647 931 q 651 919 650 925 q 653 907 653 913 q 637 876 653 886 q 604 865 621 865 z "},"ā":{"ha":865,"x_min":61,"x_max":843,"o":"m 264 -24 q 155 4 200 -24 q 85 85 110 32 q 61 210 61 138 q 78 340 61 271 q 128 477 94 410 q 215 600 163 544 q 340 688 268 656 q 506 721 413 721 q 599 706 554 721 q 681 665 643 690 l 682 671 q 705 707 692 699 q 744 715 718 715 q 800 702 789 715 q 803 661 811 689 l 640 165 q 633 130 636 150 q 636 95 629 110 q 668 81 643 81 q 706 91 689 81 q 737 117 724 101 q 758 144 750 132 q 782 161 767 156 q 819 151 797 167 q 843 122 843 138 q 835 92 843 107 q 796 40 821 67 q 736 -6 771 13 q 657 -24 701 -24 q 591 -15 618 -24 q 547 11 564 -6 q 522 50 531 28 q 514 99 514 72 q 514 106 514 103 q 514 113 514 110 q 424 27 469 57 q 337 -13 378 -3 q 264 -24 296 -24 m 186 222 q 199 148 186 178 q 239 103 213 118 q 304 88 265 88 q 394 112 350 88 q 479 182 438 136 q 557 290 521 228 l 651 575 q 583 603 615 596 q 514 611 550 611 q 385 585 440 611 q 292 515 331 558 q 231 419 254 471 q 197 315 207 367 q 186 222 186 264 m 421 953 q 388 969 393 953 q 388 1011 382 986 q 407 1056 394 1040 q 444 1071 419 1071 l 803 1071 q 836 1054 831 1071 q 835 1011 842 1038 q 815 967 828 982 q 778 953 803 953 l 421 953 z "},"ą":{"ha":865,"x_min":61,"x_max":843,"o":"m 264 -24 q 155 4 200 -24 q 85 85 110 32 q 61 210 61 138 q 78 340 61 271 q 128 477 94 410 q 215 600 163 544 q 340 688 268 656 q 506 721 413 721 q 599 706 554 721 q 681 665 643 690 l 682 671 q 705 707 692 699 q 744 715 718 715 q 800 702 789 715 q 803 661 811 689 l 640 165 q 633 130 636 150 q 636 95 629 110 q 668 81 643 81 q 706 91 689 81 q 737 117 724 101 q 758 144 750 132 q 782 161 767 156 q 819 151 797 167 q 843 122 843 138 q 835 92 843 107 q 796 40 821 67 q 736 -6 771 13 q 657 -24 701 -24 q 591 -15 618 -24 q 547 11 564 -6 q 522 50 531 28 q 514 99 514 72 q 514 106 514 103 q 514 113 514 110 q 424 27 469 57 q 337 -13 378 -3 q 264 -24 296 -24 m 186 222 q 199 148 186 178 q 239 103 213 118 q 304 88 265 88 q 394 112 350 88 q 479 182 438 136 q 557 290 521 228 l 651 575 q 583 603 615 596 q 514 611 550 611 q 385 585 440 611 q 292 515 331 558 q 231 419 254 471 q 197 315 207 367 q 186 222 186 264 m 542 -339 q 465 -314 492 -339 q 439 -249 439 -289 q 462 -168 439 -207 q 522 -94 485 -129 q 603 -26 560 -60 q 690 38 647 7 l 785 40 l 785 32 q 705 -29 744 1 q 633 -90 665 -60 q 582 -147 601 -119 q 563 -197 563 -174 q 572 -222 563 -212 q 600 -232 582 -232 q 651 -217 626 -232 q 703 -176 676 -201 q 728 -163 714 -165 q 756 -175 742 -161 q 769 -198 764 -185 q 765 -226 775 -211 q 710 -281 747 -254 q 628 -323 672 -307 q 542 -339 583 -339 z "},"å":{"ha":865,"x_min":61,"x_max":843,"o":"m 264 -24 q 155 4 200 -24 q 85 85 110 32 q 61 210 61 138 q 78 340 61 271 q 128 477 94 410 q 215 600 163 544 q 340 688 268 656 q 506 721 413 721 q 599 706 554 721 q 681 665 643 690 l 682 671 q 705 707 692 699 q 744 715 718 715 q 800 702 789 715 q 803 661 811 689 l 640 165 q 633 130 636 150 q 636 95 629 110 q 668 81 643 81 q 706 91 689 81 q 737 117 724 101 q 758 144 750 132 q 782 161 767 156 q 819 151 797 167 q 843 122 843 138 q 835 92 843 107 q 796 40 821 67 q 736 -6 771 13 q 657 -24 701 -24 q 591 -15 618 -24 q 547 11 564 -6 q 522 50 531 28 q 514 99 514 72 q 514 106 514 103 q 514 113 514 110 q 424 27 469 57 q 337 -13 378 -3 q 264 -24 296 -24 m 186 222 q 199 148 186 178 q 239 103 213 118 q 304 88 265 88 q 394 112 350 88 q 479 182 438 136 q 557 290 521 228 l 651 575 q 583 603 615 596 q 514 611 550 611 q 385 585 440 611 q 292 515 331 558 q 231 419 254 471 q 197 315 207 367 q 186 222 186 264 m 583 835 q 465 876 507 835 q 424 993 424 917 q 452 1095 424 1050 q 529 1167 481 1140 q 636 1194 578 1194 q 760 1155 717 1194 q 803 1039 803 1115 q 774 935 803 982 q 696 862 746 889 q 583 835 646 835 m 590 918 q 646 935 621 918 q 686 978 671 951 q 701 1036 701 1006 q 684 1093 701 1075 q 631 1111 667 1111 q 578 1094 603 1111 q 540 1051 554 1078 q 525 994 525 1025 q 542 938 525 957 q 590 918 558 918 z "},"ã":{"ha":865,"x_min":61,"x_max":879,"o":"m 264 -24 q 155 4 200 -24 q 85 85 110 32 q 61 210 61 138 q 78 340 61 271 q 128 477 94 410 q 215 600 163 544 q 340 688 268 656 q 506 721 413 721 q 599 706 554 721 q 681 665 643 690 l 682 671 q 705 707 692 699 q 744 715 718 715 q 800 702 789 715 q 803 661 811 689 l 640 165 q 633 130 636 150 q 636 95 629 110 q 668 81 643 81 q 706 91 689 81 q 737 117 724 101 q 758 144 750 132 q 782 161 767 156 q 819 151 797 167 q 843 122 843 138 q 835 92 843 107 q 796 40 821 67 q 736 -6 771 13 q 657 -24 701 -24 q 591 -15 618 -24 q 547 11 564 -6 q 522 50 531 28 q 514 99 514 72 q 514 106 514 103 q 514 113 514 110 q 424 27 469 57 q 337 -13 378 -3 q 264 -24 296 -24 m 186 222 q 199 148 186 178 q 239 103 213 118 q 304 88 265 88 q 394 112 350 88 q 479 182 438 136 q 557 290 521 228 l 651 575 q 583 603 615 596 q 514 611 550 611 q 385 585 440 611 q 292 515 331 558 q 231 419 254 471 q 197 315 207 367 q 186 222 186 264 m 383 889 q 342 928 338 889 q 395 1066 353 1019 q 508 1113 438 1113 q 584 1097 554 1113 q 635 1060 614 1081 q 677 1023 657 1039 q 726 1007 697 1007 q 760 1025 746 1007 q 779 1078 774 1043 q 839 1115 788 1115 q 870 1106 861 1115 q 876 1078 879 1097 q 825 938 867 986 q 715 890 783 890 q 640 906 671 890 q 585 942 608 922 q 540 978 561 963 q 494 994 519 994 q 458 974 474 994 q 436 918 443 954 q 420 897 433 904 q 383 889 407 889 z "},"ắ":{"ha":865,"x_min":61,"x_max":894,"o":"m 264 -24 q 155 4 200 -24 q 85 85 110 32 q 61 210 61 138 q 78 340 61 271 q 128 477 94 410 q 215 600 163 544 q 340 688 268 656 q 506 721 413 721 q 599 706 554 721 q 681 665 643 690 l 682 671 q 705 707 692 699 q 744 715 718 715 q 800 702 789 715 q 803 661 811 689 l 640 165 q 633 130 636 150 q 636 95 629 110 q 668 81 643 81 q 706 91 689 81 q 737 117 724 101 q 758 144 750 132 q 782 161 767 156 q 819 151 797 167 q 843 122 843 138 q 835 92 843 107 q 796 40 821 67 q 736 -6 771 13 q 657 -24 701 -24 q 591 -15 618 -24 q 547 11 564 -6 q 522 50 531 28 q 514 99 514 72 q 514 106 514 103 q 514 113 514 110 q 424 27 469 57 q 337 -13 378 -3 q 264 -24 296 -24 m 186 222 q 199 148 186 178 q 239 103 213 118 q 304 88 265 88 q 394 112 350 88 q 479 182 438 136 q 557 290 521 228 l 651 575 q 583 603 615 596 q 514 611 550 611 q 385 585 440 611 q 292 515 331 558 q 231 419 254 471 q 197 315 207 367 q 186 222 186 264 m 581 858 q 425 931 474 858 q 400 1139 376 1004 q 416 1169 403 1160 q 451 1178 429 1178 q 488 1167 475 1178 q 500 1139 501 1156 q 522 1022 494 1063 q 601 981 550 981 q 710 1027 663 981 q 785 1133 758 1074 q 808 1167 796 1158 q 840 1175 819 1175 q 881 1163 868 1175 q 888 1129 894 1150 q 812 970 854 1029 q 713 885 769 911 q 581 858 657 858 m 624 1161 q 594 1174 611 1161 q 576 1203 576 1188 q 580 1221 576 1213 q 590 1238 583 1229 l 761 1450 q 783 1472 774 1467 q 804 1478 793 1478 q 835 1468 818 1478 q 865 1443 853 1458 q 878 1411 878 1428 q 873 1393 878 1400 q 860 1379 868 1386 l 664 1182 q 624 1161 643 1161 z "},"ặ":{"ha":865,"x_min":61,"x_max":882,"o":"m 264 -24 q 155 4 200 -24 q 85 85 110 32 q 61 210 61 138 q 78 340 61 271 q 128 477 94 410 q 215 600 163 544 q 340 688 268 656 q 506 721 413 721 q 599 706 554 721 q 681 665 643 690 l 682 671 q 705 707 692 699 q 744 715 718 715 q 800 702 789 715 q 803 661 811 689 l 640 165 q 633 130 636 150 q 636 95 629 110 q 668 81 643 81 q 706 91 689 81 q 737 117 724 101 q 758 144 750 132 q 782 161 767 156 q 819 151 797 167 q 843 122 843 138 q 835 92 843 107 q 796 40 821 67 q 736 -6 771 13 q 657 -24 701 -24 q 591 -15 618 -24 q 547 11 564 -6 q 522 50 531 28 q 514 99 514 72 q 514 106 514 103 q 514 113 514 110 q 424 27 469 57 q 337 -13 378 -3 q 264 -24 296 -24 m 186 222 q 199 148 186 178 q 239 103 213 118 q 304 88 265 88 q 394 112 350 88 q 479 182 438 136 q 557 290 521 228 l 651 575 q 583 603 615 596 q 514 611 550 611 q 385 585 440 611 q 292 515 331 558 q 231 419 254 471 q 197 315 207 367 q 186 222 186 264 m 228 -322 q 181 -304 200 -322 q 161 -251 161 -286 q 185 -181 161 -214 q 261 -147 210 -147 q 310 -165 290 -147 q 329 -218 329 -183 q 305 -290 329 -257 q 228 -322 281 -322 m 571 858 q 418 931 465 858 q 394 1139 371 1004 q 410 1169 399 1160 q 443 1178 422 1178 q 477 1167 464 1178 q 488 1139 490 1156 q 511 1020 482 1063 q 592 978 540 978 q 702 1026 653 978 q 778 1133 751 1074 q 801 1167 789 1158 q 832 1175 813 1175 q 869 1163 857 1175 q 875 1129 882 1150 q 801 970 843 1029 q 703 885 760 911 q 571 858 647 858 z "},"ằ":{"ha":865,"x_min":61,"x_max":894,"o":"m 264 -24 q 155 4 200 -24 q 85 85 110 32 q 61 210 61 138 q 78 340 61 271 q 128 477 94 410 q 215 600 163 544 q 340 688 268 656 q 506 721 413 721 q 599 706 554 721 q 681 665 643 690 l 682 671 q 705 707 692 699 q 744 715 718 715 q 800 702 789 715 q 803 661 811 689 l 640 165 q 633 130 636 150 q 636 95 629 110 q 668 81 643 81 q 706 91 689 81 q 737 117 724 101 q 758 144 750 132 q 782 161 767 156 q 819 151 797 167 q 843 122 843 138 q 835 92 843 107 q 796 40 821 67 q 736 -6 771 13 q 657 -24 701 -24 q 591 -15 618 -24 q 547 11 564 -6 q 522 50 531 28 q 514 99 514 72 q 514 106 514 103 q 514 113 514 110 q 424 27 469 57 q 337 -13 378 -3 q 264 -24 296 -24 m 186 222 q 199 148 186 178 q 239 103 213 118 q 304 88 265 88 q 394 112 350 88 q 479 182 438 136 q 557 290 521 228 l 651 575 q 583 603 615 596 q 514 611 550 611 q 385 585 440 611 q 292 515 331 558 q 231 419 254 471 q 197 315 207 367 q 186 222 186 264 m 581 858 q 425 931 474 858 q 400 1139 376 1004 q 416 1169 403 1160 q 451 1178 429 1178 q 488 1167 475 1178 q 500 1139 501 1156 q 522 1022 494 1063 q 601 981 550 981 q 710 1027 663 981 q 785 1133 758 1074 q 808 1167 796 1158 q 840 1175 819 1175 q 881 1163 868 1175 q 888 1129 894 1150 q 812 970 854 1029 q 713 885 769 911 q 581 858 657 858 m 682 1164 q 662 1171 672 1164 q 640 1196 651 1178 l 528 1397 q 520 1413 524 1406 q 517 1428 517 1419 q 529 1456 517 1443 q 560 1478 542 1469 q 597 1486 579 1486 q 646 1442 629 1486 l 725 1229 q 729 1217 728 1224 q 731 1206 731 1211 q 715 1174 731 1185 q 682 1164 699 1164 z "},"ẳ":{"ha":865,"x_min":61,"x_max":893,"o":"m 264 -24 q 155 4 200 -24 q 85 85 110 32 q 61 210 61 138 q 78 340 61 271 q 128 477 94 410 q 215 600 163 544 q 340 688 268 656 q 506 721 413 721 q 599 706 554 721 q 681 665 643 690 l 682 671 q 705 707 692 699 q 744 715 718 715 q 800 702 789 715 q 803 661 811 689 l 640 165 q 633 130 636 150 q 636 95 629 110 q 668 81 643 81 q 706 91 689 81 q 737 117 724 101 q 758 144 750 132 q 782 161 767 156 q 819 151 797 167 q 843 122 843 138 q 835 92 843 107 q 796 40 821 67 q 736 -6 771 13 q 657 -24 701 -24 q 591 -15 618 -24 q 547 11 564 -6 q 522 50 531 28 q 514 99 514 72 q 514 106 514 103 q 514 113 514 110 q 424 27 469 57 q 337 -13 378 -3 q 264 -24 296 -24 m 186 222 q 199 148 186 178 q 239 103 213 118 q 304 88 265 88 q 394 112 350 88 q 479 182 438 136 q 557 290 521 228 l 651 575 q 583 603 615 596 q 514 611 550 611 q 385 585 440 611 q 292 515 331 558 q 231 419 254 471 q 197 315 207 367 q 186 222 186 264 m 582 858 q 429 931 476 858 q 406 1139 382 1004 q 422 1169 410 1160 q 454 1178 433 1178 q 488 1167 475 1178 q 499 1139 501 1156 q 522 1020 493 1063 q 603 978 551 978 q 713 1026 664 978 q 789 1133 763 1074 q 812 1167 800 1158 q 843 1175 824 1175 q 881 1163 868 1175 q 886 1129 893 1150 q 813 970 854 1029 q 715 885 771 911 q 582 858 658 858 m 683 1456 q 790 1426 751 1456 q 829 1343 829 1396 q 807 1270 829 1300 q 746 1219 785 1240 q 702 1187 711 1200 q 694 1161 693 1174 l 696 1142 q 684 1115 697 1125 q 651 1103 671 1106 q 616 1108 632 1101 q 597 1129 600 1114 l 589 1171 q 597 1228 582 1203 q 647 1276 611 1254 q 683 1304 672 1292 q 694 1331 694 1317 q 685 1349 694 1342 q 660 1356 676 1356 q 618 1348 640 1356 q 572 1328 596 1340 q 547 1328 560 1319 q 522 1360 533 1338 q 542 1414 510 1390 q 609 1445 574 1435 q 683 1456 644 1456 z "},"ẵ":{"ha":865,"x_min":61,"x_max":964,"o":"m 264 -24 q 155 4 200 -24 q 85 85 110 32 q 61 210 61 138 q 78 340 61 271 q 128 477 94 410 q 215 600 163 544 q 340 688 268 656 q 506 721 413 721 q 599 706 554 721 q 681 665 643 690 l 682 671 q 705 707 692 699 q 744 715 718 715 q 800 702 789 715 q 803 661 811 689 l 640 165 q 633 130 636 150 q 636 95 629 110 q 668 81 643 81 q 706 91 689 81 q 737 117 724 101 q 758 144 750 132 q 782 161 767 156 q 819 151 797 167 q 843 122 843 138 q 835 92 843 107 q 796 40 821 67 q 736 -6 771 13 q 657 -24 701 -24 q 591 -15 618 -24 q 547 11 564 -6 q 522 50 531 28 q 514 99 514 72 q 514 106 514 103 q 514 113 514 110 q 424 27 469 57 q 337 -13 378 -3 q 264 -24 296 -24 m 186 222 q 199 148 186 178 q 239 103 213 118 q 304 88 265 88 q 394 112 350 88 q 479 182 438 136 q 557 290 521 228 l 651 575 q 583 603 615 596 q 514 611 550 611 q 385 585 440 611 q 292 515 331 558 q 231 419 254 471 q 197 315 207 367 q 186 222 186 264 m 571 858 q 418 931 465 858 q 394 1139 371 1004 q 410 1169 399 1160 q 443 1178 422 1178 q 477 1167 464 1178 q 488 1139 490 1156 q 511 1020 482 1063 q 592 978 540 978 q 702 1026 653 978 q 778 1133 751 1074 q 801 1167 789 1158 q 832 1175 813 1175 q 869 1163 857 1175 q 875 1129 882 1150 q 801 970 843 1029 q 703 885 760 911 q 571 858 647 858 m 468 1219 q 426 1258 422 1219 q 480 1397 438 1350 q 593 1443 522 1443 q 669 1427 639 1443 q 720 1390 699 1411 q 762 1353 742 1369 q 811 1338 782 1338 q 844 1356 831 1338 q 864 1408 858 1374 q 924 1446 872 1446 q 955 1437 946 1446 q 961 1408 964 1428 q 910 1269 951 1317 q 800 1221 868 1221 q 724 1237 756 1221 q 669 1273 693 1253 q 625 1309 646 1293 q 579 1325 604 1325 q 543 1305 558 1325 q 521 1249 528 1285 q 505 1227 518 1235 q 468 1219 492 1219 z "},"ấ":{"ha":865,"x_min":61,"x_max":1085,"o":"m 264 -24 q 155 4 200 -24 q 85 85 110 32 q 61 210 61 138 q 78 340 61 271 q 128 477 94 410 q 215 600 163 544 q 340 688 268 656 q 506 721 413 721 q 599 706 554 721 q 681 665 643 690 l 682 671 q 705 707 692 699 q 744 715 718 715 q 800 702 789 715 q 803 661 811 689 l 640 165 q 633 130 636 150 q 636 95 629 110 q 668 81 643 81 q 706 91 689 81 q 737 117 724 101 q 758 144 750 132 q 782 161 767 156 q 819 151 797 167 q 843 122 843 138 q 835 92 843 107 q 796 40 821 67 q 736 -6 771 13 q 657 -24 701 -24 q 591 -15 618 -24 q 547 11 564 -6 q 522 50 531 28 q 514 99 514 72 q 514 106 514 103 q 514 113 514 110 q 424 27 469 57 q 337 -13 378 -3 q 264 -24 296 -24 m 186 222 q 199 148 186 178 q 239 103 213 118 q 304 88 265 88 q 394 112 350 88 q 479 182 438 136 q 557 290 521 228 l 651 575 q 583 603 615 596 q 514 611 550 611 q 385 585 440 611 q 292 515 331 558 q 231 419 254 471 q 197 315 207 367 q 186 222 186 264 m 379 847 q 348 863 361 847 q 335 894 335 878 q 340 915 335 907 q 351 929 346 924 l 571 1136 q 610 1160 590 1154 q 651 1167 629 1167 q 685 1158 669 1167 q 710 1131 701 1149 l 824 918 q 831 901 829 908 q 832 888 832 894 q 812 859 832 871 q 778 847 792 847 q 756 854 764 847 q 742 869 749 861 l 622 1026 l 418 868 q 400 855 410 863 q 379 847 390 847 m 831 1064 q 801 1077 818 1064 q 783 1106 783 1090 q 787 1124 783 1115 q 797 1140 790 1132 l 968 1353 q 990 1375 981 1369 q 1011 1381 1000 1381 q 1042 1371 1025 1381 q 1072 1346 1060 1361 q 1085 1314 1085 1331 q 1080 1296 1085 1303 q 1067 1282 1075 1289 l 871 1085 q 831 1064 850 1064 z "},"ậ":{"ha":865,"x_min":61,"x_max":843,"o":"m 264 -24 q 155 4 200 -24 q 85 85 110 32 q 61 210 61 138 q 78 340 61 271 q 128 477 94 410 q 215 600 163 544 q 340 688 268 656 q 506 721 413 721 q 599 706 554 721 q 681 665 643 690 l 682 671 q 705 707 692 699 q 744 715 718 715 q 800 702 789 715 q 803 661 811 689 l 640 165 q 633 130 636 150 q 636 95 629 110 q 668 81 643 81 q 706 91 689 81 q 737 117 724 101 q 758 144 750 132 q 782 161 767 156 q 819 151 797 167 q 843 122 843 138 q 835 92 843 107 q 796 40 821 67 q 736 -6 771 13 q 657 -24 701 -24 q 591 -15 618 -24 q 547 11 564 -6 q 522 50 531 28 q 514 99 514 72 q 514 106 514 103 q 514 113 514 110 q 424 27 469 57 q 337 -13 378 -3 q 264 -24 296 -24 m 186 222 q 199 148 186 178 q 239 103 213 118 q 304 88 265 88 q 394 112 350 88 q 479 182 438 136 q 557 290 521 228 l 651 575 q 583 603 615 596 q 514 611 550 611 q 385 585 440 611 q 292 515 331 558 q 231 419 254 471 q 197 315 207 367 q 186 222 186 264 m 228 -322 q 181 -304 200 -322 q 161 -251 161 -286 q 185 -181 161 -214 q 261 -147 210 -147 q 310 -165 290 -147 q 329 -218 329 -183 q 305 -290 329 -257 q 228 -322 281 -322 m 379 847 q 348 863 361 847 q 335 894 335 878 q 340 915 335 907 q 351 929 346 924 l 571 1136 q 610 1160 590 1154 q 651 1167 629 1167 q 685 1158 669 1167 q 710 1131 701 1149 l 824 918 q 831 901 829 908 q 832 888 832 894 q 812 859 832 871 q 778 847 792 847 q 756 854 764 847 q 742 869 749 861 l 622 1026 l 418 868 q 400 855 410 863 q 379 847 390 847 z "},"ầ":{"ha":865,"x_min":61,"x_max":918,"o":"m 264 -24 q 155 4 200 -24 q 85 85 110 32 q 61 210 61 138 q 78 340 61 271 q 128 477 94 410 q 215 600 163 544 q 340 688 268 656 q 506 721 413 721 q 599 706 554 721 q 681 665 643 690 l 682 671 q 705 707 692 699 q 744 715 718 715 q 800 702 789 715 q 803 661 811 689 l 640 165 q 633 130 636 150 q 636 95 629 110 q 668 81 643 81 q 706 91 689 81 q 737 117 724 101 q 758 144 750 132 q 782 161 767 156 q 819 151 797 167 q 843 122 843 138 q 835 92 843 107 q 796 40 821 67 q 736 -6 771 13 q 657 -24 701 -24 q 591 -15 618 -24 q 547 11 564 -6 q 522 50 531 28 q 514 99 514 72 q 514 106 514 103 q 514 113 514 110 q 424 27 469 57 q 337 -13 378 -3 q 264 -24 296 -24 m 186 222 q 199 148 186 178 q 239 103 213 118 q 304 88 265 88 q 394 112 350 88 q 479 182 438 136 q 557 290 521 228 l 651 575 q 583 603 615 596 q 514 611 550 611 q 385 585 440 611 q 292 515 331 558 q 231 419 254 471 q 197 315 207 367 q 186 222 186 264 m 379 847 q 348 863 361 847 q 335 894 335 878 q 340 915 335 907 q 351 929 346 924 l 571 1136 q 610 1160 590 1154 q 651 1167 629 1167 q 685 1158 669 1167 q 710 1131 701 1149 l 824 918 q 831 901 829 908 q 832 888 832 894 q 812 859 832 871 q 778 847 792 847 q 756 854 764 847 q 742 869 749 861 l 622 1026 l 418 868 q 400 855 410 863 q 379 847 390 847 m 869 1074 q 849 1081 860 1074 q 828 1106 839 1088 l 715 1307 q 708 1322 711 1315 q 704 1338 704 1329 q 717 1366 704 1353 q 748 1388 729 1379 q 785 1396 767 1396 q 833 1351 817 1396 l 913 1139 q 917 1127 915 1133 q 918 1115 918 1121 q 902 1084 918 1094 q 869 1074 886 1074 z "},"ẩ":{"ha":865,"x_min":61,"x_max":1060,"o":"m 264 -24 q 155 4 200 -24 q 85 85 110 32 q 61 210 61 138 q 78 340 61 271 q 128 477 94 410 q 215 600 163 544 q 340 688 268 656 q 506 721 413 721 q 599 706 554 721 q 681 665 643 690 l 682 671 q 705 707 692 699 q 744 715 718 715 q 800 702 789 715 q 803 661 811 689 l 640 165 q 633 130 636 150 q 636 95 629 110 q 668 81 643 81 q 706 91 689 81 q 737 117 724 101 q 758 144 750 132 q 782 161 767 156 q 819 151 797 167 q 843 122 843 138 q 835 92 843 107 q 796 40 821 67 q 736 -6 771 13 q 657 -24 701 -24 q 591 -15 618 -24 q 547 11 564 -6 q 522 50 531 28 q 514 99 514 72 q 514 106 514 103 q 514 113 514 110 q 424 27 469 57 q 337 -13 378 -3 q 264 -24 296 -24 m 186 222 q 199 148 186 178 q 239 103 213 118 q 304 88 265 88 q 394 112 350 88 q 479 182 438 136 q 557 290 521 228 l 651 575 q 583 603 615 596 q 514 611 550 611 q 385 585 440 611 q 292 515 331 558 q 231 419 254 471 q 197 315 207 367 q 186 222 186 264 m 390 847 q 359 863 372 847 q 346 894 346 878 q 351 915 346 907 q 363 929 357 924 l 582 1136 q 621 1160 601 1154 q 663 1167 640 1167 q 697 1158 681 1167 q 721 1131 713 1149 l 835 918 q 842 901 840 908 q 843 888 843 894 q 823 859 843 871 q 789 847 803 847 q 767 854 775 847 q 753 869 760 861 l 633 1026 l 429 868 q 411 855 421 863 q 390 847 401 847 m 914 1390 q 1021 1360 982 1390 q 1060 1278 1060 1331 q 1038 1205 1060 1235 q 976 1154 1015 1175 q 933 1122 942 1135 q 925 1096 924 1108 l 926 1076 q 915 1050 928 1060 q 882 1038 901 1040 q 847 1042 863 1036 q 828 1064 831 1049 l 819 1106 q 827 1163 813 1138 q 878 1211 842 1189 q 914 1239 903 1226 q 925 1265 925 1251 q 916 1283 925 1276 q 890 1290 907 1290 q 849 1283 871 1290 q 803 1263 826 1275 q 777 1263 790 1254 q 753 1294 764 1272 q 772 1349 740 1325 q 840 1380 804 1369 q 914 1390 875 1390 z "},"ẫ":{"ha":865,"x_min":61,"x_max":957,"o":"m 264 -24 q 155 4 200 -24 q 85 85 110 32 q 61 210 61 138 q 78 340 61 271 q 128 477 94 410 q 215 600 163 544 q 340 688 268 656 q 506 721 413 721 q 599 706 554 721 q 681 665 643 690 l 682 671 q 705 707 692 699 q 744 715 718 715 q 800 702 789 715 q 803 661 811 689 l 640 165 q 633 130 636 150 q 636 95 629 110 q 668 81 643 81 q 706 91 689 81 q 737 117 724 101 q 758 144 750 132 q 782 161 767 156 q 819 151 797 167 q 843 122 843 138 q 835 92 843 107 q 796 40 821 67 q 736 -6 771 13 q 657 -24 701 -24 q 591 -15 618 -24 q 547 11 564 -6 q 522 50 531 28 q 514 99 514 72 q 514 106 514 103 q 514 113 514 110 q 424 27 469 57 q 337 -13 378 -3 q 264 -24 296 -24 m 186 222 q 199 148 186 178 q 239 103 213 118 q 304 88 265 88 q 394 112 350 88 q 479 182 438 136 q 557 290 521 228 l 651 575 q 583 603 615 596 q 514 611 550 611 q 385 585 440 611 q 292 515 331 558 q 231 419 254 471 q 197 315 207 367 q 186 222 186 264 m 379 847 q 348 863 361 847 q 335 894 335 878 q 340 915 335 907 q 351 929 346 924 l 571 1136 q 610 1160 590 1154 q 651 1167 629 1167 q 685 1158 669 1167 q 710 1131 701 1149 l 824 918 q 831 901 829 908 q 832 888 832 894 q 812 859 832 871 q 778 847 792 847 q 756 854 764 847 q 742 869 749 861 l 622 1026 l 418 868 q 400 855 410 863 q 379 847 390 847 m 461 1219 q 419 1258 415 1219 q 473 1397 431 1350 q 586 1443 515 1443 q 662 1427 632 1443 q 713 1390 692 1411 q 755 1353 735 1369 q 804 1338 775 1338 q 838 1356 824 1338 q 857 1408 851 1374 q 917 1446 865 1446 q 948 1437 939 1446 q 954 1408 957 1428 q 903 1269 944 1317 q 793 1221 861 1221 q 717 1237 749 1221 q 663 1273 686 1253 q 618 1309 639 1293 q 572 1325 597 1325 q 536 1305 551 1325 q 514 1249 521 1285 q 498 1227 511 1235 q 461 1219 485 1219 z "},"ạ":{"ha":865,"x_min":61,"x_max":843,"o":"m 264 -24 q 155 4 200 -24 q 85 85 110 32 q 61 210 61 138 q 78 340 61 271 q 128 477 94 410 q 215 600 163 544 q 340 688 268 656 q 506 721 413 721 q 599 706 554 721 q 681 665 643 690 l 682 671 q 705 707 692 699 q 744 715 718 715 q 800 702 789 715 q 803 661 811 689 l 640 165 q 633 130 636 150 q 636 95 629 110 q 668 81 643 81 q 706 91 689 81 q 737 117 724 101 q 758 144 750 132 q 782 161 767 156 q 819 151 797 167 q 843 122 843 138 q 835 92 843 107 q 796 40 821 67 q 736 -6 771 13 q 657 -24 701 -24 q 591 -15 618 -24 q 547 11 564 -6 q 522 50 531 28 q 514 99 514 72 q 514 106 514 103 q 514 113 514 110 q 424 27 469 57 q 337 -13 378 -3 q 264 -24 296 -24 m 186 222 q 199 148 186 178 q 239 103 213 118 q 304 88 265 88 q 394 112 350 88 q 479 182 438 136 q 557 290 521 228 l 651 575 q 583 603 615 596 q 514 611 550 611 q 385 585 440 611 q 292 515 331 558 q 231 419 254 471 q 197 315 207 367 q 186 222 186 264 m 226 -322 q 179 -304 199 -322 q 160 -251 160 -286 q 184 -181 160 -214 q 260 -147 208 -147 q 308 -165 289 -147 q 328 -218 328 -183 q 303 -290 328 -257 q 226 -322 279 -322 z "}}}
